M48
;DRILL file {KiCad 4.0.6} date 01/16/18 14:36:05
;FORMAT={-:-/ absolute / metric / decimal}
FMAT,2
METRIC,TZ
T1C0.550
T2C0.600
T3C0.800
T4C1.000
T5C1.200
T6C1.400
T7C4.000
%
G90
G05
M71
T2
X62.6Y-124.3
X62.95Y-125.1
X63.Y-91.4
X63.Y-92.3
X63.Y-93.2
X63.1Y-105.3
X63.8Y-104.5
X63.85Y-115.75
X64.Y-105.3
X64.19Y-116.55
X64.75Y-115.85
X67.4Y-130.35
X68.35Y-130.4
X68.95Y-111.45
X68.95Y-112.35
X69.Y-110.5
X72.03Y-96.12
X72.05Y-95.15
X72.05Y-97.
X72.45Y-108.6
X72.45Y-109.55
X72.45Y-110.4
X72.7Y-95.75
X72.7Y-137.45
X72.75Y-96.6
X73.7Y-137.4
X74.45Y-137.45
X76.35Y-110.2
X77.05Y-109.5
X77.1Y-110.35
X78.3Y-114.8
X78.3Y-115.7
X78.3Y-116.55
X78.3Y-117.5
X78.3Y-118.35
X78.8Y-133.35
X78.8Y-134.25
X78.8Y-135.3
X80.2Y-109.1
X80.21Y-109.94
X80.25Y-110.9
X82.576Y-123.826
X83.2Y-124.45
X83.876Y-125.
X84.75Y-136.6
X84.75Y-138.4
X84.78Y-137.45
X86.1Y-138.1
X86.95Y-138.1
X87.725Y-138.1
X87.8Y-118.3
X87.8Y-119.15
X87.8Y-120.05
X87.8Y-125.25
X87.8Y-126.15
X87.8Y-127.
X88.5Y-119.7
X88.65Y-118.8
X89.99Y-132.2
X89.99Y-133.1
X89.99Y-133.95
X93.05Y-102.5
X93.4Y-119.2
X94.15Y-127.85
X94.15Y-128.55
X94.24Y-119.2
X96.65Y-104.375
X96.65Y-128.85
X100.09Y-127.16
X101.025Y-102.5
X102.45Y-104.95
X103.15Y-119.85
X103.22Y-114.67
X103.675Y-126.3
X105.015Y-125.205
X105.25Y-110.35
X105.5Y-112.2
X105.64Y-114.59
X105.64Y-115.4
X106.75Y-138.25
X106.97Y-123.45
X107.425Y-118.65
X107.55Y-138.29
X107.75Y-110.45
X107.855Y-111.1
X107.93Y-121.7
X108.5Y-138.3
X108.8Y-114.85
X109.025Y-102.55
X109.03Y-122.44
X109.425Y-123.73
X109.664Y-118.372
X110.37Y-122.08
X110.555Y-120.175
X111.15Y-118.4
X111.44Y-123.03
X111.76Y-121.62
X111.89Y-120.32
X113.02Y-125.935
X113.875Y-124.575
X115.345Y-124.235
X115.73Y-130.87
X116.6Y-130.9
X117.012Y-102.55
X117.5Y-130.9
X117.51Y-123.25
X117.75Y-106.95
X117.775Y-126.925
X118.15Y-138.29
X118.3Y-106.25
X118.75Y-106.95
X118.95Y-138.29
X119.064Y-123.275
X119.09Y-118.27
X119.12Y-117.37
X119.73Y-123.363
X120.625Y-128.85
X121.23Y-122.83
X121.6Y-102.55
X122.05Y-114.05
X122.19Y-119.3
X122.4Y-102.55
X122.62Y-122.32
X123.Y-118.15
X123.38Y-128.865
X123.405Y-127.35
X123.405Y-128.04
X124.95Y-112.2
X124.95Y-114.62
X125.33Y-103.34
X125.55Y-102.575
X126.15Y-138.15
X131.Y-96.42
X131.Y-97.25
X131.164Y-91.51
X132.02Y-91.6
X132.1Y-131.625
X132.55Y-103.45
X132.83Y-131.18
X133.Y-133.825
X133.475Y-103.475
X133.5Y-93.775
X133.975Y-93.3
X134.7Y-92.75
X135.45Y-108.7
X136.45Y-133.55
X136.9Y-110.025
X137.2Y-93.9
X137.9Y-87.65
X138.2Y-99.4
X138.225Y-103.15
X138.75Y-87.66
X139.2Y-85.45
X139.87Y-86.1
X140.Y-85.3
X140.125Y-105.025
X140.9Y-91.025
X140.925Y-126.8
X140.95Y-93.9
X141.975Y-112.725
X142.8Y-101.55
X142.9Y-94.3
X142.9Y-112.725
X143.05Y-115.6
X143.05Y-118.787
X143.05Y-121.975
X143.05Y-124.15
X143.35Y-101.2
X143.8Y-112.725
X149.025Y-103.725
X149.46Y-104.45
X149.86Y-103.71
T3
X131.6Y-108.2
X131.6Y-110.2
X131.6Y-112.2
X131.6Y-114.2
X131.6Y-116.2
X131.6Y-118.2
X131.6Y-120.2
X131.6Y-122.2
X131.6Y-124.2
X131.6Y-126.2
X133.6Y-108.2
X133.6Y-110.2
X133.6Y-112.2
X133.6Y-114.2
X133.6Y-116.2
X133.6Y-118.2
X133.6Y-120.2
X133.6Y-122.2
X133.6Y-124.2
X133.6Y-126.2
T4
X98.05Y-117.77
X98.05Y-120.31
X98.05Y-122.85
X98.05Y-125.39
X129.495Y-138.
X132.035Y-138.
X134.575Y-138.
X137.115Y-138.
X149.15Y-92.76
X149.15Y-95.3
X149.15Y-97.84
X149.15Y-100.38
X149.4Y-113.32
X149.4Y-115.86
X149.4Y-118.4
X149.4Y-120.94
X149.4Y-123.48
X149.4Y-126.02
T5
X79.99Y-83.7
X83.8Y-83.7
X89.03Y-83.7
X92.84Y-83.7
X96.65Y-83.7
X100.46Y-83.7
X103.85Y-131.025
X104.27Y-83.7
X108.08Y-83.7
X111.25Y-131.025
X111.89Y-83.7
X115.7Y-83.7
X121.07Y-83.7
X124.88Y-83.7
X128.69Y-83.7
X132.5Y-83.7
T6
X81.199Y-91.38
X84.621Y-100.78
T7
X65.Y-109.5
X145.Y-109.5
T1
X96.419Y-136.G85X96.419Y-136.
G05
X100.369Y-136.G85X100.669Y-136.
G05
T0
M30
