G04 #@! TF.FileFunction,Legend,Bot*
%FSLAX46Y46*%
G04 Gerber Fmt 4.6, Leading zero omitted, Abs format (unit mm)*
G04 Created by KiCad (PCBNEW 4.0.6) date 01/16/18 14:36:03*
%MOMM*%
%LPD*%
G01*
G04 APERTURE LIST*
%ADD10C,0.100000*%
%ADD11C,0.150000*%
%ADD12C,0.120000*%
G04 APERTURE END LIST*
D10*
D11*
X101120000Y-125945000D02*
X101120000Y-136105000D01*
X99850000Y-125945000D02*
X101120000Y-125945000D01*
X99850000Y-125945000D02*
X99850000Y-136105000D01*
X99850000Y-136105000D02*
X101120000Y-136105000D01*
X115344000Y-131025000D02*
G75*
G03X115344000Y-131025000I-7620000J0D01*
G01*
X142225000Y-115625000D02*
X142325000Y-115625000D01*
X141325000Y-115625000D02*
X141125000Y-115625000D01*
X141325000Y-116225000D02*
X142225000Y-115625000D01*
X141325000Y-115025000D02*
X141325000Y-116225000D01*
X142225000Y-115625000D02*
X141325000Y-115025000D01*
X142225000Y-115025000D02*
X142225000Y-116225000D01*
X144125000Y-114525000D02*
X139325000Y-114525000D01*
X144125000Y-116725000D02*
X144125000Y-114525000D01*
X143625000Y-116725000D02*
X144125000Y-116725000D01*
X139325000Y-116725000D02*
X139825000Y-116725000D01*
X139325000Y-114525000D02*
X139325000Y-116725000D01*
X139825000Y-116725000D02*
X143625000Y-116725000D01*
D12*
X94600000Y-132750000D02*
X94600000Y-131750000D01*
X96300000Y-131750000D02*
X96300000Y-132750000D01*
D11*
X142225000Y-121925000D02*
X142325000Y-121925000D01*
X141325000Y-121925000D02*
X141125000Y-121925000D01*
X141325000Y-122525000D02*
X142225000Y-121925000D01*
X141325000Y-121325000D02*
X141325000Y-122525000D01*
X142225000Y-121925000D02*
X141325000Y-121325000D01*
X142225000Y-121325000D02*
X142225000Y-122525000D01*
X144125000Y-120825000D02*
X139325000Y-120825000D01*
X144125000Y-123025000D02*
X144125000Y-120825000D01*
X143625000Y-123025000D02*
X144125000Y-123025000D01*
X139325000Y-123025000D02*
X139825000Y-123025000D01*
X139325000Y-120825000D02*
X139325000Y-123025000D01*
X139825000Y-123025000D02*
X143625000Y-123025000D01*
X142225000Y-118775000D02*
X142325000Y-118775000D01*
X141325000Y-118775000D02*
X141125000Y-118775000D01*
X141325000Y-119375000D02*
X142225000Y-118775000D01*
X141325000Y-118175000D02*
X141325000Y-119375000D01*
X142225000Y-118775000D02*
X141325000Y-118175000D01*
X142225000Y-118175000D02*
X142225000Y-119375000D01*
X144125000Y-117675000D02*
X139325000Y-117675000D01*
X144125000Y-119875000D02*
X144125000Y-117675000D01*
X143625000Y-119875000D02*
X144125000Y-119875000D01*
X139325000Y-119875000D02*
X139825000Y-119875000D01*
X139325000Y-117675000D02*
X139325000Y-119875000D01*
X139825000Y-119875000D02*
X143625000Y-119875000D01*
D12*
X88800000Y-98150000D02*
X88800000Y-91350000D01*
X84140000Y-98150000D02*
X84140000Y-91350000D01*
X96750000Y-98150000D02*
X96750000Y-91350000D01*
X92090000Y-98150000D02*
X92090000Y-91350000D01*
X104700000Y-98150000D02*
X104700000Y-91350000D01*
X100040000Y-98150000D02*
X100040000Y-91350000D01*
X112650000Y-98150000D02*
X112650000Y-91350000D01*
X107990000Y-98150000D02*
X107990000Y-91350000D01*
X120600000Y-98150000D02*
X120600000Y-91350000D01*
X115940000Y-98150000D02*
X115940000Y-91350000D01*
X128550000Y-98150000D02*
X128550000Y-91350000D01*
X123890000Y-98150000D02*
X123890000Y-91350000D01*
D11*
X107696914Y-129962971D02*
X107554057Y-130010590D01*
X107506438Y-130058210D01*
X107458819Y-130153448D01*
X107458819Y-130296305D01*
X107506438Y-130391543D01*
X107554057Y-130439162D01*
X107649295Y-130486781D01*
X108030248Y-130486781D01*
X108030248Y-129486781D01*
X107696914Y-129486781D01*
X107601676Y-129534400D01*
X107554057Y-129582019D01*
X107506438Y-129677257D01*
X107506438Y-129772495D01*
X107554057Y-129867733D01*
X107601676Y-129915352D01*
X107696914Y-129962971D01*
X108030248Y-129962971D01*
X107173105Y-129486781D02*
X106601676Y-129486781D01*
X106887391Y-130486781D02*
X106887391Y-129486781D01*
X105744533Y-130486781D02*
X106315962Y-130486781D01*
X106030248Y-130486781D02*
X106030248Y-129486781D01*
X106125486Y-129629638D01*
X106220724Y-129724876D01*
X106315962Y-129772495D01*
X94057143Y-132083334D02*
X94104762Y-132035715D01*
X94152381Y-131892858D01*
X94152381Y-131797620D01*
X94104762Y-131654762D01*
X94009524Y-131559524D01*
X93914286Y-131511905D01*
X93723810Y-131464286D01*
X93580952Y-131464286D01*
X93390476Y-131511905D01*
X93295238Y-131559524D01*
X93200000Y-131654762D01*
X93152381Y-131797620D01*
X93152381Y-131892858D01*
X93200000Y-132035715D01*
X93247619Y-132083334D01*
X93485714Y-132940477D02*
X94152381Y-132940477D01*
X93104762Y-132702381D02*
X93819048Y-132464286D01*
X93819048Y-133083334D01*
X90558571Y-94416667D02*
X90558571Y-94083333D01*
X91082381Y-94083333D02*
X90082381Y-94083333D01*
X90082381Y-94559524D01*
X91082381Y-95464286D02*
X91082381Y-94892857D01*
X91082381Y-95178571D02*
X90082381Y-95178571D01*
X90225238Y-95083333D01*
X90320476Y-94988095D01*
X90368095Y-94892857D01*
X98508571Y-94416667D02*
X98508571Y-94083333D01*
X99032381Y-94083333D02*
X98032381Y-94083333D01*
X98032381Y-94559524D01*
X98127619Y-94892857D02*
X98080000Y-94940476D01*
X98032381Y-95035714D01*
X98032381Y-95273810D01*
X98080000Y-95369048D01*
X98127619Y-95416667D01*
X98222857Y-95464286D01*
X98318095Y-95464286D01*
X98460952Y-95416667D01*
X99032381Y-94845238D01*
X99032381Y-95464286D01*
X106458571Y-94416667D02*
X106458571Y-94083333D01*
X106982381Y-94083333D02*
X105982381Y-94083333D01*
X105982381Y-94559524D01*
X105982381Y-94845238D02*
X105982381Y-95464286D01*
X106363333Y-95130952D01*
X106363333Y-95273810D01*
X106410952Y-95369048D01*
X106458571Y-95416667D01*
X106553810Y-95464286D01*
X106791905Y-95464286D01*
X106887143Y-95416667D01*
X106934762Y-95369048D01*
X106982381Y-95273810D01*
X106982381Y-94988095D01*
X106934762Y-94892857D01*
X106887143Y-94845238D01*
X114408571Y-94416667D02*
X114408571Y-94083333D01*
X114932381Y-94083333D02*
X113932381Y-94083333D01*
X113932381Y-94559524D01*
X114265714Y-95369048D02*
X114932381Y-95369048D01*
X113884762Y-95130952D02*
X114599048Y-94892857D01*
X114599048Y-95511905D01*
X122358571Y-94416667D02*
X122358571Y-94083333D01*
X122882381Y-94083333D02*
X121882381Y-94083333D01*
X121882381Y-94559524D01*
X121882381Y-95416667D02*
X121882381Y-94940476D01*
X122358571Y-94892857D01*
X122310952Y-94940476D01*
X122263333Y-95035714D01*
X122263333Y-95273810D01*
X122310952Y-95369048D01*
X122358571Y-95416667D01*
X122453810Y-95464286D01*
X122691905Y-95464286D01*
X122787143Y-95416667D01*
X122834762Y-95369048D01*
X122882381Y-95273810D01*
X122882381Y-95035714D01*
X122834762Y-94940476D01*
X122787143Y-94892857D01*
X130308571Y-94416667D02*
X130308571Y-94083333D01*
X130832381Y-94083333D02*
X129832381Y-94083333D01*
X129832381Y-94559524D01*
X129832381Y-95369048D02*
X129832381Y-95178571D01*
X129880000Y-95083333D01*
X129927619Y-95035714D01*
X130070476Y-94940476D01*
X130260952Y-94892857D01*
X130641905Y-94892857D01*
X130737143Y-94940476D01*
X130784762Y-94988095D01*
X130832381Y-95083333D01*
X130832381Y-95273810D01*
X130784762Y-95369048D01*
X130737143Y-95416667D01*
X130641905Y-95464286D01*
X130403810Y-95464286D01*
X130308571Y-95416667D01*
X130260952Y-95369048D01*
X130213333Y-95273810D01*
X130213333Y-95083333D01*
X130260952Y-94988095D01*
X130308571Y-94940476D01*
X130403810Y-94892857D01*
M02*
