G04 #@! TF.FileFunction,Soldermask,Top*
%FSLAX46Y46*%
G04 Gerber Fmt 4.6, Leading zero omitted, Abs format (unit mm)*
G04 Created by KiCad (PCBNEW 4.0.6) date 01/16/18 14:36:03*
%MOMM*%
%LPD*%
G01*
G04 APERTURE LIST*
%ADD10C,0.100000*%
%ADD11C,2.224000*%
%ADD12C,0.524000*%
%ADD13C,0.724000*%
%ADD14R,1.650000X1.900000*%
%ADD15C,1.924000*%
%ADD16C,4.400000*%
%ADD17R,1.900000X1.650000*%
%ADD18R,2.900000X4.900000*%
%ADD19R,2.000000X2.400000*%
%ADD20R,2.400000X2.000000*%
%ADD21R,2.000000X3.900000*%
%ADD22R,2.700000X3.900000*%
%ADD23R,1.700000X1.900000*%
%ADD24R,3.900000X2.700000*%
%ADD25R,2.900000X2.200000*%
%ADD26R,2.624000X2.100000*%
%ADD27O,2.624000X2.100000*%
%ADD28R,2.924000X2.224000*%
%ADD29O,2.924000X2.224000*%
%ADD30R,0.800000X1.750000*%
%ADD31O,1.650000X1.350000*%
%ADD32R,3.400000X1.400000*%
%ADD33R,2.224000X2.924000*%
%ADD34O,2.224000X2.924000*%
%ADD35R,1.900000X1.700000*%
%ADD36R,3.024000X6.400000*%
%ADD37C,2.899360*%
%ADD38R,1.100000X2.100000*%
%ADD39R,9.800000X11.200000*%
%ADD40R,5.000000X2.000000*%
%ADD41R,1.200100X1.654000*%
%ADD42R,2.400000X2.100000*%
%ADD43R,1.000000X1.950000*%
%ADD44R,4.200000X2.400000*%
%ADD45R,1.900000X2.400000*%
%ADD46R,1.000000X1.900000*%
%ADD47R,0.700000X1.850000*%
%ADD48R,1.850000X0.700000*%
%ADD49R,5.024000X2.400000*%
%ADD50R,1.150000X2.900000*%
%ADD51R,3.400000X2.400000*%
%ADD52O,2.924000X3.924000*%
%ADD53R,2.924000X3.924000*%
%ADD54R,1.924000X1.800000*%
%ADD55O,1.924000X1.800000*%
%ADD56R,2.900000X2.400000*%
%ADD57R,1.800000X1.400000*%
G04 APERTURE END LIST*
D10*
D11*
X84500000Y-100725000D02*
X86250000Y-105600000D01*
D12*
X126900000Y-97475000D02*
X126950000Y-94850000D01*
X124350000Y-94850000D02*
X124325000Y-97575000D01*
X118925000Y-97450000D02*
X118925000Y-94875000D01*
X116400000Y-97450000D02*
X116425000Y-94900000D01*
X110975000Y-97475000D02*
X111000000Y-94900000D01*
X108475000Y-97575000D02*
X108475000Y-94875000D01*
X103100000Y-97275000D02*
X103125000Y-94875000D01*
X100575000Y-94850000D02*
X100550000Y-97550000D01*
X95125000Y-97450000D02*
X95125000Y-94900000D01*
X92625000Y-97400000D02*
X92625000Y-94875000D01*
D13*
X80000000Y-83650000D02*
X77050000Y-86950000D01*
X77050000Y-92950000D02*
X77050000Y-86950000D01*
X78900000Y-94900000D02*
X77050000Y-92950000D01*
X80150000Y-94900000D02*
X78900000Y-94900000D01*
X126900000Y-94900000D02*
X80150000Y-94900000D01*
X128100000Y-92100000D02*
X128150000Y-83750000D01*
X120250000Y-92200000D02*
X120250000Y-83500000D01*
X112250000Y-92050000D02*
X112300000Y-83500000D01*
X104300000Y-92200000D02*
X104300000Y-83800000D01*
X96450000Y-92300000D02*
X96450000Y-89900000D01*
X96550000Y-83550000D02*
X96550000Y-89250000D01*
X88850000Y-81200000D02*
X88900000Y-83850000D01*
X88500000Y-80750000D02*
X88850000Y-81200000D01*
X87300000Y-80150000D02*
X88500000Y-80750000D01*
X74850000Y-80100000D02*
X87300000Y-80150000D01*
X71900000Y-83100000D02*
X74850000Y-80100000D01*
X71900000Y-83850000D02*
X71900000Y-83100000D01*
X71950000Y-88850000D02*
X71900000Y-83850000D01*
X88950000Y-88000000D02*
X89000000Y-83850000D01*
X85500000Y-91400000D02*
X88950000Y-88000000D01*
X81100000Y-91350000D02*
X85500000Y-91400000D01*
D14*
X101700000Y-125300000D03*
X101700000Y-122800000D03*
D15*
X103850000Y-131025000D03*
X111250000Y-131025000D03*
D16*
X145000000Y-109500000D03*
D17*
X122730000Y-138290000D03*
X120230000Y-138290000D03*
X114230000Y-138290000D03*
X116730000Y-138290000D03*
D14*
X110300000Y-135740477D03*
X110300000Y-133240477D03*
X104725000Y-135740477D03*
X104725000Y-133240477D03*
D18*
X72450000Y-102550000D03*
X72450000Y-109550000D03*
D19*
X119130000Y-117950000D03*
X119130000Y-113950000D03*
D14*
X116420000Y-118200000D03*
X116420000Y-115700000D03*
D17*
X105730000Y-114660000D03*
X103230000Y-114660000D03*
D14*
X66000000Y-101600000D03*
X66000000Y-104100000D03*
D17*
X115605000Y-126615000D03*
X118105000Y-126615000D03*
D20*
X78450000Y-137450000D03*
X74450000Y-137450000D03*
D21*
X84600000Y-131800000D03*
X84600000Y-137600000D03*
D14*
X89990000Y-133950000D03*
X89990000Y-136450000D03*
D17*
X66950000Y-114450000D03*
X64450000Y-114450000D03*
D18*
X87800000Y-119150000D03*
X87800000Y-126150000D03*
D14*
X94240000Y-119200000D03*
X94240000Y-121700000D03*
D17*
X118080000Y-128865000D03*
X115580000Y-128865000D03*
D19*
X121750000Y-111650000D03*
X121750000Y-107650000D03*
D14*
X119100000Y-110900000D03*
X119100000Y-108400000D03*
X131000000Y-96420000D03*
X131000000Y-93920000D03*
D22*
X63000000Y-97700000D03*
X63000000Y-92300000D03*
D23*
X71050000Y-136300000D03*
X71050000Y-133600000D03*
D24*
X73500000Y-123700000D03*
X78900000Y-123700000D03*
D25*
X92500000Y-88750000D03*
X96500000Y-88750000D03*
D22*
X80210000Y-104540000D03*
X80210000Y-109940000D03*
D25*
X100550000Y-88750000D03*
X104550000Y-88750000D03*
X108550000Y-88750000D03*
X112550000Y-88750000D03*
X116600000Y-88750000D03*
X120600000Y-88750000D03*
X124550000Y-88750000D03*
X128550000Y-88750000D03*
D26*
X98050000Y-125390000D03*
D27*
X98050000Y-122850000D03*
X98050000Y-120310000D03*
X98050000Y-117770000D03*
D28*
X149400000Y-113320000D03*
D29*
X149400000Y-115860000D03*
X149400000Y-118400000D03*
X149400000Y-120940000D03*
X149400000Y-123480000D03*
X149400000Y-126020000D03*
D30*
X97185860Y-134920060D03*
X97835860Y-134920060D03*
X98485860Y-134920060D03*
X99135860Y-134920060D03*
X99785860Y-134920060D03*
D31*
X96419200Y-136000000D03*
X100519200Y-136000000D03*
D32*
X95200000Y-138100000D03*
X101719200Y-138100000D03*
D28*
X149150000Y-92760000D03*
D29*
X149150000Y-95300000D03*
X149150000Y-97840000D03*
X149150000Y-100380000D03*
D33*
X129495000Y-138000000D03*
D34*
X132035000Y-138000000D03*
X134575000Y-138000000D03*
X137115000Y-138000000D03*
D35*
X123405000Y-126615000D03*
X120705000Y-126615000D03*
D36*
X73900000Y-116550000D03*
X78300000Y-116550000D03*
D37*
X81199468Y-91380353D03*
X84620532Y-100779647D03*
D38*
X92595000Y-97500000D03*
X93865000Y-97500000D03*
X95135000Y-97500000D03*
X96405000Y-97500000D03*
X96405000Y-92100000D03*
X95135000Y-92100000D03*
X93865000Y-92100000D03*
X92595000Y-92100000D03*
D39*
X89470000Y-109850000D03*
D40*
X98630000Y-107310000D03*
X98630000Y-112390000D03*
D38*
X100532500Y-97500000D03*
X101802500Y-97500000D03*
X103072500Y-97500000D03*
X104342500Y-97500000D03*
X104342500Y-92100000D03*
X103072500Y-92100000D03*
X101802500Y-92100000D03*
X100532500Y-92100000D03*
X108470000Y-97500000D03*
X109740000Y-97500000D03*
X111010000Y-97500000D03*
X112280000Y-97500000D03*
X112280000Y-92100000D03*
X111010000Y-92100000D03*
X109740000Y-92100000D03*
X108470000Y-92100000D03*
X116407500Y-97500000D03*
X117677500Y-97500000D03*
X118947500Y-97500000D03*
X120217500Y-97500000D03*
X120217500Y-92100000D03*
X118947500Y-92100000D03*
X117677500Y-92100000D03*
X116407500Y-92100000D03*
X124345000Y-97500000D03*
X125615000Y-97500000D03*
X126885000Y-97500000D03*
X128155000Y-97500000D03*
X128155000Y-92100000D03*
X126885000Y-92100000D03*
X125615000Y-92100000D03*
X124345000Y-92100000D03*
D41*
X135800000Y-102600760D03*
X137700000Y-102600760D03*
X136750000Y-100600000D03*
D35*
X124950000Y-124300000D03*
X127650000Y-124300000D03*
X124950000Y-121880000D03*
X127650000Y-121880000D03*
X124950000Y-119460000D03*
X127650000Y-119460000D03*
X124950000Y-117040000D03*
X127650000Y-117040000D03*
X124950000Y-114620000D03*
X127650000Y-114620000D03*
X124950000Y-112200000D03*
X127650000Y-112200000D03*
D23*
X101800000Y-131550000D03*
X101800000Y-128850000D03*
X99225000Y-131550000D03*
X99225000Y-128850000D03*
X96650000Y-131550000D03*
X96650000Y-128850000D03*
D35*
X123380000Y-128865000D03*
X120680000Y-128865000D03*
D42*
X65050000Y-127500000D03*
X69050000Y-127500000D03*
D35*
X71050000Y-130400000D03*
X68350000Y-130400000D03*
D23*
X62600000Y-124300000D03*
X62600000Y-121600000D03*
X62600000Y-119250000D03*
X62600000Y-116550000D03*
D35*
X93050000Y-102500000D03*
X95750000Y-102500000D03*
D23*
X105250000Y-110300000D03*
X105250000Y-107600000D03*
D35*
X93050000Y-100075000D03*
X95750000Y-100075000D03*
D23*
X102850000Y-110350000D03*
X102850000Y-107650000D03*
D35*
X101037500Y-102550000D03*
X103737500Y-102550000D03*
X101037500Y-100125000D03*
X103737500Y-100125000D03*
X143050000Y-115600000D03*
X145750000Y-115600000D03*
X143050000Y-118787500D03*
X145750000Y-118787500D03*
X143050000Y-121975000D03*
X145750000Y-121975000D03*
X109025000Y-102550000D03*
X111725000Y-102550000D03*
X140675000Y-121945000D03*
X137975000Y-121945000D03*
X140675000Y-118772500D03*
X137975000Y-118772500D03*
X140675000Y-115600000D03*
X137975000Y-115600000D03*
X109025000Y-100125000D03*
X111725000Y-100125000D03*
X117012500Y-102550000D03*
X119712500Y-102550000D03*
X117012500Y-100125000D03*
X119712500Y-100125000D03*
X142900000Y-103900000D03*
X145600000Y-103900000D03*
X142900000Y-101500000D03*
X145600000Y-101500000D03*
D23*
X133470000Y-93754523D03*
X133470000Y-96454523D03*
X140100000Y-102800000D03*
X140100000Y-100100000D03*
D35*
X144650000Y-89450000D03*
X141950000Y-89450000D03*
X142900000Y-99100000D03*
X145600000Y-99100000D03*
D23*
X133420000Y-102800000D03*
X133420000Y-100100000D03*
D35*
X142900000Y-96700000D03*
X145600000Y-96700000D03*
D23*
X131000000Y-102800000D03*
X131000000Y-100100000D03*
D35*
X139650000Y-89450000D03*
X136950000Y-89450000D03*
X125000000Y-102550000D03*
X127700000Y-102550000D03*
X142900000Y-91900000D03*
X145600000Y-91900000D03*
X142900000Y-94300000D03*
X145600000Y-94300000D03*
X125000000Y-100125000D03*
X127700000Y-100125000D03*
X138500000Y-104750000D03*
X135800000Y-104750000D03*
X134650000Y-89450000D03*
X131950000Y-89450000D03*
D23*
X134775000Y-132150000D03*
X134775000Y-134850000D03*
X132100000Y-132150000D03*
X132100000Y-134850000D03*
D43*
X69055000Y-118250000D03*
X67785000Y-118250000D03*
X66515000Y-118250000D03*
X65245000Y-118250000D03*
X65245000Y-123650000D03*
X66515000Y-123650000D03*
X67785000Y-123650000D03*
X69055000Y-123650000D03*
D44*
X76500000Y-127950000D03*
D45*
X76500000Y-134250000D03*
X78800000Y-134250000D03*
X74200000Y-134250000D03*
D46*
X107855000Y-112100000D03*
X109125000Y-112100000D03*
X110395000Y-112100000D03*
X111665000Y-112100000D03*
X112935000Y-112100000D03*
X114205000Y-112100000D03*
X115475000Y-112100000D03*
X116745000Y-112100000D03*
X116745000Y-106700000D03*
X115475000Y-106700000D03*
X114205000Y-106700000D03*
X112935000Y-106700000D03*
X111665000Y-106700000D03*
X110395000Y-106700000D03*
X109125000Y-106700000D03*
X107855000Y-106700000D03*
D47*
X106300000Y-125500000D03*
X106800000Y-125500000D03*
X107300000Y-125500000D03*
X107800000Y-125500000D03*
X108300000Y-125500000D03*
X108800000Y-125500000D03*
X109300000Y-125500000D03*
X109800000Y-125500000D03*
X110300000Y-125500000D03*
X110800000Y-125500000D03*
X111300000Y-125500000D03*
X111800000Y-125500000D03*
D48*
X113400000Y-123900000D03*
X113400000Y-123400000D03*
X113400000Y-122900000D03*
X113400000Y-122400000D03*
X113400000Y-121900000D03*
X113400000Y-121400000D03*
X113400000Y-120900000D03*
X113400000Y-120400000D03*
X113400000Y-119900000D03*
X113400000Y-119400000D03*
X113400000Y-118900000D03*
X113400000Y-118400000D03*
D47*
X111800000Y-116800000D03*
X111300000Y-116800000D03*
X110800000Y-116800000D03*
X110300000Y-116800000D03*
X109800000Y-116800000D03*
X109300000Y-116800000D03*
X108800000Y-116800000D03*
X108300000Y-116800000D03*
X107800000Y-116800000D03*
X107300000Y-116800000D03*
X106800000Y-116800000D03*
X106300000Y-116800000D03*
D48*
X104700000Y-118400000D03*
X104700000Y-118900000D03*
X104700000Y-119400000D03*
X104700000Y-119900000D03*
X104700000Y-120400000D03*
X104700000Y-120900000D03*
X104700000Y-121400000D03*
X104700000Y-121900000D03*
X104700000Y-122400000D03*
X104700000Y-122900000D03*
X104700000Y-123400000D03*
X104700000Y-123900000D03*
D38*
X135795000Y-97500000D03*
X137065000Y-97500000D03*
X138335000Y-97500000D03*
X139605000Y-97500000D03*
X139605000Y-92100000D03*
X138335000Y-92100000D03*
X137065000Y-92100000D03*
X135795000Y-92100000D03*
D49*
X114300000Y-134375000D03*
X122800000Y-134375000D03*
D50*
X108300000Y-128900000D03*
X106800000Y-128900000D03*
D51*
X107550000Y-138100000D03*
D52*
X108080000Y-83700000D03*
X104270000Y-83700000D03*
X100460000Y-83700000D03*
X96650000Y-83700000D03*
X92840000Y-83700000D03*
D53*
X89030000Y-83700000D03*
D52*
X111890000Y-83700000D03*
X115700000Y-83700000D03*
X83800000Y-83700000D03*
D53*
X79990000Y-83700000D03*
D52*
X132500000Y-83700000D03*
X128690000Y-83700000D03*
X124880000Y-83700000D03*
D53*
X121070000Y-83700000D03*
D16*
X65000000Y-109500000D03*
D14*
X129150000Y-134650000D03*
X129150000Y-132150000D03*
X129150000Y-129550000D03*
X129150000Y-127050000D03*
D19*
X126500000Y-130750000D03*
X126500000Y-126750000D03*
D54*
X133600000Y-126200000D03*
D55*
X131600000Y-126200000D03*
X133600000Y-124200000D03*
X131600000Y-124200000D03*
X133600000Y-122200000D03*
X131600000Y-122200000D03*
X133600000Y-120200000D03*
X131600000Y-120200000D03*
X133600000Y-118200000D03*
X131600000Y-118200000D03*
X133600000Y-116200000D03*
X131600000Y-116200000D03*
X133600000Y-114200000D03*
X131600000Y-114200000D03*
X133600000Y-112200000D03*
X131600000Y-112200000D03*
X133600000Y-110200000D03*
X131600000Y-110200000D03*
X133600000Y-108200000D03*
X131600000Y-108200000D03*
D23*
X101650000Y-120010000D03*
X101650000Y-117310000D03*
D35*
X139950000Y-110750000D03*
X137250000Y-110750000D03*
X139950000Y-108050000D03*
X137250000Y-108050000D03*
D56*
X137650000Y-126175000D03*
X137650000Y-130175000D03*
D18*
X72030000Y-89120000D03*
X72030000Y-96120000D03*
D57*
X94150000Y-128550000D03*
X94150000Y-131850000D03*
D14*
X140950000Y-126825000D03*
X140950000Y-129325000D03*
M02*
