G04 #@! TF.FileFunction,Legend,Top*
%FSLAX46Y46*%
G04 Gerber Fmt 4.6, Leading zero omitted, Abs format (unit mm)*
G04 Created by KiCad (PCBNEW 4.0.6) date 01/16/18 14:36:03*
%MOMM*%
%LPD*%
G01*
G04 APERTURE LIST*
%ADD10C,0.100000*%
%ADD11C,0.120000*%
%ADD12C,0.150000*%
G04 APERTURE END LIST*
D10*
D11*
X100850000Y-123550000D02*
X100850000Y-124550000D01*
X102550000Y-124550000D02*
X102550000Y-123550000D01*
X120980000Y-139140000D02*
X121980000Y-139140000D01*
X121980000Y-137440000D02*
X120980000Y-137440000D01*
X115980000Y-137440000D02*
X114980000Y-137440000D01*
X114980000Y-139140000D02*
X115980000Y-139140000D01*
X109450000Y-133990477D02*
X109450000Y-134990477D01*
X111150000Y-134990477D02*
X111150000Y-133990477D01*
X103875000Y-133990477D02*
X103875000Y-134990477D01*
X105575000Y-134990477D02*
X105575000Y-133990477D01*
X69020000Y-101860000D02*
X70940000Y-101860000D01*
X75880000Y-101860000D02*
X73960000Y-101860000D01*
X68260000Y-110240000D02*
X70940000Y-110240000D01*
X76640000Y-110240000D02*
X73960000Y-110240000D01*
X68260000Y-110240000D02*
X68260000Y-102620000D01*
X68260000Y-102620000D02*
X69020000Y-101860000D01*
X75880000Y-101860000D02*
X76640000Y-102620000D01*
X76640000Y-102620000D02*
X76640000Y-110240000D01*
X118110000Y-114950000D02*
X118110000Y-116950000D01*
X120150000Y-116950000D02*
X120150000Y-114950000D01*
X115570000Y-116450000D02*
X115570000Y-117450000D01*
X117270000Y-117450000D02*
X117270000Y-116450000D01*
X103980000Y-115510000D02*
X104980000Y-115510000D01*
X104980000Y-113810000D02*
X103980000Y-113810000D01*
X66850000Y-103350000D02*
X66850000Y-102350000D01*
X65150000Y-102350000D02*
X65150000Y-103350000D01*
X117355000Y-125765000D02*
X116355000Y-125765000D01*
X116355000Y-127465000D02*
X117355000Y-127465000D01*
X75450000Y-138470000D02*
X77450000Y-138470000D01*
X77450000Y-136430000D02*
X75450000Y-136430000D01*
X82060000Y-131400000D02*
X83480000Y-131400000D01*
X81300000Y-138000000D02*
X83480000Y-138000000D01*
X87900000Y-138000000D02*
X85720000Y-138000000D01*
X87140000Y-131400000D02*
X85720000Y-131400000D01*
X81300000Y-138000000D02*
X81300000Y-132160000D01*
X81300000Y-132160000D02*
X82060000Y-131400000D01*
X87140000Y-131400000D02*
X87900000Y-132160000D01*
X87900000Y-132160000D02*
X87900000Y-138000000D01*
X90840000Y-135700000D02*
X90840000Y-134700000D01*
X89140000Y-134700000D02*
X89140000Y-135700000D01*
X65200000Y-115300000D02*
X66200000Y-115300000D01*
X66200000Y-113600000D02*
X65200000Y-113600000D01*
X84370000Y-118460000D02*
X86290000Y-118460000D01*
X91230000Y-118460000D02*
X89310000Y-118460000D01*
X83610000Y-126840000D02*
X86290000Y-126840000D01*
X91990000Y-126840000D02*
X89310000Y-126840000D01*
X83610000Y-126840000D02*
X83610000Y-119220000D01*
X83610000Y-119220000D02*
X84370000Y-118460000D01*
X91230000Y-118460000D02*
X91990000Y-119220000D01*
X91990000Y-119220000D02*
X91990000Y-126840000D01*
X95090000Y-120950000D02*
X95090000Y-119950000D01*
X93390000Y-119950000D02*
X93390000Y-120950000D01*
X116330000Y-129715000D02*
X117330000Y-129715000D01*
X117330000Y-128015000D02*
X116330000Y-128015000D01*
X120730000Y-108650000D02*
X120730000Y-110650000D01*
X122770000Y-110650000D02*
X122770000Y-108650000D01*
X118250000Y-109150000D02*
X118250000Y-110150000D01*
X119950000Y-110150000D02*
X119950000Y-109150000D01*
X130150000Y-94670000D02*
X130150000Y-95670000D01*
X131850000Y-95670000D02*
X131850000Y-94670000D01*
X60850000Y-99600000D02*
X65150000Y-99600000D01*
X65150000Y-99600000D02*
X65150000Y-92300000D01*
X60850000Y-99600000D02*
X60850000Y-92300000D01*
X71800000Y-133950000D02*
X71800000Y-137150000D01*
X70300000Y-137150000D02*
X70300000Y-133950000D01*
X70300000Y-137150000D02*
X71800000Y-137150000D01*
X71600000Y-121550000D02*
X71600000Y-125850000D01*
X71600000Y-125850000D02*
X78900000Y-125850000D01*
X71600000Y-121550000D02*
X78900000Y-121550000D01*
X91100000Y-87100000D02*
X91100000Y-90400000D01*
X91100000Y-90400000D02*
X96500000Y-90400000D01*
X91100000Y-87100000D02*
X96500000Y-87100000D01*
X82360000Y-102640000D02*
X78060000Y-102640000D01*
X78060000Y-102640000D02*
X78060000Y-109940000D01*
X82360000Y-102640000D02*
X82360000Y-109940000D01*
X99150000Y-87100000D02*
X99150000Y-90400000D01*
X99150000Y-90400000D02*
X104550000Y-90400000D01*
X99150000Y-87100000D02*
X104550000Y-87100000D01*
X107150000Y-87100000D02*
X107150000Y-90400000D01*
X107150000Y-90400000D02*
X112550000Y-90400000D01*
X107150000Y-87100000D02*
X112550000Y-87100000D01*
X115200000Y-87100000D02*
X115200000Y-90400000D01*
X115200000Y-90400000D02*
X120600000Y-90400000D01*
X115200000Y-87100000D02*
X120600000Y-87100000D01*
X123150000Y-87100000D02*
X123150000Y-90400000D01*
X123150000Y-90400000D02*
X128550000Y-90400000D01*
X123150000Y-87100000D02*
X128550000Y-87100000D01*
X99380000Y-116440000D02*
X96720000Y-116440000D01*
X99380000Y-124120000D02*
X99380000Y-116440000D01*
X96720000Y-124120000D02*
X96720000Y-116440000D01*
X99380000Y-124120000D02*
X96720000Y-124120000D01*
X99380000Y-125390000D02*
X99380000Y-126720000D01*
X99380000Y-126720000D02*
X98050000Y-126720000D01*
X148000000Y-114590000D02*
X148000000Y-127620000D01*
X148000000Y-127620000D02*
X150800000Y-127620000D01*
X150800000Y-127620000D02*
X150800000Y-114590000D01*
X150800000Y-114590000D02*
X148000000Y-114590000D01*
X148000000Y-113320000D02*
X148000000Y-111990000D01*
X148000000Y-111990000D02*
X149400000Y-111990000D01*
D12*
X93523599Y-139817460D02*
X103226493Y-139817460D01*
X93561700Y-133412460D02*
X102083900Y-133412460D01*
X103251800Y-133412460D02*
X103251800Y-139817460D01*
X103251800Y-133412460D02*
X94551800Y-133412460D01*
X93536300Y-139822751D02*
X93536300Y-133498100D01*
D11*
X147750000Y-94030000D02*
X147750000Y-101710000D01*
X147750000Y-101710000D02*
X150550000Y-101710000D01*
X150550000Y-101710000D02*
X150550000Y-94030000D01*
X150550000Y-94030000D02*
X147750000Y-94030000D01*
X147750000Y-92760000D02*
X147750000Y-91430000D01*
X147750000Y-91430000D02*
X149150000Y-91430000D01*
X130765000Y-139400000D02*
X138445000Y-139400000D01*
X138445000Y-139400000D02*
X138445000Y-136600000D01*
X138445000Y-136600000D02*
X130765000Y-136600000D01*
X130765000Y-136600000D02*
X130765000Y-139400000D01*
X129495000Y-139400000D02*
X128165000Y-139400000D01*
X128165000Y-139400000D02*
X128165000Y-138000000D01*
X121455000Y-125735000D02*
X122655000Y-125735000D01*
X122655000Y-127495000D02*
X121455000Y-127495000D01*
D12*
X72200000Y-113050000D02*
X80100000Y-113050000D01*
X72200000Y-120050000D02*
X80100000Y-120050000D01*
X86833332Y-100717582D02*
X86397009Y-100981808D01*
X83389617Y-102076409D02*
X82535259Y-102068415D01*
X82535259Y-102068415D02*
X81074306Y-101856830D01*
X81074306Y-101856830D02*
X79920973Y-101317040D01*
X79920973Y-101317040D02*
X78759083Y-100464111D01*
X78759083Y-100464111D02*
X77741579Y-99131555D01*
X77741579Y-99131555D02*
X77101193Y-97661740D01*
X77101193Y-97661740D02*
X76887705Y-95612173D01*
X76887705Y-95612173D02*
X77491439Y-93475996D01*
X77491439Y-93475996D02*
X78680567Y-91767368D01*
X78680567Y-91767368D02*
X79422991Y-91178192D01*
X82523469Y-90049710D02*
X83822706Y-90106617D01*
X83822706Y-90106617D02*
X85129849Y-90482305D01*
X85129849Y-90482305D02*
X86446416Y-91173517D01*
X86446416Y-91173517D02*
X87616212Y-92345226D01*
X87616212Y-92345226D02*
X88581548Y-94121143D01*
X88581548Y-94121143D02*
X88949714Y-96008994D01*
X88949714Y-96008994D02*
X88618200Y-97727135D01*
X88618200Y-97727135D02*
X87781733Y-99520943D01*
X87781733Y-99520943D02*
X86833332Y-100717582D01*
X91925000Y-96875000D02*
X91975000Y-96875000D01*
X91925000Y-92725000D02*
X92070000Y-92725000D01*
X97075000Y-92725000D02*
X96930000Y-92725000D01*
X97075000Y-96875000D02*
X96930000Y-96875000D01*
X91925000Y-96875000D02*
X91925000Y-92725000D01*
X97075000Y-96875000D02*
X97075000Y-92725000D01*
X91975000Y-96875000D02*
X91975000Y-98275000D01*
D11*
X96200000Y-106400000D02*
X96200000Y-104750000D01*
X96200000Y-104750000D02*
X94400000Y-104750000D01*
X94400000Y-114950000D02*
X96200000Y-114950000D01*
X96200000Y-114950000D02*
X96200000Y-113300000D01*
D12*
X99862500Y-96875000D02*
X99912500Y-96875000D01*
X99862500Y-92725000D02*
X100007500Y-92725000D01*
X105012500Y-92725000D02*
X104867500Y-92725000D01*
X105012500Y-96875000D02*
X104867500Y-96875000D01*
X99862500Y-96875000D02*
X99862500Y-92725000D01*
X105012500Y-96875000D02*
X105012500Y-92725000D01*
X99912500Y-96875000D02*
X99912500Y-98275000D01*
X107800000Y-96875000D02*
X107850000Y-96875000D01*
X107800000Y-92725000D02*
X107945000Y-92725000D01*
X112950000Y-92725000D02*
X112805000Y-92725000D01*
X112950000Y-96875000D02*
X112805000Y-96875000D01*
X107800000Y-96875000D02*
X107800000Y-92725000D01*
X112950000Y-96875000D02*
X112950000Y-92725000D01*
X107850000Y-96875000D02*
X107850000Y-98275000D01*
X115737500Y-96875000D02*
X115787500Y-96875000D01*
X115737500Y-92725000D02*
X115882500Y-92725000D01*
X120887500Y-92725000D02*
X120742500Y-92725000D01*
X120887500Y-96875000D02*
X120742500Y-96875000D01*
X115737500Y-96875000D02*
X115737500Y-92725000D01*
X120887500Y-96875000D02*
X120887500Y-92725000D01*
X115787500Y-96875000D02*
X115787500Y-98275000D01*
X123675000Y-96875000D02*
X123725000Y-96875000D01*
X123675000Y-92725000D02*
X123820000Y-92725000D01*
X128825000Y-92725000D02*
X128680000Y-92725000D01*
X128825000Y-96875000D02*
X128680000Y-96875000D01*
X123675000Y-96875000D02*
X123675000Y-92725000D01*
X128825000Y-96875000D02*
X128825000Y-92725000D01*
X123725000Y-96875000D02*
X123725000Y-98275000D01*
X138049160Y-100949760D02*
X138000900Y-100949760D01*
X135250180Y-101650800D02*
X135250180Y-100949760D01*
X135250180Y-100949760D02*
X135499100Y-100949760D01*
X138049160Y-100949760D02*
X138249820Y-100949760D01*
X138249820Y-100949760D02*
X138249820Y-101650800D01*
D11*
X126900000Y-125180000D02*
X125700000Y-125180000D01*
X125700000Y-123420000D02*
X126900000Y-123420000D01*
X126900000Y-122760000D02*
X125700000Y-122760000D01*
X125700000Y-121000000D02*
X126900000Y-121000000D01*
X126900000Y-120340000D02*
X125700000Y-120340000D01*
X125700000Y-118580000D02*
X126900000Y-118580000D01*
X126900000Y-117920000D02*
X125700000Y-117920000D01*
X125700000Y-116160000D02*
X126900000Y-116160000D01*
X126900000Y-115500000D02*
X125700000Y-115500000D01*
X125700000Y-113740000D02*
X126900000Y-113740000D01*
X126900000Y-113080000D02*
X125700000Y-113080000D01*
X125700000Y-111320000D02*
X126900000Y-111320000D01*
X102680000Y-129600000D02*
X102680000Y-130800000D01*
X100920000Y-130800000D02*
X100920000Y-129600000D01*
X100105000Y-129600000D02*
X100105000Y-130800000D01*
X98345000Y-130800000D02*
X98345000Y-129600000D01*
X97530000Y-129600000D02*
X97530000Y-130800000D01*
X95770000Y-130800000D02*
X95770000Y-129600000D01*
X121430000Y-127985000D02*
X122630000Y-127985000D01*
X122630000Y-129745000D02*
X121430000Y-129745000D01*
X68050000Y-128570000D02*
X66050000Y-128570000D01*
X66050000Y-126430000D02*
X68050000Y-126430000D01*
X69100000Y-129520000D02*
X70300000Y-129520000D01*
X70300000Y-131280000D02*
X69100000Y-131280000D01*
X63480000Y-122350000D02*
X63480000Y-123550000D01*
X61720000Y-123550000D02*
X61720000Y-122350000D01*
X63480000Y-117300000D02*
X63480000Y-118500000D01*
X61720000Y-118500000D02*
X61720000Y-117300000D01*
X95000000Y-103380000D02*
X93800000Y-103380000D01*
X93800000Y-101620000D02*
X95000000Y-101620000D01*
X106130000Y-108350000D02*
X106130000Y-109550000D01*
X104370000Y-109550000D02*
X104370000Y-108350000D01*
X95000000Y-100955000D02*
X93800000Y-100955000D01*
X93800000Y-99195000D02*
X95000000Y-99195000D01*
X103730000Y-108400000D02*
X103730000Y-109600000D01*
X101970000Y-109600000D02*
X101970000Y-108400000D01*
X102987500Y-103430000D02*
X101787500Y-103430000D01*
X101787500Y-101670000D02*
X102987500Y-101670000D01*
X102987500Y-101005000D02*
X101787500Y-101005000D01*
X101787500Y-99245000D02*
X102987500Y-99245000D01*
X145000000Y-116480000D02*
X143800000Y-116480000D01*
X143800000Y-114720000D02*
X145000000Y-114720000D01*
X145000000Y-119667500D02*
X143800000Y-119667500D01*
X143800000Y-117907500D02*
X145000000Y-117907500D01*
X145000000Y-122855000D02*
X143800000Y-122855000D01*
X143800000Y-121095000D02*
X145000000Y-121095000D01*
X110975000Y-103430000D02*
X109775000Y-103430000D01*
X109775000Y-101670000D02*
X110975000Y-101670000D01*
X138725000Y-121065000D02*
X139925000Y-121065000D01*
X139925000Y-122825000D02*
X138725000Y-122825000D01*
X138725000Y-117892500D02*
X139925000Y-117892500D01*
X139925000Y-119652500D02*
X138725000Y-119652500D01*
X138725000Y-114720000D02*
X139925000Y-114720000D01*
X139925000Y-116480000D02*
X138725000Y-116480000D01*
X110975000Y-101005000D02*
X109775000Y-101005000D01*
X109775000Y-99245000D02*
X110975000Y-99245000D01*
X118962500Y-103430000D02*
X117762500Y-103430000D01*
X117762500Y-101670000D02*
X118962500Y-101670000D01*
X118962500Y-101005000D02*
X117762500Y-101005000D01*
X117762500Y-99245000D02*
X118962500Y-99245000D01*
X144850000Y-104780000D02*
X143650000Y-104780000D01*
X143650000Y-103020000D02*
X144850000Y-103020000D01*
X144850000Y-102380000D02*
X143650000Y-102380000D01*
X143650000Y-100620000D02*
X144850000Y-100620000D01*
X132590000Y-95704523D02*
X132590000Y-94504523D01*
X134350000Y-94504523D02*
X134350000Y-95704523D01*
X140980000Y-100850000D02*
X140980000Y-102050000D01*
X139220000Y-102050000D02*
X139220000Y-100850000D01*
X142700000Y-88570000D02*
X143900000Y-88570000D01*
X143900000Y-90330000D02*
X142700000Y-90330000D01*
X144850000Y-99980000D02*
X143650000Y-99980000D01*
X143650000Y-98220000D02*
X144850000Y-98220000D01*
X134300000Y-100850000D02*
X134300000Y-102050000D01*
X132540000Y-102050000D02*
X132540000Y-100850000D01*
X144850000Y-97580000D02*
X143650000Y-97580000D01*
X143650000Y-95820000D02*
X144850000Y-95820000D01*
X131880000Y-100850000D02*
X131880000Y-102050000D01*
X130120000Y-102050000D02*
X130120000Y-100850000D01*
X137700000Y-88570000D02*
X138900000Y-88570000D01*
X138900000Y-90330000D02*
X137700000Y-90330000D01*
X126950000Y-103430000D02*
X125750000Y-103430000D01*
X125750000Y-101670000D02*
X126950000Y-101670000D01*
X144850000Y-92780000D02*
X143650000Y-92780000D01*
X143650000Y-91020000D02*
X144850000Y-91020000D01*
X144850000Y-95180000D02*
X143650000Y-95180000D01*
X143650000Y-93420000D02*
X144850000Y-93420000D01*
X126950000Y-101005000D02*
X125750000Y-101005000D01*
X125750000Y-99245000D02*
X126950000Y-99245000D01*
X136550000Y-103870000D02*
X137750000Y-103870000D01*
X137750000Y-105630000D02*
X136550000Y-105630000D01*
X132700000Y-88570000D02*
X133900000Y-88570000D01*
X133900000Y-90330000D02*
X132700000Y-90330000D01*
X133895000Y-134100000D02*
X133895000Y-132900000D01*
X135655000Y-132900000D02*
X135655000Y-134100000D01*
X131220000Y-134100000D02*
X131220000Y-132900000D01*
X132980000Y-132900000D02*
X132980000Y-134100000D01*
D12*
X69725000Y-118875000D02*
X69675000Y-118875000D01*
X69725000Y-123025000D02*
X69580000Y-123025000D01*
X64575000Y-123025000D02*
X64720000Y-123025000D01*
X64575000Y-118875000D02*
X64720000Y-118875000D01*
X69725000Y-118875000D02*
X69725000Y-123025000D01*
X64575000Y-118875000D02*
X64575000Y-123025000D01*
X69675000Y-118875000D02*
X69675000Y-117475000D01*
D11*
X79910000Y-129190000D02*
X78650000Y-129190000D01*
X73090000Y-129190000D02*
X74350000Y-129190000D01*
X79910000Y-132950000D02*
X79910000Y-129190000D01*
X73090000Y-135200000D02*
X73090000Y-129190000D01*
D12*
X107225000Y-111475000D02*
X107250000Y-111475000D01*
X107225000Y-107325000D02*
X107330000Y-107325000D01*
X117375000Y-107325000D02*
X117270000Y-107325000D01*
X117375000Y-111475000D02*
X117270000Y-111475000D01*
X107225000Y-111475000D02*
X107225000Y-107325000D01*
X117375000Y-111475000D02*
X117375000Y-107325000D01*
X107250000Y-111475000D02*
X107250000Y-112850000D01*
X105425000Y-124775000D02*
X105875000Y-124775000D01*
X105425000Y-117525000D02*
X105950000Y-117525000D01*
X112675000Y-117525000D02*
X112150000Y-117525000D01*
X112675000Y-124775000D02*
X112150000Y-124775000D01*
X105425000Y-124775000D02*
X105425000Y-124250000D01*
X112675000Y-124775000D02*
X112675000Y-124250000D01*
X112675000Y-117525000D02*
X112675000Y-118050000D01*
X105425000Y-117525000D02*
X105425000Y-118050000D01*
X105875000Y-124775000D02*
X105875000Y-126150000D01*
X135125000Y-96875000D02*
X135175000Y-96875000D01*
X135125000Y-92725000D02*
X135270000Y-92725000D01*
X140275000Y-92725000D02*
X140130000Y-92725000D01*
X140275000Y-96875000D02*
X140130000Y-96875000D01*
X135125000Y-96875000D02*
X135125000Y-92725000D01*
X140275000Y-96875000D02*
X140275000Y-92725000D01*
X135175000Y-96875000D02*
X135175000Y-98275000D01*
D11*
X124450000Y-131825000D02*
X111850000Y-131825000D01*
X111850000Y-131825000D02*
X111850000Y-136925000D01*
X111850000Y-136925000D02*
X124450000Y-136925000D01*
D12*
X105949800Y-130649680D02*
X105949800Y-139250120D01*
X105949800Y-139250120D02*
X109150200Y-139250120D01*
X109150200Y-139250120D02*
X109150200Y-130649680D01*
X108400900Y-130649680D02*
X109150200Y-130649680D01*
X106650840Y-130649680D02*
X105949800Y-130649680D01*
X107849720Y-130649680D02*
X107948780Y-130349960D01*
X107250280Y-130649680D02*
X107151220Y-130349960D01*
X106650840Y-130649680D02*
X108449160Y-130649680D01*
X86365000Y-86600000D02*
X118365000Y-86600000D01*
X86365000Y-79000000D02*
X86365000Y-86600000D01*
X118365000Y-86600000D02*
X118365000Y-79000000D01*
X118365000Y-79000000D02*
X86365000Y-79000000D01*
X77495000Y-86600000D02*
X86295000Y-86600000D01*
X77495000Y-79000000D02*
X77495000Y-86600000D01*
X86295000Y-86600000D02*
X86295000Y-79000000D01*
X86295000Y-79000000D02*
X77495000Y-79000000D01*
X118485000Y-86600000D02*
X135085000Y-86600000D01*
X118485000Y-79000000D02*
X118485000Y-86600000D01*
X135085000Y-86600000D02*
X135085000Y-79000000D01*
X135085000Y-79000000D02*
X118485000Y-79000000D01*
D11*
X128300000Y-132900000D02*
X128300000Y-133900000D01*
X130000000Y-133900000D02*
X130000000Y-132900000D01*
X128300000Y-127800000D02*
X128300000Y-128800000D01*
X130000000Y-128800000D02*
X130000000Y-127800000D01*
X125480000Y-127750000D02*
X125480000Y-129750000D01*
X127520000Y-129750000D02*
X127520000Y-127750000D01*
X134660000Y-107140000D02*
X130540000Y-107140000D01*
X134660000Y-125200000D02*
X134660000Y-107140000D01*
X130540000Y-127260000D02*
X130540000Y-107140000D01*
X134660000Y-125200000D02*
X132600000Y-125200000D01*
X132600000Y-125200000D02*
X132600000Y-127260000D01*
X132600000Y-127260000D02*
X130540000Y-127260000D01*
X134660000Y-126200000D02*
X134660000Y-127260000D01*
X134660000Y-127260000D02*
X133600000Y-127260000D01*
X102530000Y-118060000D02*
X102530000Y-119260000D01*
X100770000Y-119260000D02*
X100770000Y-118060000D01*
X138000000Y-109870000D02*
X139200000Y-109870000D01*
X139200000Y-111630000D02*
X138000000Y-111630000D01*
X138000000Y-107170000D02*
X139200000Y-107170000D01*
X139200000Y-108930000D02*
X138000000Y-108930000D01*
X136170000Y-129175000D02*
X136170000Y-127175000D01*
X139130000Y-127175000D02*
X139130000Y-129175000D01*
X68600000Y-88430000D02*
X70520000Y-88430000D01*
X75460000Y-88430000D02*
X73540000Y-88430000D01*
X67840000Y-96810000D02*
X70520000Y-96810000D01*
X76220000Y-96810000D02*
X73540000Y-96810000D01*
X67840000Y-96810000D02*
X67840000Y-89190000D01*
X67840000Y-89190000D02*
X68600000Y-88430000D01*
X75460000Y-88430000D02*
X76220000Y-89190000D01*
X76220000Y-89190000D02*
X76220000Y-96810000D01*
X95150000Y-127950000D02*
X93150000Y-127950000D01*
X93150000Y-127950000D02*
X93150000Y-131850000D01*
X95150000Y-127950000D02*
X95150000Y-131850000D01*
X141800000Y-128575000D02*
X141800000Y-127575000D01*
X140100000Y-127575000D02*
X140100000Y-128575000D01*
D12*
X100582143Y-124692857D02*
X100629762Y-124740476D01*
X100677381Y-124883333D01*
X100677381Y-124978571D01*
X100629762Y-125121429D01*
X100534524Y-125216667D01*
X100439286Y-125264286D01*
X100248810Y-125311905D01*
X100105952Y-125311905D01*
X99915476Y-125264286D01*
X99820238Y-125216667D01*
X99725000Y-125121429D01*
X99677381Y-124978571D01*
X99677381Y-124883333D01*
X99725000Y-124740476D01*
X99772619Y-124692857D01*
X100677381Y-123740476D02*
X100677381Y-124311905D01*
X100677381Y-124026191D02*
X99677381Y-124026191D01*
X99820238Y-124121429D01*
X99915476Y-124216667D01*
X99963095Y-124311905D01*
X99677381Y-122835714D02*
X99677381Y-123311905D01*
X100153571Y-123359524D01*
X100105952Y-123311905D01*
X100058333Y-123216667D01*
X100058333Y-122978571D01*
X100105952Y-122883333D01*
X100153571Y-122835714D01*
X100248810Y-122788095D01*
X100486905Y-122788095D01*
X100582143Y-122835714D01*
X100629762Y-122883333D01*
X100677381Y-122978571D01*
X100677381Y-123216667D01*
X100629762Y-123311905D01*
X100582143Y-123359524D01*
X143666667Y-110452381D02*
X143333333Y-109976190D01*
X143095238Y-110452381D02*
X143095238Y-109452381D01*
X143476191Y-109452381D01*
X143571429Y-109500000D01*
X143619048Y-109547619D01*
X143666667Y-109642857D01*
X143666667Y-109785714D01*
X143619048Y-109880952D01*
X143571429Y-109928571D01*
X143476191Y-109976190D01*
X143095238Y-109976190D01*
X144095238Y-109928571D02*
X144428572Y-109928571D01*
X144571429Y-110452381D02*
X144095238Y-110452381D01*
X144095238Y-109452381D01*
X144571429Y-109452381D01*
X145333334Y-109928571D02*
X145000000Y-109928571D01*
X145000000Y-110452381D02*
X145000000Y-109452381D01*
X145476191Y-109452381D01*
X146000000Y-109452381D02*
X146000000Y-109690476D01*
X145761905Y-109595238D02*
X146000000Y-109690476D01*
X146238096Y-109595238D01*
X145857143Y-109880952D02*
X146000000Y-109690476D01*
X146142858Y-109880952D01*
X146761905Y-109452381D02*
X146761905Y-109690476D01*
X146523810Y-109595238D02*
X146761905Y-109690476D01*
X147000001Y-109595238D01*
X146619048Y-109880952D02*
X146761905Y-109690476D01*
X146904763Y-109880952D01*
X124558334Y-138707143D02*
X124510715Y-138754762D01*
X124367858Y-138802381D01*
X124272620Y-138802381D01*
X124129762Y-138754762D01*
X124034524Y-138659524D01*
X123986905Y-138564286D01*
X123939286Y-138373810D01*
X123939286Y-138230952D01*
X123986905Y-138040476D01*
X124034524Y-137945238D01*
X124129762Y-137850000D01*
X124272620Y-137802381D01*
X124367858Y-137802381D01*
X124510715Y-137850000D01*
X124558334Y-137897619D01*
X125510715Y-138802381D02*
X124939286Y-138802381D01*
X125225000Y-138802381D02*
X125225000Y-137802381D01*
X125129762Y-137945238D01*
X125034524Y-138040476D01*
X124939286Y-138088095D01*
X111908334Y-138607143D02*
X111860715Y-138654762D01*
X111717858Y-138702381D01*
X111622620Y-138702381D01*
X111479762Y-138654762D01*
X111384524Y-138559524D01*
X111336905Y-138464286D01*
X111289286Y-138273810D01*
X111289286Y-138130952D01*
X111336905Y-137940476D01*
X111384524Y-137845238D01*
X111479762Y-137750000D01*
X111622620Y-137702381D01*
X111717858Y-137702381D01*
X111860715Y-137750000D01*
X111908334Y-137797619D01*
X112765477Y-137702381D02*
X112575000Y-137702381D01*
X112479762Y-137750000D01*
X112432143Y-137797619D01*
X112336905Y-137940476D01*
X112289286Y-138130952D01*
X112289286Y-138511905D01*
X112336905Y-138607143D01*
X112384524Y-138654762D01*
X112479762Y-138702381D01*
X112670239Y-138702381D01*
X112765477Y-138654762D01*
X112813096Y-138607143D01*
X112860715Y-138511905D01*
X112860715Y-138273810D01*
X112813096Y-138178571D01*
X112765477Y-138130952D01*
X112670239Y-138083333D01*
X112479762Y-138083333D01*
X112384524Y-138130952D01*
X112336905Y-138178571D01*
X112289286Y-138273810D01*
X110457143Y-129492857D02*
X110504762Y-129540476D01*
X110552381Y-129683333D01*
X110552381Y-129778571D01*
X110504762Y-129921429D01*
X110409524Y-130016667D01*
X110314286Y-130064286D01*
X110123810Y-130111905D01*
X109980952Y-130111905D01*
X109790476Y-130064286D01*
X109695238Y-130016667D01*
X109600000Y-129921429D01*
X109552381Y-129778571D01*
X109552381Y-129683333D01*
X109600000Y-129540476D01*
X109647619Y-129492857D01*
X110552381Y-128540476D02*
X110552381Y-129111905D01*
X110552381Y-128826191D02*
X109552381Y-128826191D01*
X109695238Y-128921429D01*
X109790476Y-129016667D01*
X109838095Y-129111905D01*
X109552381Y-127921429D02*
X109552381Y-127826190D01*
X109600000Y-127730952D01*
X109647619Y-127683333D01*
X109742857Y-127635714D01*
X109933333Y-127588095D01*
X110171429Y-127588095D01*
X110361905Y-127635714D01*
X110457143Y-127683333D01*
X110504762Y-127730952D01*
X110552381Y-127826190D01*
X110552381Y-127921429D01*
X110504762Y-128016667D01*
X110457143Y-128064286D01*
X110361905Y-128111905D01*
X110171429Y-128159524D01*
X109933333Y-128159524D01*
X109742857Y-128111905D01*
X109647619Y-128064286D01*
X109600000Y-128016667D01*
X109552381Y-127921429D01*
X105207143Y-129492857D02*
X105254762Y-129540476D01*
X105302381Y-129683333D01*
X105302381Y-129778571D01*
X105254762Y-129921429D01*
X105159524Y-130016667D01*
X105064286Y-130064286D01*
X104873810Y-130111905D01*
X104730952Y-130111905D01*
X104540476Y-130064286D01*
X104445238Y-130016667D01*
X104350000Y-129921429D01*
X104302381Y-129778571D01*
X104302381Y-129683333D01*
X104350000Y-129540476D01*
X104397619Y-129492857D01*
X105302381Y-128540476D02*
X105302381Y-129111905D01*
X105302381Y-128826191D02*
X104302381Y-128826191D01*
X104445238Y-128921429D01*
X104540476Y-129016667D01*
X104588095Y-129111905D01*
X105302381Y-127588095D02*
X105302381Y-128159524D01*
X105302381Y-127873810D02*
X104302381Y-127873810D01*
X104445238Y-127969048D01*
X104540476Y-128064286D01*
X104588095Y-128159524D01*
X67857143Y-106742857D02*
X67904762Y-106790476D01*
X67952381Y-106933333D01*
X67952381Y-107028571D01*
X67904762Y-107171429D01*
X67809524Y-107266667D01*
X67714286Y-107314286D01*
X67523810Y-107361905D01*
X67380952Y-107361905D01*
X67190476Y-107314286D01*
X67095238Y-107266667D01*
X67000000Y-107171429D01*
X66952381Y-107028571D01*
X66952381Y-106933333D01*
X67000000Y-106790476D01*
X67047619Y-106742857D01*
X67952381Y-105790476D02*
X67952381Y-106361905D01*
X67952381Y-106076191D02*
X66952381Y-106076191D01*
X67095238Y-106171429D01*
X67190476Y-106266667D01*
X67238095Y-106361905D01*
X67047619Y-105409524D02*
X67000000Y-105361905D01*
X66952381Y-105266667D01*
X66952381Y-105028571D01*
X67000000Y-104933333D01*
X67047619Y-104885714D01*
X67142857Y-104838095D01*
X67238095Y-104838095D01*
X67380952Y-104885714D01*
X67952381Y-105457143D01*
X67952381Y-104838095D01*
X68611429Y-101650952D02*
X68611429Y-100889047D01*
X68992381Y-101269999D02*
X68230476Y-101269999D01*
X117737143Y-116592857D02*
X117784762Y-116640476D01*
X117832381Y-116783333D01*
X117832381Y-116878571D01*
X117784762Y-117021429D01*
X117689524Y-117116667D01*
X117594286Y-117164286D01*
X117403810Y-117211905D01*
X117260952Y-117211905D01*
X117070476Y-117164286D01*
X116975238Y-117116667D01*
X116880000Y-117021429D01*
X116832381Y-116878571D01*
X116832381Y-116783333D01*
X116880000Y-116640476D01*
X116927619Y-116592857D01*
X117832381Y-115640476D02*
X117832381Y-116211905D01*
X117832381Y-115926191D02*
X116832381Y-115926191D01*
X116975238Y-116021429D01*
X117070476Y-116116667D01*
X117118095Y-116211905D01*
X116832381Y-115307143D02*
X116832381Y-114688095D01*
X117213333Y-115021429D01*
X117213333Y-114878571D01*
X117260952Y-114783333D01*
X117308571Y-114735714D01*
X117403810Y-114688095D01*
X117641905Y-114688095D01*
X117737143Y-114735714D01*
X117784762Y-114783333D01*
X117832381Y-114878571D01*
X117832381Y-115164286D01*
X117784762Y-115259524D01*
X117737143Y-115307143D01*
X115027143Y-117592857D02*
X115074762Y-117640476D01*
X115122381Y-117783333D01*
X115122381Y-117878571D01*
X115074762Y-118021429D01*
X114979524Y-118116667D01*
X114884286Y-118164286D01*
X114693810Y-118211905D01*
X114550952Y-118211905D01*
X114360476Y-118164286D01*
X114265238Y-118116667D01*
X114170000Y-118021429D01*
X114122381Y-117878571D01*
X114122381Y-117783333D01*
X114170000Y-117640476D01*
X114217619Y-117592857D01*
X115122381Y-116640476D02*
X115122381Y-117211905D01*
X115122381Y-116926191D02*
X114122381Y-116926191D01*
X114265238Y-117021429D01*
X114360476Y-117116667D01*
X114408095Y-117211905D01*
X114455714Y-115783333D02*
X115122381Y-115783333D01*
X114074762Y-116021429D02*
X114789048Y-116259524D01*
X114789048Y-115640476D01*
X103032143Y-113282143D02*
X102984524Y-113329762D01*
X102841667Y-113377381D01*
X102746429Y-113377381D01*
X102603571Y-113329762D01*
X102508333Y-113234524D01*
X102460714Y-113139286D01*
X102413095Y-112948810D01*
X102413095Y-112805952D01*
X102460714Y-112615476D01*
X102508333Y-112520238D01*
X102603571Y-112425000D01*
X102746429Y-112377381D01*
X102841667Y-112377381D01*
X102984524Y-112425000D01*
X103032143Y-112472619D01*
X103984524Y-113377381D02*
X103413095Y-113377381D01*
X103698809Y-113377381D02*
X103698809Y-112377381D01*
X103603571Y-112520238D01*
X103508333Y-112615476D01*
X103413095Y-112663095D01*
X104841667Y-112377381D02*
X104651190Y-112377381D01*
X104555952Y-112425000D01*
X104508333Y-112472619D01*
X104413095Y-112615476D01*
X104365476Y-112805952D01*
X104365476Y-113186905D01*
X104413095Y-113282143D01*
X104460714Y-113329762D01*
X104555952Y-113377381D01*
X104746429Y-113377381D01*
X104841667Y-113329762D01*
X104889286Y-113282143D01*
X104936905Y-113186905D01*
X104936905Y-112948810D01*
X104889286Y-112853571D01*
X104841667Y-112805952D01*
X104746429Y-112758333D01*
X104555952Y-112758333D01*
X104460714Y-112805952D01*
X104413095Y-112853571D01*
X104365476Y-112948810D01*
X64632143Y-102992857D02*
X64679762Y-103040476D01*
X64727381Y-103183333D01*
X64727381Y-103278571D01*
X64679762Y-103421429D01*
X64584524Y-103516667D01*
X64489286Y-103564286D01*
X64298810Y-103611905D01*
X64155952Y-103611905D01*
X63965476Y-103564286D01*
X63870238Y-103516667D01*
X63775000Y-103421429D01*
X63727381Y-103278571D01*
X63727381Y-103183333D01*
X63775000Y-103040476D01*
X63822619Y-102992857D01*
X64727381Y-102040476D02*
X64727381Y-102611905D01*
X64727381Y-102326191D02*
X63727381Y-102326191D01*
X63870238Y-102421429D01*
X63965476Y-102516667D01*
X64013095Y-102611905D01*
X63727381Y-101707143D02*
X63727381Y-101040476D01*
X64727381Y-101469048D01*
X116212143Y-125222143D02*
X116164524Y-125269762D01*
X116021667Y-125317381D01*
X115926429Y-125317381D01*
X115783571Y-125269762D01*
X115688333Y-125174524D01*
X115640714Y-125079286D01*
X115593095Y-124888810D01*
X115593095Y-124745952D01*
X115640714Y-124555476D01*
X115688333Y-124460238D01*
X115783571Y-124365000D01*
X115926429Y-124317381D01*
X116021667Y-124317381D01*
X116164524Y-124365000D01*
X116212143Y-124412619D01*
X117164524Y-125317381D02*
X116593095Y-125317381D01*
X116878809Y-125317381D02*
X116878809Y-124317381D01*
X116783571Y-124460238D01*
X116688333Y-124555476D01*
X116593095Y-124603095D01*
X117735952Y-124745952D02*
X117640714Y-124698333D01*
X117593095Y-124650714D01*
X117545476Y-124555476D01*
X117545476Y-124507857D01*
X117593095Y-124412619D01*
X117640714Y-124365000D01*
X117735952Y-124317381D01*
X117926429Y-124317381D01*
X118021667Y-124365000D01*
X118069286Y-124412619D01*
X118116905Y-124507857D01*
X118116905Y-124555476D01*
X118069286Y-124650714D01*
X118021667Y-124698333D01*
X117926429Y-124745952D01*
X117735952Y-124745952D01*
X117640714Y-124793571D01*
X117593095Y-124841190D01*
X117545476Y-124936429D01*
X117545476Y-125126905D01*
X117593095Y-125222143D01*
X117640714Y-125269762D01*
X117735952Y-125317381D01*
X117926429Y-125317381D01*
X118021667Y-125269762D01*
X118069286Y-125222143D01*
X118116905Y-125126905D01*
X118116905Y-124936429D01*
X118069286Y-124841190D01*
X118021667Y-124793571D01*
X117926429Y-124745952D01*
X75807143Y-139557143D02*
X75759524Y-139604762D01*
X75616667Y-139652381D01*
X75521429Y-139652381D01*
X75378571Y-139604762D01*
X75283333Y-139509524D01*
X75235714Y-139414286D01*
X75188095Y-139223810D01*
X75188095Y-139080952D01*
X75235714Y-138890476D01*
X75283333Y-138795238D01*
X75378571Y-138700000D01*
X75521429Y-138652381D01*
X75616667Y-138652381D01*
X75759524Y-138700000D01*
X75807143Y-138747619D01*
X76759524Y-139652381D02*
X76188095Y-139652381D01*
X76473809Y-139652381D02*
X76473809Y-138652381D01*
X76378571Y-138795238D01*
X76283333Y-138890476D01*
X76188095Y-138938095D01*
X77235714Y-139652381D02*
X77426190Y-139652381D01*
X77521429Y-139604762D01*
X77569048Y-139557143D01*
X77664286Y-139414286D01*
X77711905Y-139223810D01*
X77711905Y-138842857D01*
X77664286Y-138747619D01*
X77616667Y-138700000D01*
X77521429Y-138652381D01*
X77330952Y-138652381D01*
X77235714Y-138700000D01*
X77188095Y-138747619D01*
X77140476Y-138842857D01*
X77140476Y-139080952D01*
X77188095Y-139176190D01*
X77235714Y-139223810D01*
X77330952Y-139271429D01*
X77521429Y-139271429D01*
X77616667Y-139223810D01*
X77664286Y-139176190D01*
X77711905Y-139080952D01*
X83207143Y-135567857D02*
X83254762Y-135615476D01*
X83302381Y-135758333D01*
X83302381Y-135853571D01*
X83254762Y-135996429D01*
X83159524Y-136091667D01*
X83064286Y-136139286D01*
X82873810Y-136186905D01*
X82730952Y-136186905D01*
X82540476Y-136139286D01*
X82445238Y-136091667D01*
X82350000Y-135996429D01*
X82302381Y-135853571D01*
X82302381Y-135758333D01*
X82350000Y-135615476D01*
X82397619Y-135567857D01*
X82397619Y-135186905D02*
X82350000Y-135139286D01*
X82302381Y-135044048D01*
X82302381Y-134805952D01*
X82350000Y-134710714D01*
X82397619Y-134663095D01*
X82492857Y-134615476D01*
X82588095Y-134615476D01*
X82730952Y-134663095D01*
X83302381Y-135234524D01*
X83302381Y-134615476D01*
X82302381Y-133996429D02*
X82302381Y-133901190D01*
X82350000Y-133805952D01*
X82397619Y-133758333D01*
X82492857Y-133710714D01*
X82683333Y-133663095D01*
X82921429Y-133663095D01*
X83111905Y-133710714D01*
X83207143Y-133758333D01*
X83254762Y-133805952D01*
X83302381Y-133901190D01*
X83302381Y-133996429D01*
X83254762Y-134091667D01*
X83207143Y-134139286D01*
X83111905Y-134186905D01*
X82921429Y-134234524D01*
X82683333Y-134234524D01*
X82492857Y-134186905D01*
X82397619Y-134139286D01*
X82350000Y-134091667D01*
X82302381Y-133996429D01*
X81761429Y-130800952D02*
X81761429Y-130039047D01*
X82142381Y-130419999D02*
X81380476Y-130419999D01*
X92097143Y-135842857D02*
X92144762Y-135890476D01*
X92192381Y-136033333D01*
X92192381Y-136128571D01*
X92144762Y-136271429D01*
X92049524Y-136366667D01*
X91954286Y-136414286D01*
X91763810Y-136461905D01*
X91620952Y-136461905D01*
X91430476Y-136414286D01*
X91335238Y-136366667D01*
X91240000Y-136271429D01*
X91192381Y-136128571D01*
X91192381Y-136033333D01*
X91240000Y-135890476D01*
X91287619Y-135842857D01*
X91287619Y-135461905D02*
X91240000Y-135414286D01*
X91192381Y-135319048D01*
X91192381Y-135080952D01*
X91240000Y-134985714D01*
X91287619Y-134938095D01*
X91382857Y-134890476D01*
X91478095Y-134890476D01*
X91620952Y-134938095D01*
X92192381Y-135509524D01*
X92192381Y-134890476D01*
X92192381Y-133938095D02*
X92192381Y-134509524D01*
X92192381Y-134223810D02*
X91192381Y-134223810D01*
X91335238Y-134319048D01*
X91430476Y-134414286D01*
X91478095Y-134509524D01*
X61207143Y-114857143D02*
X61159524Y-114904762D01*
X61016667Y-114952381D01*
X60921429Y-114952381D01*
X60778571Y-114904762D01*
X60683333Y-114809524D01*
X60635714Y-114714286D01*
X60588095Y-114523810D01*
X60588095Y-114380952D01*
X60635714Y-114190476D01*
X60683333Y-114095238D01*
X60778571Y-114000000D01*
X60921429Y-113952381D01*
X61016667Y-113952381D01*
X61159524Y-114000000D01*
X61207143Y-114047619D01*
X61588095Y-114047619D02*
X61635714Y-114000000D01*
X61730952Y-113952381D01*
X61969048Y-113952381D01*
X62064286Y-114000000D01*
X62111905Y-114047619D01*
X62159524Y-114142857D01*
X62159524Y-114238095D01*
X62111905Y-114380952D01*
X61540476Y-114952381D01*
X62159524Y-114952381D01*
X62540476Y-114047619D02*
X62588095Y-114000000D01*
X62683333Y-113952381D01*
X62921429Y-113952381D01*
X63016667Y-114000000D01*
X63064286Y-114047619D01*
X63111905Y-114142857D01*
X63111905Y-114238095D01*
X63064286Y-114380952D01*
X62492857Y-114952381D01*
X63111905Y-114952381D01*
X82707143Y-123292857D02*
X82754762Y-123340476D01*
X82802381Y-123483333D01*
X82802381Y-123578571D01*
X82754762Y-123721429D01*
X82659524Y-123816667D01*
X82564286Y-123864286D01*
X82373810Y-123911905D01*
X82230952Y-123911905D01*
X82040476Y-123864286D01*
X81945238Y-123816667D01*
X81850000Y-123721429D01*
X81802381Y-123578571D01*
X81802381Y-123483333D01*
X81850000Y-123340476D01*
X81897619Y-123292857D01*
X81897619Y-122911905D02*
X81850000Y-122864286D01*
X81802381Y-122769048D01*
X81802381Y-122530952D01*
X81850000Y-122435714D01*
X81897619Y-122388095D01*
X81992857Y-122340476D01*
X82088095Y-122340476D01*
X82230952Y-122388095D01*
X82802381Y-122959524D01*
X82802381Y-122340476D01*
X81802381Y-122007143D02*
X81802381Y-121388095D01*
X82183333Y-121721429D01*
X82183333Y-121578571D01*
X82230952Y-121483333D01*
X82278571Y-121435714D01*
X82373810Y-121388095D01*
X82611905Y-121388095D01*
X82707143Y-121435714D01*
X82754762Y-121483333D01*
X82802381Y-121578571D01*
X82802381Y-121864286D01*
X82754762Y-121959524D01*
X82707143Y-122007143D01*
X83961429Y-118250952D02*
X83961429Y-117489047D01*
X84342381Y-117869999D02*
X83580476Y-117869999D01*
X94632143Y-125092857D02*
X94679762Y-125140476D01*
X94727381Y-125283333D01*
X94727381Y-125378571D01*
X94679762Y-125521429D01*
X94584524Y-125616667D01*
X94489286Y-125664286D01*
X94298810Y-125711905D01*
X94155952Y-125711905D01*
X93965476Y-125664286D01*
X93870238Y-125616667D01*
X93775000Y-125521429D01*
X93727381Y-125378571D01*
X93727381Y-125283333D01*
X93775000Y-125140476D01*
X93822619Y-125092857D01*
X93822619Y-124711905D02*
X93775000Y-124664286D01*
X93727381Y-124569048D01*
X93727381Y-124330952D01*
X93775000Y-124235714D01*
X93822619Y-124188095D01*
X93917857Y-124140476D01*
X94013095Y-124140476D01*
X94155952Y-124188095D01*
X94727381Y-124759524D01*
X94727381Y-124140476D01*
X94060714Y-123283333D02*
X94727381Y-123283333D01*
X93679762Y-123521429D02*
X94394048Y-123759524D01*
X94394048Y-123140476D01*
X112282143Y-129457143D02*
X112234524Y-129504762D01*
X112091667Y-129552381D01*
X111996429Y-129552381D01*
X111853571Y-129504762D01*
X111758333Y-129409524D01*
X111710714Y-129314286D01*
X111663095Y-129123810D01*
X111663095Y-128980952D01*
X111710714Y-128790476D01*
X111758333Y-128695238D01*
X111853571Y-128600000D01*
X111996429Y-128552381D01*
X112091667Y-128552381D01*
X112234524Y-128600000D01*
X112282143Y-128647619D01*
X112663095Y-128647619D02*
X112710714Y-128600000D01*
X112805952Y-128552381D01*
X113044048Y-128552381D01*
X113139286Y-128600000D01*
X113186905Y-128647619D01*
X113234524Y-128742857D01*
X113234524Y-128838095D01*
X113186905Y-128980952D01*
X112615476Y-129552381D01*
X113234524Y-129552381D01*
X114139286Y-128552381D02*
X113663095Y-128552381D01*
X113615476Y-129028571D01*
X113663095Y-128980952D01*
X113758333Y-128933333D01*
X113996429Y-128933333D01*
X114091667Y-128980952D01*
X114139286Y-129028571D01*
X114186905Y-129123810D01*
X114186905Y-129361905D01*
X114139286Y-129457143D01*
X114091667Y-129504762D01*
X113996429Y-129552381D01*
X113758333Y-129552381D01*
X113663095Y-129504762D01*
X113615476Y-129457143D01*
X125232143Y-109992857D02*
X125279762Y-110040476D01*
X125327381Y-110183333D01*
X125327381Y-110278571D01*
X125279762Y-110421429D01*
X125184524Y-110516667D01*
X125089286Y-110564286D01*
X124898810Y-110611905D01*
X124755952Y-110611905D01*
X124565476Y-110564286D01*
X124470238Y-110516667D01*
X124375000Y-110421429D01*
X124327381Y-110278571D01*
X124327381Y-110183333D01*
X124375000Y-110040476D01*
X124422619Y-109992857D01*
X124422619Y-109611905D02*
X124375000Y-109564286D01*
X124327381Y-109469048D01*
X124327381Y-109230952D01*
X124375000Y-109135714D01*
X124422619Y-109088095D01*
X124517857Y-109040476D01*
X124613095Y-109040476D01*
X124755952Y-109088095D01*
X125327381Y-109659524D01*
X125327381Y-109040476D01*
X124327381Y-108707143D02*
X124327381Y-108040476D01*
X125327381Y-108469048D01*
X123907143Y-109967857D02*
X123954762Y-110015476D01*
X124002381Y-110158333D01*
X124002381Y-110253571D01*
X123954762Y-110396429D01*
X123859524Y-110491667D01*
X123764286Y-110539286D01*
X123573810Y-110586905D01*
X123430952Y-110586905D01*
X123240476Y-110539286D01*
X123145238Y-110491667D01*
X123050000Y-110396429D01*
X123002381Y-110253571D01*
X123002381Y-110158333D01*
X123050000Y-110015476D01*
X123097619Y-109967857D01*
X123097619Y-109586905D02*
X123050000Y-109539286D01*
X123002381Y-109444048D01*
X123002381Y-109205952D01*
X123050000Y-109110714D01*
X123097619Y-109063095D01*
X123192857Y-109015476D01*
X123288095Y-109015476D01*
X123430952Y-109063095D01*
X124002381Y-109634524D01*
X124002381Y-109015476D01*
X123430952Y-108444048D02*
X123383333Y-108539286D01*
X123335714Y-108586905D01*
X123240476Y-108634524D01*
X123192857Y-108634524D01*
X123097619Y-108586905D01*
X123050000Y-108539286D01*
X123002381Y-108444048D01*
X123002381Y-108253571D01*
X123050000Y-108158333D01*
X123097619Y-108110714D01*
X123192857Y-108063095D01*
X123240476Y-108063095D01*
X123335714Y-108110714D01*
X123383333Y-108158333D01*
X123430952Y-108253571D01*
X123430952Y-108444048D01*
X123478571Y-108539286D01*
X123526190Y-108586905D01*
X123621429Y-108634524D01*
X123811905Y-108634524D01*
X123907143Y-108586905D01*
X123954762Y-108539286D01*
X124002381Y-108444048D01*
X124002381Y-108253571D01*
X123954762Y-108158333D01*
X123907143Y-108110714D01*
X123811905Y-108063095D01*
X123621429Y-108063095D01*
X123526190Y-108110714D01*
X123478571Y-108158333D01*
X123430952Y-108253571D01*
X129932143Y-98832143D02*
X129884524Y-98879762D01*
X129741667Y-98927381D01*
X129646429Y-98927381D01*
X129503571Y-98879762D01*
X129408333Y-98784524D01*
X129360714Y-98689286D01*
X129313095Y-98498810D01*
X129313095Y-98355952D01*
X129360714Y-98165476D01*
X129408333Y-98070238D01*
X129503571Y-97975000D01*
X129646429Y-97927381D01*
X129741667Y-97927381D01*
X129884524Y-97975000D01*
X129932143Y-98022619D01*
X130265476Y-97927381D02*
X130884524Y-97927381D01*
X130551190Y-98308333D01*
X130694048Y-98308333D01*
X130789286Y-98355952D01*
X130836905Y-98403571D01*
X130884524Y-98498810D01*
X130884524Y-98736905D01*
X130836905Y-98832143D01*
X130789286Y-98879762D01*
X130694048Y-98927381D01*
X130408333Y-98927381D01*
X130313095Y-98879762D01*
X130265476Y-98832143D01*
X131741667Y-98260714D02*
X131741667Y-98927381D01*
X131503571Y-97879762D02*
X131265476Y-98594048D01*
X131884524Y-98594048D01*
X60352381Y-95738095D02*
X59352381Y-95738095D01*
X59352381Y-95500000D01*
X59400000Y-95357142D01*
X59495238Y-95261904D01*
X59590476Y-95214285D01*
X59780952Y-95166666D01*
X59923810Y-95166666D01*
X60114286Y-95214285D01*
X60209524Y-95261904D01*
X60304762Y-95357142D01*
X60352381Y-95500000D01*
X60352381Y-95738095D01*
X60352381Y-94214285D02*
X60352381Y-94785714D01*
X60352381Y-94500000D02*
X59352381Y-94500000D01*
X59495238Y-94595238D01*
X59590476Y-94690476D01*
X59638095Y-94785714D01*
X71627381Y-138913095D02*
X70627381Y-138913095D01*
X70627381Y-138675000D01*
X70675000Y-138532142D01*
X70770238Y-138436904D01*
X70865476Y-138389285D01*
X71055952Y-138341666D01*
X71198810Y-138341666D01*
X71389286Y-138389285D01*
X71484524Y-138436904D01*
X71579762Y-138532142D01*
X71627381Y-138675000D01*
X71627381Y-138913095D01*
X70722619Y-137960714D02*
X70675000Y-137913095D01*
X70627381Y-137817857D01*
X70627381Y-137579761D01*
X70675000Y-137484523D01*
X70722619Y-137436904D01*
X70817857Y-137389285D01*
X70913095Y-137389285D01*
X71055952Y-137436904D01*
X71627381Y-138008333D01*
X71627381Y-137389285D01*
X72286905Y-127327381D02*
X72286905Y-126327381D01*
X72525000Y-126327381D01*
X72667858Y-126375000D01*
X72763096Y-126470238D01*
X72810715Y-126565476D01*
X72858334Y-126755952D01*
X72858334Y-126898810D01*
X72810715Y-127089286D01*
X72763096Y-127184524D01*
X72667858Y-127279762D01*
X72525000Y-127327381D01*
X72286905Y-127327381D01*
X73191667Y-126327381D02*
X73810715Y-126327381D01*
X73477381Y-126708333D01*
X73620239Y-126708333D01*
X73715477Y-126755952D01*
X73763096Y-126803571D01*
X73810715Y-126898810D01*
X73810715Y-127136905D01*
X73763096Y-127232143D01*
X73715477Y-127279762D01*
X73620239Y-127327381D01*
X73334524Y-127327381D01*
X73239286Y-127279762D01*
X73191667Y-127232143D01*
X93861905Y-86677381D02*
X93861905Y-85677381D01*
X94100000Y-85677381D01*
X94242858Y-85725000D01*
X94338096Y-85820238D01*
X94385715Y-85915476D01*
X94433334Y-86105952D01*
X94433334Y-86248810D01*
X94385715Y-86439286D01*
X94338096Y-86534524D01*
X94242858Y-86629762D01*
X94100000Y-86677381D01*
X93861905Y-86677381D01*
X95290477Y-86010714D02*
X95290477Y-86677381D01*
X95052381Y-85629762D02*
X94814286Y-86344048D01*
X95433334Y-86344048D01*
X81927381Y-113813095D02*
X80927381Y-113813095D01*
X80927381Y-113575000D01*
X80975000Y-113432142D01*
X81070238Y-113336904D01*
X81165476Y-113289285D01*
X81355952Y-113241666D01*
X81498810Y-113241666D01*
X81689286Y-113289285D01*
X81784524Y-113336904D01*
X81879762Y-113432142D01*
X81927381Y-113575000D01*
X81927381Y-113813095D01*
X80927381Y-112336904D02*
X80927381Y-112813095D01*
X81403571Y-112860714D01*
X81355952Y-112813095D01*
X81308333Y-112717857D01*
X81308333Y-112479761D01*
X81355952Y-112384523D01*
X81403571Y-112336904D01*
X81498810Y-112289285D01*
X81736905Y-112289285D01*
X81832143Y-112336904D01*
X81879762Y-112384523D01*
X81927381Y-112479761D01*
X81927381Y-112717857D01*
X81879762Y-112813095D01*
X81832143Y-112860714D01*
X101811905Y-86677381D02*
X101811905Y-85677381D01*
X102050000Y-85677381D01*
X102192858Y-85725000D01*
X102288096Y-85820238D01*
X102335715Y-85915476D01*
X102383334Y-86105952D01*
X102383334Y-86248810D01*
X102335715Y-86439286D01*
X102288096Y-86534524D01*
X102192858Y-86629762D01*
X102050000Y-86677381D01*
X101811905Y-86677381D01*
X103240477Y-85677381D02*
X103050000Y-85677381D01*
X102954762Y-85725000D01*
X102907143Y-85772619D01*
X102811905Y-85915476D01*
X102764286Y-86105952D01*
X102764286Y-86486905D01*
X102811905Y-86582143D01*
X102859524Y-86629762D01*
X102954762Y-86677381D01*
X103145239Y-86677381D01*
X103240477Y-86629762D01*
X103288096Y-86582143D01*
X103335715Y-86486905D01*
X103335715Y-86248810D01*
X103288096Y-86153571D01*
X103240477Y-86105952D01*
X103145239Y-86058333D01*
X102954762Y-86058333D01*
X102859524Y-86105952D01*
X102811905Y-86153571D01*
X102764286Y-86248810D01*
X109811905Y-86677381D02*
X109811905Y-85677381D01*
X110050000Y-85677381D01*
X110192858Y-85725000D01*
X110288096Y-85820238D01*
X110335715Y-85915476D01*
X110383334Y-86105952D01*
X110383334Y-86248810D01*
X110335715Y-86439286D01*
X110288096Y-86534524D01*
X110192858Y-86629762D01*
X110050000Y-86677381D01*
X109811905Y-86677381D01*
X110716667Y-85677381D02*
X111383334Y-85677381D01*
X110954762Y-86677381D01*
X117385714Y-86677381D02*
X117385714Y-85677381D01*
X117623809Y-85677381D01*
X117766667Y-85725000D01*
X117861905Y-85820238D01*
X117909524Y-85915476D01*
X117957143Y-86105952D01*
X117957143Y-86248810D01*
X117909524Y-86439286D01*
X117861905Y-86534524D01*
X117766667Y-86629762D01*
X117623809Y-86677381D01*
X117385714Y-86677381D01*
X118909524Y-86677381D02*
X118338095Y-86677381D01*
X118623809Y-86677381D02*
X118623809Y-85677381D01*
X118528571Y-85820238D01*
X118433333Y-85915476D01*
X118338095Y-85963095D01*
X119861905Y-86677381D02*
X119290476Y-86677381D01*
X119576190Y-86677381D02*
X119576190Y-85677381D01*
X119480952Y-85820238D01*
X119385714Y-85915476D01*
X119290476Y-85963095D01*
X125335714Y-86677381D02*
X125335714Y-85677381D01*
X125573809Y-85677381D01*
X125716667Y-85725000D01*
X125811905Y-85820238D01*
X125859524Y-85915476D01*
X125907143Y-86105952D01*
X125907143Y-86248810D01*
X125859524Y-86439286D01*
X125811905Y-86534524D01*
X125716667Y-86629762D01*
X125573809Y-86677381D01*
X125335714Y-86677381D01*
X126859524Y-86677381D02*
X126288095Y-86677381D01*
X126573809Y-86677381D02*
X126573809Y-85677381D01*
X126478571Y-85820238D01*
X126383333Y-85915476D01*
X126288095Y-85963095D01*
X127240476Y-85772619D02*
X127288095Y-85725000D01*
X127383333Y-85677381D01*
X127621429Y-85677381D01*
X127716667Y-85725000D01*
X127764286Y-85772619D01*
X127811905Y-85867857D01*
X127811905Y-85963095D01*
X127764286Y-86105952D01*
X127192857Y-86677381D01*
X127811905Y-86677381D01*
X121858334Y-125352381D02*
X121382143Y-125352381D01*
X121382143Y-124352381D01*
X122144048Y-124447619D02*
X122191667Y-124400000D01*
X122286905Y-124352381D01*
X122525001Y-124352381D01*
X122620239Y-124400000D01*
X122667858Y-124447619D01*
X122715477Y-124542857D01*
X122715477Y-124638095D01*
X122667858Y-124780952D01*
X122096429Y-125352381D01*
X122715477Y-125352381D01*
X76033334Y-112802381D02*
X75557143Y-112802381D01*
X75557143Y-111802381D01*
X76271429Y-111802381D02*
X76890477Y-111802381D01*
X76557143Y-112183333D01*
X76700001Y-112183333D01*
X76795239Y-112230952D01*
X76842858Y-112278571D01*
X76890477Y-112373810D01*
X76890477Y-112611905D01*
X76842858Y-112707143D01*
X76795239Y-112754762D01*
X76700001Y-112802381D01*
X76414286Y-112802381D01*
X76319048Y-112754762D01*
X76271429Y-112707143D01*
X82192898Y-96273109D02*
X82030031Y-95825635D01*
X82969723Y-95483615D01*
X83079947Y-96761052D02*
X82453485Y-96989065D01*
X83356491Y-96407021D02*
X82603848Y-96427585D01*
X82815575Y-97009300D01*
X91547619Y-94895238D02*
X91500000Y-94990476D01*
X91404762Y-95085714D01*
X91261905Y-95228571D01*
X91214286Y-95323810D01*
X91214286Y-95419048D01*
X91452381Y-95371429D02*
X91404762Y-95466667D01*
X91309524Y-95561905D01*
X91119048Y-95609524D01*
X90785714Y-95609524D01*
X90595238Y-95561905D01*
X90500000Y-95466667D01*
X90452381Y-95371429D01*
X90452381Y-95180952D01*
X90500000Y-95085714D01*
X90595238Y-94990476D01*
X90785714Y-94942857D01*
X91119048Y-94942857D01*
X91309524Y-94990476D01*
X91404762Y-95085714D01*
X91452381Y-95180952D01*
X91452381Y-95371429D01*
X90547619Y-94561905D02*
X90500000Y-94514286D01*
X90452381Y-94419048D01*
X90452381Y-94180952D01*
X90500000Y-94085714D01*
X90547619Y-94038095D01*
X90642857Y-93990476D01*
X90738095Y-93990476D01*
X90880952Y-94038095D01*
X91452381Y-94609524D01*
X91452381Y-93990476D01*
X92404762Y-117247619D02*
X92309524Y-117200000D01*
X92214286Y-117104762D01*
X92071429Y-116961905D01*
X91976190Y-116914286D01*
X91880952Y-116914286D01*
X91928571Y-117152381D02*
X91833333Y-117104762D01*
X91738095Y-117009524D01*
X91690476Y-116819048D01*
X91690476Y-116485714D01*
X91738095Y-116295238D01*
X91833333Y-116200000D01*
X91928571Y-116152381D01*
X92119048Y-116152381D01*
X92214286Y-116200000D01*
X92309524Y-116295238D01*
X92357143Y-116485714D01*
X92357143Y-116819048D01*
X92309524Y-117009524D01*
X92214286Y-117104762D01*
X92119048Y-117152381D01*
X91928571Y-117152381D01*
X92690476Y-116152381D02*
X93309524Y-116152381D01*
X92976190Y-116533333D01*
X93119048Y-116533333D01*
X93214286Y-116580952D01*
X93261905Y-116628571D01*
X93309524Y-116723810D01*
X93309524Y-116961905D01*
X93261905Y-117057143D01*
X93214286Y-117104762D01*
X93119048Y-117152381D01*
X92833333Y-117152381D01*
X92738095Y-117104762D01*
X92690476Y-117057143D01*
X99485119Y-94895238D02*
X99437500Y-94990476D01*
X99342262Y-95085714D01*
X99199405Y-95228571D01*
X99151786Y-95323810D01*
X99151786Y-95419048D01*
X99389881Y-95371429D02*
X99342262Y-95466667D01*
X99247024Y-95561905D01*
X99056548Y-95609524D01*
X98723214Y-95609524D01*
X98532738Y-95561905D01*
X98437500Y-95466667D01*
X98389881Y-95371429D01*
X98389881Y-95180952D01*
X98437500Y-95085714D01*
X98532738Y-94990476D01*
X98723214Y-94942857D01*
X99056548Y-94942857D01*
X99247024Y-94990476D01*
X99342262Y-95085714D01*
X99389881Y-95180952D01*
X99389881Y-95371429D01*
X98723214Y-94085714D02*
X99389881Y-94085714D01*
X98342262Y-94323810D02*
X99056548Y-94561905D01*
X99056548Y-93942857D01*
X107422619Y-94895238D02*
X107375000Y-94990476D01*
X107279762Y-95085714D01*
X107136905Y-95228571D01*
X107089286Y-95323810D01*
X107089286Y-95419048D01*
X107327381Y-95371429D02*
X107279762Y-95466667D01*
X107184524Y-95561905D01*
X106994048Y-95609524D01*
X106660714Y-95609524D01*
X106470238Y-95561905D01*
X106375000Y-95466667D01*
X106327381Y-95371429D01*
X106327381Y-95180952D01*
X106375000Y-95085714D01*
X106470238Y-94990476D01*
X106660714Y-94942857D01*
X106994048Y-94942857D01*
X107184524Y-94990476D01*
X107279762Y-95085714D01*
X107327381Y-95180952D01*
X107327381Y-95371429D01*
X106327381Y-94038095D02*
X106327381Y-94514286D01*
X106803571Y-94561905D01*
X106755952Y-94514286D01*
X106708333Y-94419048D01*
X106708333Y-94180952D01*
X106755952Y-94085714D01*
X106803571Y-94038095D01*
X106898810Y-93990476D01*
X107136905Y-93990476D01*
X107232143Y-94038095D01*
X107279762Y-94085714D01*
X107327381Y-94180952D01*
X107327381Y-94419048D01*
X107279762Y-94514286D01*
X107232143Y-94561905D01*
X115360119Y-94895238D02*
X115312500Y-94990476D01*
X115217262Y-95085714D01*
X115074405Y-95228571D01*
X115026786Y-95323810D01*
X115026786Y-95419048D01*
X115264881Y-95371429D02*
X115217262Y-95466667D01*
X115122024Y-95561905D01*
X114931548Y-95609524D01*
X114598214Y-95609524D01*
X114407738Y-95561905D01*
X114312500Y-95466667D01*
X114264881Y-95371429D01*
X114264881Y-95180952D01*
X114312500Y-95085714D01*
X114407738Y-94990476D01*
X114598214Y-94942857D01*
X114931548Y-94942857D01*
X115122024Y-94990476D01*
X115217262Y-95085714D01*
X115264881Y-95180952D01*
X115264881Y-95371429D01*
X114264881Y-94085714D02*
X114264881Y-94276191D01*
X114312500Y-94371429D01*
X114360119Y-94419048D01*
X114502976Y-94514286D01*
X114693452Y-94561905D01*
X115074405Y-94561905D01*
X115169643Y-94514286D01*
X115217262Y-94466667D01*
X115264881Y-94371429D01*
X115264881Y-94180952D01*
X115217262Y-94085714D01*
X115169643Y-94038095D01*
X115074405Y-93990476D01*
X114836310Y-93990476D01*
X114741071Y-94038095D01*
X114693452Y-94085714D01*
X114645833Y-94180952D01*
X114645833Y-94371429D01*
X114693452Y-94466667D01*
X114741071Y-94514286D01*
X114836310Y-94561905D01*
X123297619Y-94895238D02*
X123250000Y-94990476D01*
X123154762Y-95085714D01*
X123011905Y-95228571D01*
X122964286Y-95323810D01*
X122964286Y-95419048D01*
X123202381Y-95371429D02*
X123154762Y-95466667D01*
X123059524Y-95561905D01*
X122869048Y-95609524D01*
X122535714Y-95609524D01*
X122345238Y-95561905D01*
X122250000Y-95466667D01*
X122202381Y-95371429D01*
X122202381Y-95180952D01*
X122250000Y-95085714D01*
X122345238Y-94990476D01*
X122535714Y-94942857D01*
X122869048Y-94942857D01*
X123059524Y-94990476D01*
X123154762Y-95085714D01*
X123202381Y-95180952D01*
X123202381Y-95371429D01*
X122202381Y-94609524D02*
X122202381Y-93942857D01*
X123202381Y-94371429D01*
X135822619Y-100070238D02*
X135775000Y-100165476D01*
X135679762Y-100260714D01*
X135536905Y-100403571D01*
X135489286Y-100498810D01*
X135489286Y-100594048D01*
X135727381Y-100546429D02*
X135679762Y-100641667D01*
X135584524Y-100736905D01*
X135394048Y-100784524D01*
X135060714Y-100784524D01*
X134870238Y-100736905D01*
X134775000Y-100641667D01*
X134727381Y-100546429D01*
X134727381Y-100355952D01*
X134775000Y-100260714D01*
X134870238Y-100165476D01*
X135060714Y-100117857D01*
X135394048Y-100117857D01*
X135584524Y-100165476D01*
X135679762Y-100260714D01*
X135727381Y-100355952D01*
X135727381Y-100546429D01*
X135155952Y-99546429D02*
X135108333Y-99641667D01*
X135060714Y-99689286D01*
X134965476Y-99736905D01*
X134917857Y-99736905D01*
X134822619Y-99689286D01*
X134775000Y-99641667D01*
X134727381Y-99546429D01*
X134727381Y-99355952D01*
X134775000Y-99260714D01*
X134822619Y-99213095D01*
X134917857Y-99165476D01*
X134965476Y-99165476D01*
X135060714Y-99213095D01*
X135108333Y-99260714D01*
X135155952Y-99355952D01*
X135155952Y-99546429D01*
X135203571Y-99641667D01*
X135251190Y-99689286D01*
X135346429Y-99736905D01*
X135536905Y-99736905D01*
X135632143Y-99689286D01*
X135679762Y-99641667D01*
X135727381Y-99546429D01*
X135727381Y-99355952D01*
X135679762Y-99260714D01*
X135632143Y-99213095D01*
X135536905Y-99165476D01*
X135346429Y-99165476D01*
X135251190Y-99213095D01*
X135203571Y-99260714D01*
X135155952Y-99355952D01*
X129408334Y-124602381D02*
X129075000Y-124126190D01*
X128836905Y-124602381D02*
X128836905Y-123602381D01*
X129217858Y-123602381D01*
X129313096Y-123650000D01*
X129360715Y-123697619D01*
X129408334Y-123792857D01*
X129408334Y-123935714D01*
X129360715Y-124030952D01*
X129313096Y-124078571D01*
X129217858Y-124126190D01*
X128836905Y-124126190D01*
X130360715Y-124602381D02*
X129789286Y-124602381D01*
X130075000Y-124602381D02*
X130075000Y-123602381D01*
X129979762Y-123745238D01*
X129884524Y-123840476D01*
X129789286Y-123888095D01*
X129358334Y-122252381D02*
X129025000Y-121776190D01*
X128786905Y-122252381D02*
X128786905Y-121252381D01*
X129167858Y-121252381D01*
X129263096Y-121300000D01*
X129310715Y-121347619D01*
X129358334Y-121442857D01*
X129358334Y-121585714D01*
X129310715Y-121680952D01*
X129263096Y-121728571D01*
X129167858Y-121776190D01*
X128786905Y-121776190D01*
X129739286Y-121347619D02*
X129786905Y-121300000D01*
X129882143Y-121252381D01*
X130120239Y-121252381D01*
X130215477Y-121300000D01*
X130263096Y-121347619D01*
X130310715Y-121442857D01*
X130310715Y-121538095D01*
X130263096Y-121680952D01*
X129691667Y-122252381D01*
X130310715Y-122252381D01*
X129283334Y-119752381D02*
X128950000Y-119276190D01*
X128711905Y-119752381D02*
X128711905Y-118752381D01*
X129092858Y-118752381D01*
X129188096Y-118800000D01*
X129235715Y-118847619D01*
X129283334Y-118942857D01*
X129283334Y-119085714D01*
X129235715Y-119180952D01*
X129188096Y-119228571D01*
X129092858Y-119276190D01*
X128711905Y-119276190D01*
X129616667Y-118752381D02*
X130235715Y-118752381D01*
X129902381Y-119133333D01*
X130045239Y-119133333D01*
X130140477Y-119180952D01*
X130188096Y-119228571D01*
X130235715Y-119323810D01*
X130235715Y-119561905D01*
X130188096Y-119657143D01*
X130140477Y-119704762D01*
X130045239Y-119752381D01*
X129759524Y-119752381D01*
X129664286Y-119704762D01*
X129616667Y-119657143D01*
X129283334Y-117477381D02*
X128950000Y-117001190D01*
X128711905Y-117477381D02*
X128711905Y-116477381D01*
X129092858Y-116477381D01*
X129188096Y-116525000D01*
X129235715Y-116572619D01*
X129283334Y-116667857D01*
X129283334Y-116810714D01*
X129235715Y-116905952D01*
X129188096Y-116953571D01*
X129092858Y-117001190D01*
X128711905Y-117001190D01*
X130140477Y-116810714D02*
X130140477Y-117477381D01*
X129902381Y-116429762D02*
X129664286Y-117144048D01*
X130283334Y-117144048D01*
X129408334Y-114952381D02*
X129075000Y-114476190D01*
X128836905Y-114952381D02*
X128836905Y-113952381D01*
X129217858Y-113952381D01*
X129313096Y-114000000D01*
X129360715Y-114047619D01*
X129408334Y-114142857D01*
X129408334Y-114285714D01*
X129360715Y-114380952D01*
X129313096Y-114428571D01*
X129217858Y-114476190D01*
X128836905Y-114476190D01*
X130313096Y-113952381D02*
X129836905Y-113952381D01*
X129789286Y-114428571D01*
X129836905Y-114380952D01*
X129932143Y-114333333D01*
X130170239Y-114333333D01*
X130265477Y-114380952D01*
X130313096Y-114428571D01*
X130360715Y-114523810D01*
X130360715Y-114761905D01*
X130313096Y-114857143D01*
X130265477Y-114904762D01*
X130170239Y-114952381D01*
X129932143Y-114952381D01*
X129836905Y-114904762D01*
X129789286Y-114857143D01*
X129308334Y-112702381D02*
X128975000Y-112226190D01*
X128736905Y-112702381D02*
X128736905Y-111702381D01*
X129117858Y-111702381D01*
X129213096Y-111750000D01*
X129260715Y-111797619D01*
X129308334Y-111892857D01*
X129308334Y-112035714D01*
X129260715Y-112130952D01*
X129213096Y-112178571D01*
X129117858Y-112226190D01*
X128736905Y-112226190D01*
X130165477Y-111702381D02*
X129975000Y-111702381D01*
X129879762Y-111750000D01*
X129832143Y-111797619D01*
X129736905Y-111940476D01*
X129689286Y-112130952D01*
X129689286Y-112511905D01*
X129736905Y-112607143D01*
X129784524Y-112654762D01*
X129879762Y-112702381D01*
X130070239Y-112702381D01*
X130165477Y-112654762D01*
X130213096Y-112607143D01*
X130260715Y-112511905D01*
X130260715Y-112273810D01*
X130213096Y-112178571D01*
X130165477Y-112130952D01*
X130070239Y-112083333D01*
X129879762Y-112083333D01*
X129784524Y-112130952D01*
X129736905Y-112178571D01*
X129689286Y-112273810D01*
X92777381Y-130641666D02*
X92301190Y-130975000D01*
X92777381Y-131213095D02*
X91777381Y-131213095D01*
X91777381Y-130832142D01*
X91825000Y-130736904D01*
X91872619Y-130689285D01*
X91967857Y-130641666D01*
X92110714Y-130641666D01*
X92205952Y-130689285D01*
X92253571Y-130736904D01*
X92301190Y-130832142D01*
X92301190Y-131213095D01*
X91777381Y-130308333D02*
X91777381Y-129641666D01*
X92777381Y-130070238D01*
X91327381Y-130641666D02*
X90851190Y-130975000D01*
X91327381Y-131213095D02*
X90327381Y-131213095D01*
X90327381Y-130832142D01*
X90375000Y-130736904D01*
X90422619Y-130689285D01*
X90517857Y-130641666D01*
X90660714Y-130641666D01*
X90755952Y-130689285D01*
X90803571Y-130736904D01*
X90851190Y-130832142D01*
X90851190Y-131213095D01*
X90755952Y-130070238D02*
X90708333Y-130165476D01*
X90660714Y-130213095D01*
X90565476Y-130260714D01*
X90517857Y-130260714D01*
X90422619Y-130213095D01*
X90375000Y-130165476D01*
X90327381Y-130070238D01*
X90327381Y-129879761D01*
X90375000Y-129784523D01*
X90422619Y-129736904D01*
X90517857Y-129689285D01*
X90565476Y-129689285D01*
X90660714Y-129736904D01*
X90708333Y-129784523D01*
X90755952Y-129879761D01*
X90755952Y-130070238D01*
X90803571Y-130165476D01*
X90851190Y-130213095D01*
X90946429Y-130260714D01*
X91136905Y-130260714D01*
X91232143Y-130213095D01*
X91279762Y-130165476D01*
X91327381Y-130070238D01*
X91327381Y-129879761D01*
X91279762Y-129784523D01*
X91232143Y-129736904D01*
X91136905Y-129689285D01*
X90946429Y-129689285D01*
X90851190Y-129736904D01*
X90803571Y-129784523D01*
X90755952Y-129879761D01*
X90027381Y-130641666D02*
X89551190Y-130975000D01*
X90027381Y-131213095D02*
X89027381Y-131213095D01*
X89027381Y-130832142D01*
X89075000Y-130736904D01*
X89122619Y-130689285D01*
X89217857Y-130641666D01*
X89360714Y-130641666D01*
X89455952Y-130689285D01*
X89503571Y-130736904D01*
X89551190Y-130832142D01*
X89551190Y-131213095D01*
X90027381Y-130165476D02*
X90027381Y-129975000D01*
X89979762Y-129879761D01*
X89932143Y-129832142D01*
X89789286Y-129736904D01*
X89598810Y-129689285D01*
X89217857Y-129689285D01*
X89122619Y-129736904D01*
X89075000Y-129784523D01*
X89027381Y-129879761D01*
X89027381Y-130070238D01*
X89075000Y-130165476D01*
X89122619Y-130213095D01*
X89217857Y-130260714D01*
X89455952Y-130260714D01*
X89551190Y-130213095D01*
X89598810Y-130165476D01*
X89646429Y-130070238D01*
X89646429Y-129879761D01*
X89598810Y-129784523D01*
X89551190Y-129736904D01*
X89455952Y-129689285D01*
X121387143Y-131017381D02*
X121053809Y-130541190D01*
X120815714Y-131017381D02*
X120815714Y-130017381D01*
X121196667Y-130017381D01*
X121291905Y-130065000D01*
X121339524Y-130112619D01*
X121387143Y-130207857D01*
X121387143Y-130350714D01*
X121339524Y-130445952D01*
X121291905Y-130493571D01*
X121196667Y-130541190D01*
X120815714Y-130541190D01*
X122339524Y-131017381D02*
X121768095Y-131017381D01*
X122053809Y-131017381D02*
X122053809Y-130017381D01*
X121958571Y-130160238D01*
X121863333Y-130255476D01*
X121768095Y-130303095D01*
X122720476Y-130112619D02*
X122768095Y-130065000D01*
X122863333Y-130017381D01*
X123101429Y-130017381D01*
X123196667Y-130065000D01*
X123244286Y-130112619D01*
X123291905Y-130207857D01*
X123291905Y-130303095D01*
X123244286Y-130445952D01*
X122672857Y-131017381D01*
X123291905Y-131017381D01*
X66307143Y-126027381D02*
X65973809Y-125551190D01*
X65735714Y-126027381D02*
X65735714Y-125027381D01*
X66116667Y-125027381D01*
X66211905Y-125075000D01*
X66259524Y-125122619D01*
X66307143Y-125217857D01*
X66307143Y-125360714D01*
X66259524Y-125455952D01*
X66211905Y-125503571D01*
X66116667Y-125551190D01*
X65735714Y-125551190D01*
X67259524Y-126027381D02*
X66688095Y-126027381D01*
X66973809Y-126027381D02*
X66973809Y-125027381D01*
X66878571Y-125170238D01*
X66783333Y-125265476D01*
X66688095Y-125313095D01*
X68116667Y-125360714D02*
X68116667Y-126027381D01*
X67878571Y-124979762D02*
X67640476Y-125694048D01*
X68259524Y-125694048D01*
X68557143Y-132502381D02*
X68223809Y-132026190D01*
X67985714Y-132502381D02*
X67985714Y-131502381D01*
X68366667Y-131502381D01*
X68461905Y-131550000D01*
X68509524Y-131597619D01*
X68557143Y-131692857D01*
X68557143Y-131835714D01*
X68509524Y-131930952D01*
X68461905Y-131978571D01*
X68366667Y-132026190D01*
X67985714Y-132026190D01*
X69509524Y-132502381D02*
X68938095Y-132502381D01*
X69223809Y-132502381D02*
X69223809Y-131502381D01*
X69128571Y-131645238D01*
X69033333Y-131740476D01*
X68938095Y-131788095D01*
X70414286Y-131502381D02*
X69938095Y-131502381D01*
X69890476Y-131978571D01*
X69938095Y-131930952D01*
X70033333Y-131883333D01*
X70271429Y-131883333D01*
X70366667Y-131930952D01*
X70414286Y-131978571D01*
X70461905Y-132073810D01*
X70461905Y-132311905D01*
X70414286Y-132407143D01*
X70366667Y-132454762D01*
X70271429Y-132502381D01*
X70033333Y-132502381D01*
X69938095Y-132454762D01*
X69890476Y-132407143D01*
X61352381Y-123592857D02*
X60876190Y-123926191D01*
X61352381Y-124164286D02*
X60352381Y-124164286D01*
X60352381Y-123783333D01*
X60400000Y-123688095D01*
X60447619Y-123640476D01*
X60542857Y-123592857D01*
X60685714Y-123592857D01*
X60780952Y-123640476D01*
X60828571Y-123688095D01*
X60876190Y-123783333D01*
X60876190Y-124164286D01*
X61352381Y-122640476D02*
X61352381Y-123211905D01*
X61352381Y-122926191D02*
X60352381Y-122926191D01*
X60495238Y-123021429D01*
X60590476Y-123116667D01*
X60638095Y-123211905D01*
X60352381Y-121783333D02*
X60352381Y-121973810D01*
X60400000Y-122069048D01*
X60447619Y-122116667D01*
X60590476Y-122211905D01*
X60780952Y-122259524D01*
X61161905Y-122259524D01*
X61257143Y-122211905D01*
X61304762Y-122164286D01*
X61352381Y-122069048D01*
X61352381Y-121878571D01*
X61304762Y-121783333D01*
X61257143Y-121735714D01*
X61161905Y-121688095D01*
X60923810Y-121688095D01*
X60828571Y-121735714D01*
X60780952Y-121783333D01*
X60733333Y-121878571D01*
X60733333Y-122069048D01*
X60780952Y-122164286D01*
X60828571Y-122211905D01*
X60923810Y-122259524D01*
X61352381Y-118542857D02*
X60876190Y-118876191D01*
X61352381Y-119114286D02*
X60352381Y-119114286D01*
X60352381Y-118733333D01*
X60400000Y-118638095D01*
X60447619Y-118590476D01*
X60542857Y-118542857D01*
X60685714Y-118542857D01*
X60780952Y-118590476D01*
X60828571Y-118638095D01*
X60876190Y-118733333D01*
X60876190Y-119114286D01*
X61352381Y-117590476D02*
X61352381Y-118161905D01*
X61352381Y-117876191D02*
X60352381Y-117876191D01*
X60495238Y-117971429D01*
X60590476Y-118066667D01*
X60638095Y-118161905D01*
X60352381Y-117257143D02*
X60352381Y-116590476D01*
X61352381Y-117019048D01*
X97532143Y-102977381D02*
X97198809Y-102501190D01*
X96960714Y-102977381D02*
X96960714Y-101977381D01*
X97341667Y-101977381D01*
X97436905Y-102025000D01*
X97484524Y-102072619D01*
X97532143Y-102167857D01*
X97532143Y-102310714D01*
X97484524Y-102405952D01*
X97436905Y-102453571D01*
X97341667Y-102501190D01*
X96960714Y-102501190D01*
X98484524Y-102977381D02*
X97913095Y-102977381D01*
X98198809Y-102977381D02*
X98198809Y-101977381D01*
X98103571Y-102120238D01*
X98008333Y-102215476D01*
X97913095Y-102263095D01*
X99055952Y-102405952D02*
X98960714Y-102358333D01*
X98913095Y-102310714D01*
X98865476Y-102215476D01*
X98865476Y-102167857D01*
X98913095Y-102072619D01*
X98960714Y-102025000D01*
X99055952Y-101977381D01*
X99246429Y-101977381D01*
X99341667Y-102025000D01*
X99389286Y-102072619D01*
X99436905Y-102167857D01*
X99436905Y-102215476D01*
X99389286Y-102310714D01*
X99341667Y-102358333D01*
X99246429Y-102405952D01*
X99055952Y-102405952D01*
X98960714Y-102453571D01*
X98913095Y-102501190D01*
X98865476Y-102596429D01*
X98865476Y-102786905D01*
X98913095Y-102882143D01*
X98960714Y-102929762D01*
X99055952Y-102977381D01*
X99246429Y-102977381D01*
X99341667Y-102929762D01*
X99389286Y-102882143D01*
X99436905Y-102786905D01*
X99436905Y-102596429D01*
X99389286Y-102501190D01*
X99341667Y-102453571D01*
X99246429Y-102405952D01*
X100877381Y-110342857D02*
X100401190Y-110676191D01*
X100877381Y-110914286D02*
X99877381Y-110914286D01*
X99877381Y-110533333D01*
X99925000Y-110438095D01*
X99972619Y-110390476D01*
X100067857Y-110342857D01*
X100210714Y-110342857D01*
X100305952Y-110390476D01*
X100353571Y-110438095D01*
X100401190Y-110533333D01*
X100401190Y-110914286D01*
X100877381Y-109390476D02*
X100877381Y-109961905D01*
X100877381Y-109676191D02*
X99877381Y-109676191D01*
X100020238Y-109771429D01*
X100115476Y-109866667D01*
X100163095Y-109961905D01*
X100877381Y-108914286D02*
X100877381Y-108723810D01*
X100829762Y-108628571D01*
X100782143Y-108580952D01*
X100639286Y-108485714D01*
X100448810Y-108438095D01*
X100067857Y-108438095D01*
X99972619Y-108485714D01*
X99925000Y-108533333D01*
X99877381Y-108628571D01*
X99877381Y-108819048D01*
X99925000Y-108914286D01*
X99972619Y-108961905D01*
X100067857Y-109009524D01*
X100305952Y-109009524D01*
X100401190Y-108961905D01*
X100448810Y-108914286D01*
X100496429Y-108819048D01*
X100496429Y-108628571D01*
X100448810Y-108533333D01*
X100401190Y-108485714D01*
X100305952Y-108438095D01*
X97582143Y-100477381D02*
X97248809Y-100001190D01*
X97010714Y-100477381D02*
X97010714Y-99477381D01*
X97391667Y-99477381D01*
X97486905Y-99525000D01*
X97534524Y-99572619D01*
X97582143Y-99667857D01*
X97582143Y-99810714D01*
X97534524Y-99905952D01*
X97486905Y-99953571D01*
X97391667Y-100001190D01*
X97010714Y-100001190D01*
X97963095Y-99572619D02*
X98010714Y-99525000D01*
X98105952Y-99477381D01*
X98344048Y-99477381D01*
X98439286Y-99525000D01*
X98486905Y-99572619D01*
X98534524Y-99667857D01*
X98534524Y-99763095D01*
X98486905Y-99905952D01*
X97915476Y-100477381D01*
X98534524Y-100477381D01*
X99153571Y-99477381D02*
X99248810Y-99477381D01*
X99344048Y-99525000D01*
X99391667Y-99572619D01*
X99439286Y-99667857D01*
X99486905Y-99858333D01*
X99486905Y-100096429D01*
X99439286Y-100286905D01*
X99391667Y-100382143D01*
X99344048Y-100429762D01*
X99248810Y-100477381D01*
X99153571Y-100477381D01*
X99058333Y-100429762D01*
X99010714Y-100382143D01*
X98963095Y-100286905D01*
X98915476Y-100096429D01*
X98915476Y-99858333D01*
X98963095Y-99667857D01*
X99010714Y-99572619D01*
X99058333Y-99525000D01*
X99153571Y-99477381D01*
X99552381Y-110292857D02*
X99076190Y-110626191D01*
X99552381Y-110864286D02*
X98552381Y-110864286D01*
X98552381Y-110483333D01*
X98600000Y-110388095D01*
X98647619Y-110340476D01*
X98742857Y-110292857D01*
X98885714Y-110292857D01*
X98980952Y-110340476D01*
X99028571Y-110388095D01*
X99076190Y-110483333D01*
X99076190Y-110864286D01*
X98647619Y-109911905D02*
X98600000Y-109864286D01*
X98552381Y-109769048D01*
X98552381Y-109530952D01*
X98600000Y-109435714D01*
X98647619Y-109388095D01*
X98742857Y-109340476D01*
X98838095Y-109340476D01*
X98980952Y-109388095D01*
X99552381Y-109959524D01*
X99552381Y-109340476D01*
X99552381Y-108388095D02*
X99552381Y-108959524D01*
X99552381Y-108673810D02*
X98552381Y-108673810D01*
X98695238Y-108769048D01*
X98790476Y-108864286D01*
X98838095Y-108959524D01*
X105582143Y-102977381D02*
X105248809Y-102501190D01*
X105010714Y-102977381D02*
X105010714Y-101977381D01*
X105391667Y-101977381D01*
X105486905Y-102025000D01*
X105534524Y-102072619D01*
X105582143Y-102167857D01*
X105582143Y-102310714D01*
X105534524Y-102405952D01*
X105486905Y-102453571D01*
X105391667Y-102501190D01*
X105010714Y-102501190D01*
X105963095Y-102072619D02*
X106010714Y-102025000D01*
X106105952Y-101977381D01*
X106344048Y-101977381D01*
X106439286Y-102025000D01*
X106486905Y-102072619D01*
X106534524Y-102167857D01*
X106534524Y-102263095D01*
X106486905Y-102405952D01*
X105915476Y-102977381D01*
X106534524Y-102977381D01*
X106915476Y-102072619D02*
X106963095Y-102025000D01*
X107058333Y-101977381D01*
X107296429Y-101977381D01*
X107391667Y-102025000D01*
X107439286Y-102072619D01*
X107486905Y-102167857D01*
X107486905Y-102263095D01*
X107439286Y-102405952D01*
X106867857Y-102977381D01*
X107486905Y-102977381D01*
X105507143Y-100627381D02*
X105173809Y-100151190D01*
X104935714Y-100627381D02*
X104935714Y-99627381D01*
X105316667Y-99627381D01*
X105411905Y-99675000D01*
X105459524Y-99722619D01*
X105507143Y-99817857D01*
X105507143Y-99960714D01*
X105459524Y-100055952D01*
X105411905Y-100103571D01*
X105316667Y-100151190D01*
X104935714Y-100151190D01*
X105888095Y-99722619D02*
X105935714Y-99675000D01*
X106030952Y-99627381D01*
X106269048Y-99627381D01*
X106364286Y-99675000D01*
X106411905Y-99722619D01*
X106459524Y-99817857D01*
X106459524Y-99913095D01*
X106411905Y-100055952D01*
X105840476Y-100627381D01*
X106459524Y-100627381D01*
X106792857Y-99627381D02*
X107411905Y-99627381D01*
X107078571Y-100008333D01*
X107221429Y-100008333D01*
X107316667Y-100055952D01*
X107364286Y-100103571D01*
X107411905Y-100198810D01*
X107411905Y-100436905D01*
X107364286Y-100532143D01*
X107316667Y-100579762D01*
X107221429Y-100627381D01*
X106935714Y-100627381D01*
X106840476Y-100579762D01*
X106792857Y-100532143D01*
X143757143Y-114352381D02*
X143423809Y-113876190D01*
X143185714Y-114352381D02*
X143185714Y-113352381D01*
X143566667Y-113352381D01*
X143661905Y-113400000D01*
X143709524Y-113447619D01*
X143757143Y-113542857D01*
X143757143Y-113685714D01*
X143709524Y-113780952D01*
X143661905Y-113828571D01*
X143566667Y-113876190D01*
X143185714Y-113876190D01*
X144138095Y-113447619D02*
X144185714Y-113400000D01*
X144280952Y-113352381D01*
X144519048Y-113352381D01*
X144614286Y-113400000D01*
X144661905Y-113447619D01*
X144709524Y-113542857D01*
X144709524Y-113638095D01*
X144661905Y-113780952D01*
X144090476Y-114352381D01*
X144709524Y-114352381D01*
X145566667Y-113685714D02*
X145566667Y-114352381D01*
X145328571Y-113304762D02*
X145090476Y-114019048D01*
X145709524Y-114019048D01*
X143757143Y-117627381D02*
X143423809Y-117151190D01*
X143185714Y-117627381D02*
X143185714Y-116627381D01*
X143566667Y-116627381D01*
X143661905Y-116675000D01*
X143709524Y-116722619D01*
X143757143Y-116817857D01*
X143757143Y-116960714D01*
X143709524Y-117055952D01*
X143661905Y-117103571D01*
X143566667Y-117151190D01*
X143185714Y-117151190D01*
X144138095Y-116722619D02*
X144185714Y-116675000D01*
X144280952Y-116627381D01*
X144519048Y-116627381D01*
X144614286Y-116675000D01*
X144661905Y-116722619D01*
X144709524Y-116817857D01*
X144709524Y-116913095D01*
X144661905Y-117055952D01*
X144090476Y-117627381D01*
X144709524Y-117627381D01*
X145614286Y-116627381D02*
X145138095Y-116627381D01*
X145090476Y-117103571D01*
X145138095Y-117055952D01*
X145233333Y-117008333D01*
X145471429Y-117008333D01*
X145566667Y-117055952D01*
X145614286Y-117103571D01*
X145661905Y-117198810D01*
X145661905Y-117436905D01*
X145614286Y-117532143D01*
X145566667Y-117579762D01*
X145471429Y-117627381D01*
X145233333Y-117627381D01*
X145138095Y-117579762D01*
X145090476Y-117532143D01*
X143707143Y-120852381D02*
X143373809Y-120376190D01*
X143135714Y-120852381D02*
X143135714Y-119852381D01*
X143516667Y-119852381D01*
X143611905Y-119900000D01*
X143659524Y-119947619D01*
X143707143Y-120042857D01*
X143707143Y-120185714D01*
X143659524Y-120280952D01*
X143611905Y-120328571D01*
X143516667Y-120376190D01*
X143135714Y-120376190D01*
X144088095Y-119947619D02*
X144135714Y-119900000D01*
X144230952Y-119852381D01*
X144469048Y-119852381D01*
X144564286Y-119900000D01*
X144611905Y-119947619D01*
X144659524Y-120042857D01*
X144659524Y-120138095D01*
X144611905Y-120280952D01*
X144040476Y-120852381D01*
X144659524Y-120852381D01*
X145516667Y-119852381D02*
X145326190Y-119852381D01*
X145230952Y-119900000D01*
X145183333Y-119947619D01*
X145088095Y-120090476D01*
X145040476Y-120280952D01*
X145040476Y-120661905D01*
X145088095Y-120757143D01*
X145135714Y-120804762D01*
X145230952Y-120852381D01*
X145421429Y-120852381D01*
X145516667Y-120804762D01*
X145564286Y-120757143D01*
X145611905Y-120661905D01*
X145611905Y-120423810D01*
X145564286Y-120328571D01*
X145516667Y-120280952D01*
X145421429Y-120233333D01*
X145230952Y-120233333D01*
X145135714Y-120280952D01*
X145088095Y-120328571D01*
X145040476Y-120423810D01*
X113632143Y-103052381D02*
X113298809Y-102576190D01*
X113060714Y-103052381D02*
X113060714Y-102052381D01*
X113441667Y-102052381D01*
X113536905Y-102100000D01*
X113584524Y-102147619D01*
X113632143Y-102242857D01*
X113632143Y-102385714D01*
X113584524Y-102480952D01*
X113536905Y-102528571D01*
X113441667Y-102576190D01*
X113060714Y-102576190D01*
X114013095Y-102147619D02*
X114060714Y-102100000D01*
X114155952Y-102052381D01*
X114394048Y-102052381D01*
X114489286Y-102100000D01*
X114536905Y-102147619D01*
X114584524Y-102242857D01*
X114584524Y-102338095D01*
X114536905Y-102480952D01*
X113965476Y-103052381D01*
X114584524Y-103052381D01*
X114917857Y-102052381D02*
X115584524Y-102052381D01*
X115155952Y-103052381D01*
X138757143Y-120877381D02*
X138423809Y-120401190D01*
X138185714Y-120877381D02*
X138185714Y-119877381D01*
X138566667Y-119877381D01*
X138661905Y-119925000D01*
X138709524Y-119972619D01*
X138757143Y-120067857D01*
X138757143Y-120210714D01*
X138709524Y-120305952D01*
X138661905Y-120353571D01*
X138566667Y-120401190D01*
X138185714Y-120401190D01*
X139138095Y-119972619D02*
X139185714Y-119925000D01*
X139280952Y-119877381D01*
X139519048Y-119877381D01*
X139614286Y-119925000D01*
X139661905Y-119972619D01*
X139709524Y-120067857D01*
X139709524Y-120163095D01*
X139661905Y-120305952D01*
X139090476Y-120877381D01*
X139709524Y-120877381D01*
X140280952Y-120305952D02*
X140185714Y-120258333D01*
X140138095Y-120210714D01*
X140090476Y-120115476D01*
X140090476Y-120067857D01*
X140138095Y-119972619D01*
X140185714Y-119925000D01*
X140280952Y-119877381D01*
X140471429Y-119877381D01*
X140566667Y-119925000D01*
X140614286Y-119972619D01*
X140661905Y-120067857D01*
X140661905Y-120115476D01*
X140614286Y-120210714D01*
X140566667Y-120258333D01*
X140471429Y-120305952D01*
X140280952Y-120305952D01*
X140185714Y-120353571D01*
X140138095Y-120401190D01*
X140090476Y-120496429D01*
X140090476Y-120686905D01*
X140138095Y-120782143D01*
X140185714Y-120829762D01*
X140280952Y-120877381D01*
X140471429Y-120877381D01*
X140566667Y-120829762D01*
X140614286Y-120782143D01*
X140661905Y-120686905D01*
X140661905Y-120496429D01*
X140614286Y-120401190D01*
X140566667Y-120353571D01*
X140471429Y-120305952D01*
X138657143Y-117627381D02*
X138323809Y-117151190D01*
X138085714Y-117627381D02*
X138085714Y-116627381D01*
X138466667Y-116627381D01*
X138561905Y-116675000D01*
X138609524Y-116722619D01*
X138657143Y-116817857D01*
X138657143Y-116960714D01*
X138609524Y-117055952D01*
X138561905Y-117103571D01*
X138466667Y-117151190D01*
X138085714Y-117151190D01*
X139038095Y-116722619D02*
X139085714Y-116675000D01*
X139180952Y-116627381D01*
X139419048Y-116627381D01*
X139514286Y-116675000D01*
X139561905Y-116722619D01*
X139609524Y-116817857D01*
X139609524Y-116913095D01*
X139561905Y-117055952D01*
X138990476Y-117627381D01*
X139609524Y-117627381D01*
X140085714Y-117627381D02*
X140276190Y-117627381D01*
X140371429Y-117579762D01*
X140419048Y-117532143D01*
X140514286Y-117389286D01*
X140561905Y-117198810D01*
X140561905Y-116817857D01*
X140514286Y-116722619D01*
X140466667Y-116675000D01*
X140371429Y-116627381D01*
X140180952Y-116627381D01*
X140085714Y-116675000D01*
X140038095Y-116722619D01*
X139990476Y-116817857D01*
X139990476Y-117055952D01*
X140038095Y-117151190D01*
X140085714Y-117198810D01*
X140180952Y-117246429D01*
X140371429Y-117246429D01*
X140466667Y-117198810D01*
X140514286Y-117151190D01*
X140561905Y-117055952D01*
X138757143Y-114427381D02*
X138423809Y-113951190D01*
X138185714Y-114427381D02*
X138185714Y-113427381D01*
X138566667Y-113427381D01*
X138661905Y-113475000D01*
X138709524Y-113522619D01*
X138757143Y-113617857D01*
X138757143Y-113760714D01*
X138709524Y-113855952D01*
X138661905Y-113903571D01*
X138566667Y-113951190D01*
X138185714Y-113951190D01*
X139090476Y-113427381D02*
X139709524Y-113427381D01*
X139376190Y-113808333D01*
X139519048Y-113808333D01*
X139614286Y-113855952D01*
X139661905Y-113903571D01*
X139709524Y-113998810D01*
X139709524Y-114236905D01*
X139661905Y-114332143D01*
X139614286Y-114379762D01*
X139519048Y-114427381D01*
X139233333Y-114427381D01*
X139138095Y-114379762D01*
X139090476Y-114332143D01*
X140328571Y-113427381D02*
X140423810Y-113427381D01*
X140519048Y-113475000D01*
X140566667Y-113522619D01*
X140614286Y-113617857D01*
X140661905Y-113808333D01*
X140661905Y-114046429D01*
X140614286Y-114236905D01*
X140566667Y-114332143D01*
X140519048Y-114379762D01*
X140423810Y-114427381D01*
X140328571Y-114427381D01*
X140233333Y-114379762D01*
X140185714Y-114332143D01*
X140138095Y-114236905D01*
X140090476Y-114046429D01*
X140090476Y-113808333D01*
X140138095Y-113617857D01*
X140185714Y-113522619D01*
X140233333Y-113475000D01*
X140328571Y-113427381D01*
X113582143Y-100627381D02*
X113248809Y-100151190D01*
X113010714Y-100627381D02*
X113010714Y-99627381D01*
X113391667Y-99627381D01*
X113486905Y-99675000D01*
X113534524Y-99722619D01*
X113582143Y-99817857D01*
X113582143Y-99960714D01*
X113534524Y-100055952D01*
X113486905Y-100103571D01*
X113391667Y-100151190D01*
X113010714Y-100151190D01*
X113915476Y-99627381D02*
X114534524Y-99627381D01*
X114201190Y-100008333D01*
X114344048Y-100008333D01*
X114439286Y-100055952D01*
X114486905Y-100103571D01*
X114534524Y-100198810D01*
X114534524Y-100436905D01*
X114486905Y-100532143D01*
X114439286Y-100579762D01*
X114344048Y-100627381D01*
X114058333Y-100627381D01*
X113963095Y-100579762D01*
X113915476Y-100532143D01*
X115486905Y-100627381D02*
X114915476Y-100627381D01*
X115201190Y-100627381D02*
X115201190Y-99627381D01*
X115105952Y-99770238D01*
X115010714Y-99865476D01*
X114915476Y-99913095D01*
X119507143Y-106002381D02*
X119173809Y-105526190D01*
X118935714Y-106002381D02*
X118935714Y-105002381D01*
X119316667Y-105002381D01*
X119411905Y-105050000D01*
X119459524Y-105097619D01*
X119507143Y-105192857D01*
X119507143Y-105335714D01*
X119459524Y-105430952D01*
X119411905Y-105478571D01*
X119316667Y-105526190D01*
X118935714Y-105526190D01*
X119840476Y-105002381D02*
X120459524Y-105002381D01*
X120126190Y-105383333D01*
X120269048Y-105383333D01*
X120364286Y-105430952D01*
X120411905Y-105478571D01*
X120459524Y-105573810D01*
X120459524Y-105811905D01*
X120411905Y-105907143D01*
X120364286Y-105954762D01*
X120269048Y-106002381D01*
X119983333Y-106002381D01*
X119888095Y-105954762D01*
X119840476Y-105907143D01*
X120840476Y-105097619D02*
X120888095Y-105050000D01*
X120983333Y-105002381D01*
X121221429Y-105002381D01*
X121316667Y-105050000D01*
X121364286Y-105097619D01*
X121411905Y-105192857D01*
X121411905Y-105288095D01*
X121364286Y-105430952D01*
X120792857Y-106002381D01*
X121411905Y-106002381D01*
X119507143Y-104702381D02*
X119173809Y-104226190D01*
X118935714Y-104702381D02*
X118935714Y-103702381D01*
X119316667Y-103702381D01*
X119411905Y-103750000D01*
X119459524Y-103797619D01*
X119507143Y-103892857D01*
X119507143Y-104035714D01*
X119459524Y-104130952D01*
X119411905Y-104178571D01*
X119316667Y-104226190D01*
X118935714Y-104226190D01*
X119840476Y-103702381D02*
X120459524Y-103702381D01*
X120126190Y-104083333D01*
X120269048Y-104083333D01*
X120364286Y-104130952D01*
X120411905Y-104178571D01*
X120459524Y-104273810D01*
X120459524Y-104511905D01*
X120411905Y-104607143D01*
X120364286Y-104654762D01*
X120269048Y-104702381D01*
X119983333Y-104702381D01*
X119888095Y-104654762D01*
X119840476Y-104607143D01*
X120792857Y-103702381D02*
X121411905Y-103702381D01*
X121078571Y-104083333D01*
X121221429Y-104083333D01*
X121316667Y-104130952D01*
X121364286Y-104178571D01*
X121411905Y-104273810D01*
X121411905Y-104511905D01*
X121364286Y-104607143D01*
X121316667Y-104654762D01*
X121221429Y-104702381D01*
X120935714Y-104702381D01*
X120840476Y-104654762D01*
X120792857Y-104607143D01*
X148707143Y-111127381D02*
X148373809Y-110651190D01*
X148135714Y-111127381D02*
X148135714Y-110127381D01*
X148516667Y-110127381D01*
X148611905Y-110175000D01*
X148659524Y-110222619D01*
X148707143Y-110317857D01*
X148707143Y-110460714D01*
X148659524Y-110555952D01*
X148611905Y-110603571D01*
X148516667Y-110651190D01*
X148135714Y-110651190D01*
X149040476Y-110127381D02*
X149659524Y-110127381D01*
X149326190Y-110508333D01*
X149469048Y-110508333D01*
X149564286Y-110555952D01*
X149611905Y-110603571D01*
X149659524Y-110698810D01*
X149659524Y-110936905D01*
X149611905Y-111032143D01*
X149564286Y-111079762D01*
X149469048Y-111127381D01*
X149183333Y-111127381D01*
X149088095Y-111079762D01*
X149040476Y-111032143D01*
X150516667Y-110460714D02*
X150516667Y-111127381D01*
X150278571Y-110079762D02*
X150040476Y-110794048D01*
X150659524Y-110794048D01*
X148782143Y-109777381D02*
X148448809Y-109301190D01*
X148210714Y-109777381D02*
X148210714Y-108777381D01*
X148591667Y-108777381D01*
X148686905Y-108825000D01*
X148734524Y-108872619D01*
X148782143Y-108967857D01*
X148782143Y-109110714D01*
X148734524Y-109205952D01*
X148686905Y-109253571D01*
X148591667Y-109301190D01*
X148210714Y-109301190D01*
X149115476Y-108777381D02*
X149734524Y-108777381D01*
X149401190Y-109158333D01*
X149544048Y-109158333D01*
X149639286Y-109205952D01*
X149686905Y-109253571D01*
X149734524Y-109348810D01*
X149734524Y-109586905D01*
X149686905Y-109682143D01*
X149639286Y-109729762D01*
X149544048Y-109777381D01*
X149258333Y-109777381D01*
X149163095Y-109729762D01*
X149115476Y-109682143D01*
X150639286Y-108777381D02*
X150163095Y-108777381D01*
X150115476Y-109253571D01*
X150163095Y-109205952D01*
X150258333Y-109158333D01*
X150496429Y-109158333D01*
X150591667Y-109205952D01*
X150639286Y-109253571D01*
X150686905Y-109348810D01*
X150686905Y-109586905D01*
X150639286Y-109682143D01*
X150591667Y-109729762D01*
X150496429Y-109777381D01*
X150258333Y-109777381D01*
X150163095Y-109729762D01*
X150115476Y-109682143D01*
X132957143Y-98827381D02*
X132623809Y-98351190D01*
X132385714Y-98827381D02*
X132385714Y-97827381D01*
X132766667Y-97827381D01*
X132861905Y-97875000D01*
X132909524Y-97922619D01*
X132957143Y-98017857D01*
X132957143Y-98160714D01*
X132909524Y-98255952D01*
X132861905Y-98303571D01*
X132766667Y-98351190D01*
X132385714Y-98351190D01*
X133290476Y-97827381D02*
X133909524Y-97827381D01*
X133576190Y-98208333D01*
X133719048Y-98208333D01*
X133814286Y-98255952D01*
X133861905Y-98303571D01*
X133909524Y-98398810D01*
X133909524Y-98636905D01*
X133861905Y-98732143D01*
X133814286Y-98779762D01*
X133719048Y-98827381D01*
X133433333Y-98827381D01*
X133338095Y-98779762D01*
X133290476Y-98732143D01*
X134766667Y-97827381D02*
X134576190Y-97827381D01*
X134480952Y-97875000D01*
X134433333Y-97922619D01*
X134338095Y-98065476D01*
X134290476Y-98255952D01*
X134290476Y-98636905D01*
X134338095Y-98732143D01*
X134385714Y-98779762D01*
X134480952Y-98827381D01*
X134671429Y-98827381D01*
X134766667Y-98779762D01*
X134814286Y-98732143D01*
X134861905Y-98636905D01*
X134861905Y-98398810D01*
X134814286Y-98303571D01*
X134766667Y-98255952D01*
X134671429Y-98208333D01*
X134480952Y-98208333D01*
X134385714Y-98255952D01*
X134338095Y-98303571D01*
X134290476Y-98398810D01*
X142102381Y-101967857D02*
X141626190Y-102301191D01*
X142102381Y-102539286D02*
X141102381Y-102539286D01*
X141102381Y-102158333D01*
X141150000Y-102063095D01*
X141197619Y-102015476D01*
X141292857Y-101967857D01*
X141435714Y-101967857D01*
X141530952Y-102015476D01*
X141578571Y-102063095D01*
X141626190Y-102158333D01*
X141626190Y-102539286D01*
X141102381Y-101634524D02*
X141102381Y-101015476D01*
X141483333Y-101348810D01*
X141483333Y-101205952D01*
X141530952Y-101110714D01*
X141578571Y-101063095D01*
X141673810Y-101015476D01*
X141911905Y-101015476D01*
X142007143Y-101063095D01*
X142054762Y-101110714D01*
X142102381Y-101205952D01*
X142102381Y-101491667D01*
X142054762Y-101586905D01*
X142007143Y-101634524D01*
X141102381Y-100682143D02*
X141102381Y-100015476D01*
X142102381Y-100444048D01*
X141732143Y-88227381D02*
X141398809Y-87751190D01*
X141160714Y-88227381D02*
X141160714Y-87227381D01*
X141541667Y-87227381D01*
X141636905Y-87275000D01*
X141684524Y-87322619D01*
X141732143Y-87417857D01*
X141732143Y-87560714D01*
X141684524Y-87655952D01*
X141636905Y-87703571D01*
X141541667Y-87751190D01*
X141160714Y-87751190D01*
X142065476Y-87227381D02*
X142684524Y-87227381D01*
X142351190Y-87608333D01*
X142494048Y-87608333D01*
X142589286Y-87655952D01*
X142636905Y-87703571D01*
X142684524Y-87798810D01*
X142684524Y-88036905D01*
X142636905Y-88132143D01*
X142589286Y-88179762D01*
X142494048Y-88227381D01*
X142208333Y-88227381D01*
X142113095Y-88179762D01*
X142065476Y-88132143D01*
X143255952Y-87655952D02*
X143160714Y-87608333D01*
X143113095Y-87560714D01*
X143065476Y-87465476D01*
X143065476Y-87417857D01*
X143113095Y-87322619D01*
X143160714Y-87275000D01*
X143255952Y-87227381D01*
X143446429Y-87227381D01*
X143541667Y-87275000D01*
X143589286Y-87322619D01*
X143636905Y-87417857D01*
X143636905Y-87465476D01*
X143589286Y-87560714D01*
X143541667Y-87608333D01*
X143446429Y-87655952D01*
X143255952Y-87655952D01*
X143160714Y-87703571D01*
X143113095Y-87751190D01*
X143065476Y-87846429D01*
X143065476Y-88036905D01*
X143113095Y-88132143D01*
X143160714Y-88179762D01*
X143255952Y-88227381D01*
X143446429Y-88227381D01*
X143541667Y-88179762D01*
X143589286Y-88132143D01*
X143636905Y-88036905D01*
X143636905Y-87846429D01*
X143589286Y-87751190D01*
X143541667Y-87703571D01*
X143446429Y-87655952D01*
X148732143Y-108477381D02*
X148398809Y-108001190D01*
X148160714Y-108477381D02*
X148160714Y-107477381D01*
X148541667Y-107477381D01*
X148636905Y-107525000D01*
X148684524Y-107572619D01*
X148732143Y-107667857D01*
X148732143Y-107810714D01*
X148684524Y-107905952D01*
X148636905Y-107953571D01*
X148541667Y-108001190D01*
X148160714Y-108001190D01*
X149065476Y-107477381D02*
X149684524Y-107477381D01*
X149351190Y-107858333D01*
X149494048Y-107858333D01*
X149589286Y-107905952D01*
X149636905Y-107953571D01*
X149684524Y-108048810D01*
X149684524Y-108286905D01*
X149636905Y-108382143D01*
X149589286Y-108429762D01*
X149494048Y-108477381D01*
X149208333Y-108477381D01*
X149113095Y-108429762D01*
X149065476Y-108382143D01*
X150160714Y-108477381D02*
X150351190Y-108477381D01*
X150446429Y-108429762D01*
X150494048Y-108382143D01*
X150589286Y-108239286D01*
X150636905Y-108048810D01*
X150636905Y-107667857D01*
X150589286Y-107572619D01*
X150541667Y-107525000D01*
X150446429Y-107477381D01*
X150255952Y-107477381D01*
X150160714Y-107525000D01*
X150113095Y-107572619D01*
X150065476Y-107667857D01*
X150065476Y-107905952D01*
X150113095Y-108001190D01*
X150160714Y-108048810D01*
X150255952Y-108096429D01*
X150446429Y-108096429D01*
X150541667Y-108048810D01*
X150589286Y-108001190D01*
X150636905Y-107905952D01*
X133927381Y-106092857D02*
X133451190Y-106426191D01*
X133927381Y-106664286D02*
X132927381Y-106664286D01*
X132927381Y-106283333D01*
X132975000Y-106188095D01*
X133022619Y-106140476D01*
X133117857Y-106092857D01*
X133260714Y-106092857D01*
X133355952Y-106140476D01*
X133403571Y-106188095D01*
X133451190Y-106283333D01*
X133451190Y-106664286D01*
X133260714Y-105235714D02*
X133927381Y-105235714D01*
X132879762Y-105473810D02*
X133594048Y-105711905D01*
X133594048Y-105092857D01*
X132927381Y-104521429D02*
X132927381Y-104426190D01*
X132975000Y-104330952D01*
X133022619Y-104283333D01*
X133117857Y-104235714D01*
X133308333Y-104188095D01*
X133546429Y-104188095D01*
X133736905Y-104235714D01*
X133832143Y-104283333D01*
X133879762Y-104330952D01*
X133927381Y-104426190D01*
X133927381Y-104521429D01*
X133879762Y-104616667D01*
X133832143Y-104664286D01*
X133736905Y-104711905D01*
X133546429Y-104759524D01*
X133308333Y-104759524D01*
X133117857Y-104711905D01*
X133022619Y-104664286D01*
X132975000Y-104616667D01*
X132927381Y-104521429D01*
X148732143Y-107227381D02*
X148398809Y-106751190D01*
X148160714Y-107227381D02*
X148160714Y-106227381D01*
X148541667Y-106227381D01*
X148636905Y-106275000D01*
X148684524Y-106322619D01*
X148732143Y-106417857D01*
X148732143Y-106560714D01*
X148684524Y-106655952D01*
X148636905Y-106703571D01*
X148541667Y-106751190D01*
X148160714Y-106751190D01*
X149589286Y-106560714D02*
X149589286Y-107227381D01*
X149351190Y-106179762D02*
X149113095Y-106894048D01*
X149732143Y-106894048D01*
X150636905Y-107227381D02*
X150065476Y-107227381D01*
X150351190Y-107227381D02*
X150351190Y-106227381D01*
X150255952Y-106370238D01*
X150160714Y-106465476D01*
X150065476Y-106513095D01*
X131627381Y-106117857D02*
X131151190Y-106451191D01*
X131627381Y-106689286D02*
X130627381Y-106689286D01*
X130627381Y-106308333D01*
X130675000Y-106213095D01*
X130722619Y-106165476D01*
X130817857Y-106117857D01*
X130960714Y-106117857D01*
X131055952Y-106165476D01*
X131103571Y-106213095D01*
X131151190Y-106308333D01*
X131151190Y-106689286D01*
X130960714Y-105260714D02*
X131627381Y-105260714D01*
X130579762Y-105498810D02*
X131294048Y-105736905D01*
X131294048Y-105117857D01*
X130722619Y-104784524D02*
X130675000Y-104736905D01*
X130627381Y-104641667D01*
X130627381Y-104403571D01*
X130675000Y-104308333D01*
X130722619Y-104260714D01*
X130817857Y-104213095D01*
X130913095Y-104213095D01*
X131055952Y-104260714D01*
X131627381Y-104832143D01*
X131627381Y-104213095D01*
X136907143Y-86977381D02*
X136573809Y-86501190D01*
X136335714Y-86977381D02*
X136335714Y-85977381D01*
X136716667Y-85977381D01*
X136811905Y-86025000D01*
X136859524Y-86072619D01*
X136907143Y-86167857D01*
X136907143Y-86310714D01*
X136859524Y-86405952D01*
X136811905Y-86453571D01*
X136716667Y-86501190D01*
X136335714Y-86501190D01*
X137764286Y-86310714D02*
X137764286Y-86977381D01*
X137526190Y-85929762D02*
X137288095Y-86644048D01*
X137907143Y-86644048D01*
X138192857Y-85977381D02*
X138811905Y-85977381D01*
X138478571Y-86358333D01*
X138621429Y-86358333D01*
X138716667Y-86405952D01*
X138764286Y-86453571D01*
X138811905Y-86548810D01*
X138811905Y-86786905D01*
X138764286Y-86882143D01*
X138716667Y-86929762D01*
X138621429Y-86977381D01*
X138335714Y-86977381D01*
X138240476Y-86929762D01*
X138192857Y-86882143D01*
X125882143Y-106352381D02*
X125548809Y-105876190D01*
X125310714Y-106352381D02*
X125310714Y-105352381D01*
X125691667Y-105352381D01*
X125786905Y-105400000D01*
X125834524Y-105447619D01*
X125882143Y-105542857D01*
X125882143Y-105685714D01*
X125834524Y-105780952D01*
X125786905Y-105828571D01*
X125691667Y-105876190D01*
X125310714Y-105876190D01*
X126739286Y-105685714D02*
X126739286Y-106352381D01*
X126501190Y-105304762D02*
X126263095Y-106019048D01*
X126882143Y-106019048D01*
X127691667Y-105685714D02*
X127691667Y-106352381D01*
X127453571Y-105304762D02*
X127215476Y-106019048D01*
X127834524Y-106019048D01*
X146707143Y-90852381D02*
X146373809Y-90376190D01*
X146135714Y-90852381D02*
X146135714Y-89852381D01*
X146516667Y-89852381D01*
X146611905Y-89900000D01*
X146659524Y-89947619D01*
X146707143Y-90042857D01*
X146707143Y-90185714D01*
X146659524Y-90280952D01*
X146611905Y-90328571D01*
X146516667Y-90376190D01*
X146135714Y-90376190D01*
X147564286Y-90185714D02*
X147564286Y-90852381D01*
X147326190Y-89804762D02*
X147088095Y-90519048D01*
X147707143Y-90519048D01*
X148564286Y-89852381D02*
X148088095Y-89852381D01*
X148040476Y-90328571D01*
X148088095Y-90280952D01*
X148183333Y-90233333D01*
X148421429Y-90233333D01*
X148516667Y-90280952D01*
X148564286Y-90328571D01*
X148611905Y-90423810D01*
X148611905Y-90661905D01*
X148564286Y-90757143D01*
X148516667Y-90804762D01*
X148421429Y-90852381D01*
X148183333Y-90852381D01*
X148088095Y-90804762D01*
X148040476Y-90757143D01*
X148732143Y-105977381D02*
X148398809Y-105501190D01*
X148160714Y-105977381D02*
X148160714Y-104977381D01*
X148541667Y-104977381D01*
X148636905Y-105025000D01*
X148684524Y-105072619D01*
X148732143Y-105167857D01*
X148732143Y-105310714D01*
X148684524Y-105405952D01*
X148636905Y-105453571D01*
X148541667Y-105501190D01*
X148160714Y-105501190D01*
X149589286Y-105310714D02*
X149589286Y-105977381D01*
X149351190Y-104929762D02*
X149113095Y-105644048D01*
X149732143Y-105644048D01*
X150541667Y-104977381D02*
X150351190Y-104977381D01*
X150255952Y-105025000D01*
X150208333Y-105072619D01*
X150113095Y-105215476D01*
X150065476Y-105405952D01*
X150065476Y-105786905D01*
X150113095Y-105882143D01*
X150160714Y-105929762D01*
X150255952Y-105977381D01*
X150446429Y-105977381D01*
X150541667Y-105929762D01*
X150589286Y-105882143D01*
X150636905Y-105786905D01*
X150636905Y-105548810D01*
X150589286Y-105453571D01*
X150541667Y-105405952D01*
X150446429Y-105358333D01*
X150255952Y-105358333D01*
X150160714Y-105405952D01*
X150113095Y-105453571D01*
X150065476Y-105548810D01*
X125882143Y-105002381D02*
X125548809Y-104526190D01*
X125310714Y-105002381D02*
X125310714Y-104002381D01*
X125691667Y-104002381D01*
X125786905Y-104050000D01*
X125834524Y-104097619D01*
X125882143Y-104192857D01*
X125882143Y-104335714D01*
X125834524Y-104430952D01*
X125786905Y-104478571D01*
X125691667Y-104526190D01*
X125310714Y-104526190D01*
X126739286Y-104335714D02*
X126739286Y-105002381D01*
X126501190Y-103954762D02*
X126263095Y-104669048D01*
X126882143Y-104669048D01*
X127167857Y-104002381D02*
X127834524Y-104002381D01*
X127405952Y-105002381D01*
X136607143Y-106952381D02*
X136273809Y-106476190D01*
X136035714Y-106952381D02*
X136035714Y-105952381D01*
X136416667Y-105952381D01*
X136511905Y-106000000D01*
X136559524Y-106047619D01*
X136607143Y-106142857D01*
X136607143Y-106285714D01*
X136559524Y-106380952D01*
X136511905Y-106428571D01*
X136416667Y-106476190D01*
X136035714Y-106476190D01*
X137464286Y-106285714D02*
X137464286Y-106952381D01*
X137226190Y-105904762D02*
X136988095Y-106619048D01*
X137607143Y-106619048D01*
X138130952Y-106380952D02*
X138035714Y-106333333D01*
X137988095Y-106285714D01*
X137940476Y-106190476D01*
X137940476Y-106142857D01*
X137988095Y-106047619D01*
X138035714Y-106000000D01*
X138130952Y-105952381D01*
X138321429Y-105952381D01*
X138416667Y-106000000D01*
X138464286Y-106047619D01*
X138511905Y-106142857D01*
X138511905Y-106190476D01*
X138464286Y-106285714D01*
X138416667Y-106333333D01*
X138321429Y-106380952D01*
X138130952Y-106380952D01*
X138035714Y-106428571D01*
X137988095Y-106476190D01*
X137940476Y-106571429D01*
X137940476Y-106761905D01*
X137988095Y-106857143D01*
X138035714Y-106904762D01*
X138130952Y-106952381D01*
X138321429Y-106952381D01*
X138416667Y-106904762D01*
X138464286Y-106857143D01*
X138511905Y-106761905D01*
X138511905Y-106571429D01*
X138464286Y-106476190D01*
X138416667Y-106428571D01*
X138321429Y-106380952D01*
X132632143Y-88127381D02*
X132298809Y-87651190D01*
X132060714Y-88127381D02*
X132060714Y-87127381D01*
X132441667Y-87127381D01*
X132536905Y-87175000D01*
X132584524Y-87222619D01*
X132632143Y-87317857D01*
X132632143Y-87460714D01*
X132584524Y-87555952D01*
X132536905Y-87603571D01*
X132441667Y-87651190D01*
X132060714Y-87651190D01*
X133489286Y-87460714D02*
X133489286Y-88127381D01*
X133251190Y-87079762D02*
X133013095Y-87794048D01*
X133632143Y-87794048D01*
X134060714Y-88127381D02*
X134251190Y-88127381D01*
X134346429Y-88079762D01*
X134394048Y-88032143D01*
X134489286Y-87889286D01*
X134536905Y-87698810D01*
X134536905Y-87317857D01*
X134489286Y-87222619D01*
X134441667Y-87175000D01*
X134346429Y-87127381D01*
X134155952Y-87127381D01*
X134060714Y-87175000D01*
X134013095Y-87222619D01*
X133965476Y-87317857D01*
X133965476Y-87555952D01*
X134013095Y-87651190D01*
X134060714Y-87698810D01*
X134155952Y-87746429D01*
X134346429Y-87746429D01*
X134441667Y-87698810D01*
X134489286Y-87651190D01*
X134536905Y-87555952D01*
X135127381Y-129842857D02*
X134651190Y-130176191D01*
X135127381Y-130414286D02*
X134127381Y-130414286D01*
X134127381Y-130033333D01*
X134175000Y-129938095D01*
X134222619Y-129890476D01*
X134317857Y-129842857D01*
X134460714Y-129842857D01*
X134555952Y-129890476D01*
X134603571Y-129938095D01*
X134651190Y-130033333D01*
X134651190Y-130414286D01*
X134127381Y-128938095D02*
X134127381Y-129414286D01*
X134603571Y-129461905D01*
X134555952Y-129414286D01*
X134508333Y-129319048D01*
X134508333Y-129080952D01*
X134555952Y-128985714D01*
X134603571Y-128938095D01*
X134698810Y-128890476D01*
X134936905Y-128890476D01*
X135032143Y-128938095D01*
X135079762Y-128985714D01*
X135127381Y-129080952D01*
X135127381Y-129319048D01*
X135079762Y-129414286D01*
X135032143Y-129461905D01*
X134222619Y-128509524D02*
X134175000Y-128461905D01*
X134127381Y-128366667D01*
X134127381Y-128128571D01*
X134175000Y-128033333D01*
X134222619Y-127985714D01*
X134317857Y-127938095D01*
X134413095Y-127938095D01*
X134555952Y-127985714D01*
X135127381Y-128557143D01*
X135127381Y-127938095D01*
X133102381Y-129892857D02*
X132626190Y-130226191D01*
X133102381Y-130464286D02*
X132102381Y-130464286D01*
X132102381Y-130083333D01*
X132150000Y-129988095D01*
X132197619Y-129940476D01*
X132292857Y-129892857D01*
X132435714Y-129892857D01*
X132530952Y-129940476D01*
X132578571Y-129988095D01*
X132626190Y-130083333D01*
X132626190Y-130464286D01*
X132102381Y-128988095D02*
X132102381Y-129464286D01*
X132578571Y-129511905D01*
X132530952Y-129464286D01*
X132483333Y-129369048D01*
X132483333Y-129130952D01*
X132530952Y-129035714D01*
X132578571Y-128988095D01*
X132673810Y-128940476D01*
X132911905Y-128940476D01*
X133007143Y-128988095D01*
X133054762Y-129035714D01*
X133102381Y-129130952D01*
X133102381Y-129369048D01*
X133054762Y-129464286D01*
X133007143Y-129511905D01*
X132102381Y-128607143D02*
X132102381Y-127988095D01*
X132483333Y-128321429D01*
X132483333Y-128178571D01*
X132530952Y-128083333D01*
X132578571Y-128035714D01*
X132673810Y-127988095D01*
X132911905Y-127988095D01*
X133007143Y-128035714D01*
X133054762Y-128083333D01*
X133102381Y-128178571D01*
X133102381Y-128464286D01*
X133054762Y-128559524D01*
X133007143Y-128607143D01*
X66527381Y-121686905D02*
X67336905Y-121686905D01*
X67432143Y-121639286D01*
X67479762Y-121591667D01*
X67527381Y-121496429D01*
X67527381Y-121305952D01*
X67479762Y-121210714D01*
X67432143Y-121163095D01*
X67336905Y-121115476D01*
X66527381Y-121115476D01*
X67527381Y-120115476D02*
X67527381Y-120686905D01*
X67527381Y-120401191D02*
X66527381Y-120401191D01*
X66670238Y-120496429D01*
X66765476Y-120591667D01*
X66813095Y-120686905D01*
X75813095Y-130802381D02*
X75813095Y-131611905D01*
X75860714Y-131707143D01*
X75908333Y-131754762D01*
X76003571Y-131802381D01*
X76194048Y-131802381D01*
X76289286Y-131754762D01*
X76336905Y-131707143D01*
X76384524Y-131611905D01*
X76384524Y-130802381D01*
X76813095Y-130897619D02*
X76860714Y-130850000D01*
X76955952Y-130802381D01*
X77194048Y-130802381D01*
X77289286Y-130850000D01*
X77336905Y-130897619D01*
X77384524Y-130992857D01*
X77384524Y-131088095D01*
X77336905Y-131230952D01*
X76765476Y-131802381D01*
X77384524Y-131802381D01*
X111577381Y-110111905D02*
X112386905Y-110111905D01*
X112482143Y-110064286D01*
X112529762Y-110016667D01*
X112577381Y-109921429D01*
X112577381Y-109730952D01*
X112529762Y-109635714D01*
X112482143Y-109588095D01*
X112386905Y-109540476D01*
X111577381Y-109540476D01*
X111577381Y-109159524D02*
X111577381Y-108540476D01*
X111958333Y-108873810D01*
X111958333Y-108730952D01*
X112005952Y-108635714D01*
X112053571Y-108588095D01*
X112148810Y-108540476D01*
X112386905Y-108540476D01*
X112482143Y-108588095D01*
X112529762Y-108635714D01*
X112577381Y-108730952D01*
X112577381Y-109016667D01*
X112529762Y-109111905D01*
X112482143Y-109159524D01*
X108052381Y-120836905D02*
X108861905Y-120836905D01*
X108957143Y-120789286D01*
X109004762Y-120741667D01*
X109052381Y-120646429D01*
X109052381Y-120455952D01*
X109004762Y-120360714D01*
X108957143Y-120313095D01*
X108861905Y-120265476D01*
X108052381Y-120265476D01*
X108385714Y-119360714D02*
X109052381Y-119360714D01*
X108004762Y-119598810D02*
X108719048Y-119836905D01*
X108719048Y-119217857D01*
X137577381Y-95611905D02*
X138386905Y-95611905D01*
X138482143Y-95564286D01*
X138529762Y-95516667D01*
X138577381Y-95421429D01*
X138577381Y-95230952D01*
X138529762Y-95135714D01*
X138482143Y-95088095D01*
X138386905Y-95040476D01*
X137577381Y-95040476D01*
X137577381Y-94088095D02*
X137577381Y-94564286D01*
X138053571Y-94611905D01*
X138005952Y-94564286D01*
X137958333Y-94469048D01*
X137958333Y-94230952D01*
X138005952Y-94135714D01*
X138053571Y-94088095D01*
X138148810Y-94040476D01*
X138386905Y-94040476D01*
X138482143Y-94088095D01*
X138529762Y-94135714D01*
X138577381Y-94230952D01*
X138577381Y-94469048D01*
X138529762Y-94564286D01*
X138482143Y-94611905D01*
X118198809Y-134176190D02*
X118198809Y-134652381D01*
X117865476Y-133652381D02*
X118198809Y-134176190D01*
X118532143Y-133652381D01*
X119389286Y-134652381D02*
X118817857Y-134652381D01*
X119103571Y-134652381D02*
X119103571Y-133652381D01*
X119008333Y-133795238D01*
X118913095Y-133890476D01*
X118817857Y-133938095D01*
X107098809Y-134501190D02*
X107098809Y-134977381D01*
X106765476Y-133977381D02*
X107098809Y-134501190D01*
X107432143Y-133977381D01*
X107717857Y-134072619D02*
X107765476Y-134025000D01*
X107860714Y-133977381D01*
X108098810Y-133977381D01*
X108194048Y-134025000D01*
X108241667Y-134072619D01*
X108289286Y-134167857D01*
X108289286Y-134263095D01*
X108241667Y-134405952D01*
X107670238Y-134977381D01*
X108289286Y-134977381D01*
X65952381Y-111333333D02*
X65476190Y-111666667D01*
X65952381Y-111904762D02*
X64952381Y-111904762D01*
X64952381Y-111523809D01*
X65000000Y-111428571D01*
X65047619Y-111380952D01*
X65142857Y-111333333D01*
X65285714Y-111333333D01*
X65380952Y-111380952D01*
X65428571Y-111428571D01*
X65476190Y-111523809D01*
X65476190Y-111904762D01*
X65428571Y-110904762D02*
X65428571Y-110571428D01*
X65952381Y-110428571D02*
X65952381Y-110904762D01*
X64952381Y-110904762D01*
X64952381Y-110428571D01*
X65428571Y-109666666D02*
X65428571Y-110000000D01*
X65952381Y-110000000D02*
X64952381Y-110000000D01*
X64952381Y-109523809D01*
X64952381Y-109000000D02*
X65190476Y-109000000D01*
X65095238Y-109238095D02*
X65190476Y-109000000D01*
X65095238Y-108761904D01*
X65380952Y-109142857D02*
X65190476Y-109000000D01*
X65380952Y-108857142D01*
X64952381Y-108238095D02*
X65190476Y-108238095D01*
X65095238Y-108476190D02*
X65190476Y-108238095D01*
X65095238Y-107999999D01*
X65380952Y-108380952D02*
X65190476Y-108238095D01*
X65380952Y-108095237D01*
X127757143Y-133566666D02*
X127804762Y-133614285D01*
X127852381Y-133757142D01*
X127852381Y-133852380D01*
X127804762Y-133995238D01*
X127709524Y-134090476D01*
X127614286Y-134138095D01*
X127423810Y-134185714D01*
X127280952Y-134185714D01*
X127090476Y-134138095D01*
X126995238Y-134090476D01*
X126900000Y-133995238D01*
X126852381Y-133852380D01*
X126852381Y-133757142D01*
X126900000Y-133614285D01*
X126947619Y-133566666D01*
X126947619Y-133185714D02*
X126900000Y-133138095D01*
X126852381Y-133042857D01*
X126852381Y-132804761D01*
X126900000Y-132709523D01*
X126947619Y-132661904D01*
X127042857Y-132614285D01*
X127138095Y-132614285D01*
X127280952Y-132661904D01*
X127852381Y-133233333D01*
X127852381Y-132614285D01*
X131382143Y-128491666D02*
X131429762Y-128539285D01*
X131477381Y-128682142D01*
X131477381Y-128777380D01*
X131429762Y-128920238D01*
X131334524Y-129015476D01*
X131239286Y-129063095D01*
X131048810Y-129110714D01*
X130905952Y-129110714D01*
X130715476Y-129063095D01*
X130620238Y-129015476D01*
X130525000Y-128920238D01*
X130477381Y-128777380D01*
X130477381Y-128682142D01*
X130525000Y-128539285D01*
X130572619Y-128491666D01*
X130477381Y-128158333D02*
X130477381Y-127539285D01*
X130858333Y-127872619D01*
X130858333Y-127729761D01*
X130905952Y-127634523D01*
X130953571Y-127586904D01*
X131048810Y-127539285D01*
X131286905Y-127539285D01*
X131382143Y-127586904D01*
X131429762Y-127634523D01*
X131477381Y-127729761D01*
X131477381Y-128015476D01*
X131429762Y-128110714D01*
X131382143Y-128158333D01*
X125307143Y-130841666D02*
X125354762Y-130889285D01*
X125402381Y-131032142D01*
X125402381Y-131127380D01*
X125354762Y-131270238D01*
X125259524Y-131365476D01*
X125164286Y-131413095D01*
X124973810Y-131460714D01*
X124830952Y-131460714D01*
X124640476Y-131413095D01*
X124545238Y-131365476D01*
X124450000Y-131270238D01*
X124402381Y-131127380D01*
X124402381Y-131032142D01*
X124450000Y-130889285D01*
X124497619Y-130841666D01*
X124402381Y-129936904D02*
X124402381Y-130413095D01*
X124878571Y-130460714D01*
X124830952Y-130413095D01*
X124783333Y-130317857D01*
X124783333Y-130079761D01*
X124830952Y-129984523D01*
X124878571Y-129936904D01*
X124973810Y-129889285D01*
X125211905Y-129889285D01*
X125307143Y-129936904D01*
X125354762Y-129984523D01*
X125402381Y-130079761D01*
X125402381Y-130317857D01*
X125354762Y-130413095D01*
X125307143Y-130460714D01*
X100577381Y-119267857D02*
X100101190Y-119601191D01*
X100577381Y-119839286D02*
X99577381Y-119839286D01*
X99577381Y-119458333D01*
X99625000Y-119363095D01*
X99672619Y-119315476D01*
X99767857Y-119267857D01*
X99910714Y-119267857D01*
X100005952Y-119315476D01*
X100053571Y-119363095D01*
X100101190Y-119458333D01*
X100101190Y-119839286D01*
X100577381Y-118315476D02*
X100577381Y-118886905D01*
X100577381Y-118601191D02*
X99577381Y-118601191D01*
X99720238Y-118696429D01*
X99815476Y-118791667D01*
X99863095Y-118886905D01*
X99577381Y-117696429D02*
X99577381Y-117601190D01*
X99625000Y-117505952D01*
X99672619Y-117458333D01*
X99767857Y-117410714D01*
X99958333Y-117363095D01*
X100196429Y-117363095D01*
X100386905Y-117410714D01*
X100482143Y-117458333D01*
X100529762Y-117505952D01*
X100577381Y-117601190D01*
X100577381Y-117696429D01*
X100529762Y-117791667D01*
X100482143Y-117839286D01*
X100386905Y-117886905D01*
X100196429Y-117934524D01*
X99958333Y-117934524D01*
X99767857Y-117886905D01*
X99672619Y-117839286D01*
X99625000Y-117791667D01*
X99577381Y-117696429D01*
X136007143Y-114452381D02*
X135673809Y-113976190D01*
X135435714Y-114452381D02*
X135435714Y-113452381D01*
X135816667Y-113452381D01*
X135911905Y-113500000D01*
X135959524Y-113547619D01*
X136007143Y-113642857D01*
X136007143Y-113785714D01*
X135959524Y-113880952D01*
X135911905Y-113928571D01*
X135816667Y-113976190D01*
X135435714Y-113976190D01*
X136959524Y-114452381D02*
X136388095Y-114452381D01*
X136673809Y-114452381D02*
X136673809Y-113452381D01*
X136578571Y-113595238D01*
X136483333Y-113690476D01*
X136388095Y-113738095D01*
X137911905Y-114452381D02*
X137340476Y-114452381D01*
X137626190Y-114452381D02*
X137626190Y-113452381D01*
X137530952Y-113595238D01*
X137435714Y-113690476D01*
X137340476Y-113738095D01*
X136032143Y-112977381D02*
X135698809Y-112501190D01*
X135460714Y-112977381D02*
X135460714Y-111977381D01*
X135841667Y-111977381D01*
X135936905Y-112025000D01*
X135984524Y-112072619D01*
X136032143Y-112167857D01*
X136032143Y-112310714D01*
X135984524Y-112405952D01*
X135936905Y-112453571D01*
X135841667Y-112501190D01*
X135460714Y-112501190D01*
X136984524Y-112977381D02*
X136413095Y-112977381D01*
X136698809Y-112977381D02*
X136698809Y-111977381D01*
X136603571Y-112120238D01*
X136508333Y-112215476D01*
X136413095Y-112263095D01*
X137317857Y-111977381D02*
X137936905Y-111977381D01*
X137603571Y-112358333D01*
X137746429Y-112358333D01*
X137841667Y-112405952D01*
X137889286Y-112453571D01*
X137936905Y-112548810D01*
X137936905Y-112786905D01*
X137889286Y-112882143D01*
X137841667Y-112929762D01*
X137746429Y-112977381D01*
X137460714Y-112977381D01*
X137365476Y-112929762D01*
X137317857Y-112882143D01*
X137433334Y-124852381D02*
X136957143Y-124852381D01*
X136957143Y-123852381D01*
X138290477Y-124852381D02*
X137719048Y-124852381D01*
X138004762Y-124852381D02*
X138004762Y-123852381D01*
X137909524Y-123995238D01*
X137814286Y-124090476D01*
X137719048Y-124138095D01*
X66937143Y-93262857D02*
X66984762Y-93310476D01*
X67032381Y-93453333D01*
X67032381Y-93548571D01*
X66984762Y-93691429D01*
X66889524Y-93786667D01*
X66794286Y-93834286D01*
X66603810Y-93881905D01*
X66460952Y-93881905D01*
X66270476Y-93834286D01*
X66175238Y-93786667D01*
X66080000Y-93691429D01*
X66032381Y-93548571D01*
X66032381Y-93453333D01*
X66080000Y-93310476D01*
X66127619Y-93262857D01*
X66127619Y-92881905D02*
X66080000Y-92834286D01*
X66032381Y-92739048D01*
X66032381Y-92500952D01*
X66080000Y-92405714D01*
X66127619Y-92358095D01*
X66222857Y-92310476D01*
X66318095Y-92310476D01*
X66460952Y-92358095D01*
X67032381Y-92929524D01*
X67032381Y-92310476D01*
X67032381Y-91834286D02*
X67032381Y-91643810D01*
X66984762Y-91548571D01*
X66937143Y-91500952D01*
X66794286Y-91405714D01*
X66603810Y-91358095D01*
X66222857Y-91358095D01*
X66127619Y-91405714D01*
X66080000Y-91453333D01*
X66032381Y-91548571D01*
X66032381Y-91739048D01*
X66080000Y-91834286D01*
X66127619Y-91881905D01*
X66222857Y-91929524D01*
X66460952Y-91929524D01*
X66556190Y-91881905D01*
X66603810Y-91834286D01*
X66651429Y-91739048D01*
X66651429Y-91548571D01*
X66603810Y-91453333D01*
X66556190Y-91405714D01*
X66460952Y-91358095D01*
X68191429Y-88220952D02*
X68191429Y-87459047D01*
X68572381Y-87839999D02*
X67810476Y-87839999D01*
X88652381Y-131264286D02*
X87652381Y-131264286D01*
X87652381Y-131026191D01*
X87700000Y-130883333D01*
X87795238Y-130788095D01*
X87890476Y-130740476D01*
X88080952Y-130692857D01*
X88223810Y-130692857D01*
X88414286Y-130740476D01*
X88509524Y-130788095D01*
X88604762Y-130883333D01*
X88652381Y-131026191D01*
X88652381Y-131264286D01*
X88652381Y-129740476D02*
X88652381Y-130311905D01*
X88652381Y-130026191D02*
X87652381Y-130026191D01*
X87795238Y-130121429D01*
X87890476Y-130216667D01*
X87938095Y-130311905D01*
X87652381Y-129407143D02*
X87652381Y-128788095D01*
X88033333Y-129121429D01*
X88033333Y-128978571D01*
X88080952Y-128883333D01*
X88128571Y-128835714D01*
X88223810Y-128788095D01*
X88461905Y-128788095D01*
X88557143Y-128835714D01*
X88604762Y-128883333D01*
X88652381Y-128978571D01*
X88652381Y-129264286D01*
X88604762Y-129359524D01*
X88557143Y-129407143D01*
X140733334Y-125557143D02*
X140685715Y-125604762D01*
X140542858Y-125652381D01*
X140447620Y-125652381D01*
X140304762Y-125604762D01*
X140209524Y-125509524D01*
X140161905Y-125414286D01*
X140114286Y-125223810D01*
X140114286Y-125080952D01*
X140161905Y-124890476D01*
X140209524Y-124795238D01*
X140304762Y-124700000D01*
X140447620Y-124652381D01*
X140542858Y-124652381D01*
X140685715Y-124700000D01*
X140733334Y-124747619D01*
X141066667Y-124652381D02*
X141733334Y-124652381D01*
X141304762Y-125652381D01*
M02*
