G04 #@! TF.FileFunction,Soldermask,Bot*
%FSLAX46Y46*%
G04 Gerber Fmt 4.6, Leading zero omitted, Abs format (unit mm)*
G04 Created by KiCad (PCBNEW 4.0.6) date 01/16/18 14:36:03*
%MOMM*%
%LPD*%
G01*
G04 APERTURE LIST*
%ADD10C,0.100000*%
%ADD11C,0.724000*%
%ADD12R,5.400000X2.400000*%
%ADD13C,1.924000*%
%ADD14R,1.900000X2.400000*%
%ADD15C,4.400000*%
%ADD16R,1.650000X1.900000*%
%ADD17R,4.400000X2.400000*%
%ADD18R,2.624000X2.100000*%
%ADD19O,2.624000X2.100000*%
%ADD20R,2.924000X2.224000*%
%ADD21O,2.924000X2.224000*%
%ADD22O,1.650000X1.350000*%
%ADD23R,2.224000X2.924000*%
%ADD24O,2.224000X2.924000*%
%ADD25C,2.899360*%
%ADD26O,2.924000X3.924000*%
%ADD27R,2.924000X3.924000*%
%ADD28R,1.924000X1.800000*%
%ADD29O,1.924000X1.800000*%
G04 APERTURE END LIST*
D10*
D11*
X126350000Y-92075000D02*
X126350000Y-89725000D01*
X126350000Y-92125000D02*
X126350000Y-92075000D01*
X128200000Y-88175000D02*
X126400000Y-89600000D01*
X132025000Y-88050000D02*
X128200000Y-88175000D01*
X132475000Y-87250000D02*
X132025000Y-88050000D01*
X132400000Y-83650000D02*
X132475000Y-87250000D01*
X118425000Y-89650000D02*
X118425000Y-91825000D01*
X120100000Y-88125000D02*
X118425000Y-89650000D01*
X123125000Y-87925000D02*
X120100000Y-88125000D01*
X124725000Y-86325000D02*
X123125000Y-87925000D01*
X124800000Y-83650000D02*
X124725000Y-86325000D01*
X110500000Y-89425000D02*
X110450000Y-92450000D01*
X111875000Y-88475000D02*
X110500000Y-89425000D01*
X114650000Y-88375000D02*
X111875000Y-88475000D01*
X115575000Y-87500000D02*
X114650000Y-88375000D01*
X115700000Y-83600000D02*
X115575000Y-87500000D01*
X102450000Y-89575000D02*
X102425000Y-92275000D01*
X103975000Y-88350000D02*
X102450000Y-89575000D01*
X106950000Y-88175000D02*
X103975000Y-88350000D01*
X108125000Y-86700000D02*
X106950000Y-88175000D01*
X108125000Y-83500000D02*
X108125000Y-86700000D01*
X94525000Y-89175000D02*
X94550000Y-92425000D01*
X96125000Y-87950000D02*
X94525000Y-89225000D01*
X98600000Y-87950000D02*
X96125000Y-87950000D01*
X100425000Y-86175000D02*
X98600000Y-87950000D01*
X100500000Y-83600000D02*
X100425000Y-86175000D01*
X86525000Y-89475000D02*
X86500000Y-92325000D01*
X88025000Y-88225000D02*
X86525000Y-89475000D01*
X90750000Y-88175000D02*
X88025000Y-88225000D01*
X92825000Y-86025000D02*
X90750000Y-88175000D01*
X92750000Y-83600000D02*
X92825000Y-86025000D01*
D12*
X99850000Y-131025000D03*
X115850000Y-131025000D03*
D13*
X103850000Y-131025000D03*
X111250000Y-131025000D03*
D14*
X143225000Y-115625000D03*
X140225000Y-115625000D03*
D15*
X145000000Y-109500000D03*
D16*
X95450000Y-131000000D03*
X95450000Y-133500000D03*
D14*
X143225000Y-121925000D03*
X140225000Y-121925000D03*
X143225000Y-118775000D03*
X140225000Y-118775000D03*
D17*
X86500000Y-97000000D03*
X86500000Y-92500000D03*
X94450000Y-97000000D03*
X94450000Y-92500000D03*
X102400000Y-97000000D03*
X102400000Y-92500000D03*
X110350000Y-97000000D03*
X110350000Y-92500000D03*
X118300000Y-97000000D03*
X118300000Y-92500000D03*
X126250000Y-97000000D03*
X126250000Y-92500000D03*
D18*
X98050000Y-125390000D03*
D19*
X98050000Y-122850000D03*
X98050000Y-120310000D03*
X98050000Y-117770000D03*
D20*
X149400000Y-113320000D03*
D21*
X149400000Y-115860000D03*
X149400000Y-118400000D03*
X149400000Y-120940000D03*
X149400000Y-123480000D03*
X149400000Y-126020000D03*
D22*
X96419200Y-136000000D03*
X100519200Y-136000000D03*
D20*
X149150000Y-92760000D03*
D21*
X149150000Y-95300000D03*
X149150000Y-97840000D03*
X149150000Y-100380000D03*
D23*
X129495000Y-138000000D03*
D24*
X132035000Y-138000000D03*
X134575000Y-138000000D03*
X137115000Y-138000000D03*
D25*
X81199468Y-91380353D03*
X84620532Y-100779647D03*
D26*
X108080000Y-83700000D03*
X104270000Y-83700000D03*
X100460000Y-83700000D03*
X96650000Y-83700000D03*
X92840000Y-83700000D03*
D27*
X89030000Y-83700000D03*
D26*
X111890000Y-83700000D03*
X115700000Y-83700000D03*
X83800000Y-83700000D03*
D27*
X79990000Y-83700000D03*
D26*
X132500000Y-83700000D03*
X128690000Y-83700000D03*
X124880000Y-83700000D03*
D27*
X121070000Y-83700000D03*
D15*
X65000000Y-109500000D03*
D28*
X133600000Y-126200000D03*
D29*
X131600000Y-126200000D03*
X133600000Y-124200000D03*
X131600000Y-124200000D03*
X133600000Y-122200000D03*
X131600000Y-122200000D03*
X133600000Y-120200000D03*
X131600000Y-120200000D03*
X133600000Y-118200000D03*
X131600000Y-118200000D03*
X133600000Y-116200000D03*
X131600000Y-116200000D03*
X133600000Y-114200000D03*
X131600000Y-114200000D03*
X133600000Y-112200000D03*
X131600000Y-112200000D03*
X133600000Y-110200000D03*
X131600000Y-110200000D03*
X133600000Y-108200000D03*
X131600000Y-108200000D03*
M02*
