G04 #@! TF.FileFunction,Copper,L2,Bot,Signal*
%FSLAX46Y46*%
G04 Gerber Fmt 4.6, Leading zero omitted, Abs format (unit mm)*
G04 Created by KiCad (PCBNEW 4.0.6) date 01/16/18 14:36:03*
%MOMM*%
%LPD*%
G01*
G04 APERTURE LIST*
%ADD10C,0.100000*%
%ADD11R,5.000000X2.000000*%
%ADD12C,1.524000*%
%ADD13R,1.500000X2.000000*%
%ADD14C,4.000000*%
%ADD15R,1.250000X1.500000*%
%ADD16R,4.000000X2.000000*%
%ADD17R,2.224000X1.700000*%
%ADD18O,2.224000X1.700000*%
%ADD19R,2.524000X1.824000*%
%ADD20O,2.524000X1.824000*%
%ADD21O,1.250000X0.950000*%
%ADD22R,1.824000X2.524000*%
%ADD23O,1.824000X2.524000*%
%ADD24C,2.499360*%
%ADD25O,2.524000X3.524000*%
%ADD26R,2.524000X3.524000*%
%ADD27R,1.524000X1.400000*%
%ADD28O,1.524000X1.400000*%
%ADD29C,1.100000*%
%ADD30C,0.500000*%
%ADD31C,1.000000*%
%ADD32C,0.250000*%
%ADD33C,2.000000*%
%ADD34C,0.624000*%
%ADD35C,0.724000*%
%ADD36C,0.400000*%
%ADD37C,0.524000*%
%ADD38C,1.500000*%
%ADD39C,0.300000*%
%ADD40C,1.524000*%
%ADD41C,1.824000*%
%ADD42C,1.724000*%
%ADD43C,0.254000*%
%ADD44C,0.324000*%
G04 APERTURE END LIST*
D10*
D11*
X99850000Y-131025000D03*
X115850000Y-131025000D03*
D12*
X103850000Y-131025000D03*
X111250000Y-131025000D03*
D13*
X143225000Y-115625000D03*
X140225000Y-115625000D03*
D14*
X145000000Y-109500000D03*
D15*
X95450000Y-131000000D03*
X95450000Y-133500000D03*
D13*
X143225000Y-121925000D03*
X140225000Y-121925000D03*
X143225000Y-118775000D03*
X140225000Y-118775000D03*
D16*
X86500000Y-97000000D03*
X86500000Y-92500000D03*
X94450000Y-97000000D03*
X94450000Y-92500000D03*
X102400000Y-97000000D03*
X102400000Y-92500000D03*
X110350000Y-97000000D03*
X110350000Y-92500000D03*
X118300000Y-97000000D03*
X118300000Y-92500000D03*
X126250000Y-97000000D03*
X126250000Y-92500000D03*
D17*
X98050000Y-125390000D03*
D18*
X98050000Y-122850000D03*
X98050000Y-120310000D03*
X98050000Y-117770000D03*
D19*
X149400000Y-113320000D03*
D20*
X149400000Y-115860000D03*
X149400000Y-118400000D03*
X149400000Y-120940000D03*
X149400000Y-123480000D03*
X149400000Y-126020000D03*
D21*
X96419200Y-136000000D03*
X100519200Y-136000000D03*
D19*
X149150000Y-92760000D03*
D20*
X149150000Y-95300000D03*
X149150000Y-97840000D03*
X149150000Y-100380000D03*
D22*
X129495000Y-138000000D03*
D23*
X132035000Y-138000000D03*
X134575000Y-138000000D03*
X137115000Y-138000000D03*
D24*
X81199468Y-91380353D03*
X84620532Y-100779647D03*
D25*
X108080000Y-83700000D03*
X104270000Y-83700000D03*
X100460000Y-83700000D03*
X96650000Y-83700000D03*
X92840000Y-83700000D03*
D26*
X89030000Y-83700000D03*
D25*
X111890000Y-83700000D03*
X115700000Y-83700000D03*
X83800000Y-83700000D03*
D26*
X79990000Y-83700000D03*
D25*
X132500000Y-83700000D03*
X128690000Y-83700000D03*
X124880000Y-83700000D03*
D26*
X121070000Y-83700000D03*
D14*
X65000000Y-109500000D03*
D27*
X133600000Y-126200000D03*
D28*
X131600000Y-126200000D03*
X133600000Y-124200000D03*
X131600000Y-124200000D03*
X133600000Y-122200000D03*
X131600000Y-122200000D03*
X133600000Y-120200000D03*
X131600000Y-120200000D03*
X133600000Y-118200000D03*
X131600000Y-118200000D03*
X133600000Y-116200000D03*
X131600000Y-116200000D03*
X133600000Y-114200000D03*
X131600000Y-114200000D03*
X133600000Y-112200000D03*
X131600000Y-112200000D03*
X133600000Y-110200000D03*
X131600000Y-110200000D03*
X133600000Y-108200000D03*
X131600000Y-108200000D03*
D29*
X103675000Y-126300000D03*
X131000000Y-97250000D03*
X140000000Y-85300000D03*
X139200000Y-85450000D03*
X139870000Y-86100000D03*
X117500000Y-130900000D03*
X116600000Y-130900000D03*
X108500000Y-138300000D03*
X106750000Y-138250000D03*
X118950000Y-138290000D03*
X72700000Y-95750000D03*
X72750000Y-96600000D03*
X64000000Y-105300000D03*
X63100000Y-105300000D03*
X63800000Y-104500000D03*
X68950000Y-112350000D03*
X68950000Y-111450000D03*
X69000000Y-110500000D03*
X86100000Y-138100000D03*
X86950000Y-138100000D03*
X84750000Y-136600000D03*
X84750000Y-138400000D03*
X72700000Y-137450000D03*
X73700000Y-137400000D03*
X80250000Y-110900000D03*
X80200000Y-109100000D03*
X77050000Y-109500000D03*
X77100000Y-110350000D03*
X76350000Y-110200000D03*
X72450000Y-110400000D03*
X72450000Y-108600000D03*
X64750000Y-115850000D03*
X63850000Y-115750000D03*
X72050000Y-97000000D03*
X72050000Y-95150000D03*
X82576000Y-123826000D03*
X83876000Y-125000000D03*
X87800000Y-125250000D03*
X87800000Y-127000000D03*
X83200000Y-124450000D03*
X80210000Y-109940000D03*
X143800000Y-112725000D03*
X142900000Y-112725000D03*
X132020000Y-91600000D03*
X149860000Y-103710000D03*
X149460000Y-104450000D03*
X138225000Y-103150000D03*
X149025000Y-103725000D03*
X140900000Y-91025000D03*
X143050000Y-124150000D03*
X141975000Y-112725000D03*
X140925000Y-126800000D03*
X87725000Y-138100000D03*
X126150000Y-138150000D03*
X115730000Y-130870000D03*
X87800000Y-126150000D03*
X103220000Y-114670000D03*
X107550000Y-138290000D03*
X118150000Y-138290000D03*
X131164000Y-91510000D03*
X131000000Y-96420000D03*
X84780000Y-137450000D03*
X74450000Y-137450000D03*
X72450000Y-109550000D03*
X64190000Y-116550000D03*
X72030000Y-96120000D03*
X123405000Y-127350000D03*
X105640000Y-115400000D03*
X89990000Y-132200000D03*
X89990000Y-133100000D03*
X132830000Y-131180000D03*
X123405000Y-128040000D03*
X132100000Y-131625000D03*
X123380000Y-128865000D03*
X119120000Y-117370000D03*
X119730000Y-123362880D03*
X119063743Y-123275000D03*
X89990000Y-133950000D03*
X119090000Y-118270000D03*
X105640000Y-114590000D03*
X118300000Y-106250000D03*
X118750000Y-106950000D03*
X125330000Y-103340000D03*
X125550000Y-102575000D03*
X122400000Y-102550000D03*
X105250000Y-110350000D03*
X117750000Y-106950000D03*
X109025000Y-102550000D03*
X117012500Y-102550000D03*
X121600000Y-102550000D03*
X101025000Y-102500000D03*
X93050000Y-102500000D03*
X117775000Y-126925000D03*
X110370000Y-122080000D03*
X93400000Y-119200000D03*
X94150000Y-127850000D03*
X88500000Y-119700000D03*
X88650000Y-118800000D03*
X87800000Y-120050000D03*
X87800000Y-118300000D03*
X142800000Y-101550000D03*
X78800000Y-135300000D03*
X78800000Y-133350000D03*
X67400000Y-130350000D03*
X62950000Y-125100000D03*
X78300000Y-118350000D03*
X78300000Y-114800000D03*
X137900000Y-87650000D03*
X134700000Y-92750000D03*
X133975000Y-93300000D03*
X78300000Y-117500000D03*
X78300000Y-115700000D03*
X138750000Y-87660000D03*
X143350000Y-101200000D03*
X87800000Y-119150000D03*
X133500000Y-93775000D03*
X94240000Y-119200000D03*
X94150000Y-128550000D03*
X78300000Y-116550000D03*
X78800000Y-134250000D03*
X62600000Y-124300000D03*
X68350000Y-130400000D03*
X120625000Y-128850000D03*
X109425000Y-123730000D03*
X63000000Y-91400000D03*
X63000000Y-93200000D03*
X63000000Y-92300000D03*
X143050000Y-121975000D03*
X106970000Y-123450000D03*
X143050000Y-118787500D03*
X103150000Y-119850000D03*
X143050000Y-115600000D03*
X105015000Y-125205000D03*
X111440000Y-123030000D03*
X115345000Y-124235000D03*
X117510000Y-123250000D03*
X121230000Y-122830000D03*
X122620000Y-122320000D03*
X136900000Y-110025000D03*
X123000000Y-118150000D03*
X135450000Y-108700000D03*
X122190000Y-119300000D03*
X133000000Y-133825000D03*
X107930000Y-121700000D03*
X136450000Y-133550000D03*
X109030000Y-122440000D03*
X111890000Y-120320000D03*
X122050000Y-114050000D03*
X110555000Y-120175000D03*
X124950000Y-114620000D03*
X111150000Y-118400000D03*
X124950000Y-112200000D03*
X105500000Y-112200000D03*
X100090000Y-127160000D03*
X107425000Y-118650000D03*
X96650000Y-128850000D03*
X96650000Y-104375000D03*
X102450000Y-104950000D03*
X109664222Y-118371577D03*
X138200000Y-99400000D03*
X132550000Y-103450000D03*
X113875000Y-124575000D03*
X133475000Y-103475000D03*
X140950000Y-93900000D03*
X137200000Y-93900000D03*
X108800000Y-114850000D03*
X142900000Y-94300000D03*
X107855000Y-111100000D03*
X107750000Y-110450000D03*
X111760000Y-121620000D03*
X113020000Y-125935000D03*
X140125000Y-105025000D03*
D30*
X100625000Y-131025000D02*
X103675000Y-127975000D01*
X103675000Y-127975000D02*
X103675000Y-126300000D01*
X99850000Y-131025000D02*
X100625000Y-131025000D01*
D31*
X95450000Y-131000000D02*
X99825000Y-131000000D01*
X99825000Y-131000000D02*
X99850000Y-131025000D01*
D32*
X131000000Y-96420000D02*
X131000000Y-97250000D01*
D30*
X131164000Y-91510000D02*
X132940000Y-91510000D01*
X138250000Y-86100000D02*
X139870000Y-86100000D01*
X132940000Y-91510000D02*
X134620000Y-89830000D01*
X134620000Y-89830000D02*
X134620000Y-89000000D01*
X134620000Y-89000000D02*
X137520000Y-86100000D01*
X137520000Y-86100000D02*
X138250000Y-86100000D01*
D32*
X139870000Y-86100000D02*
X139850000Y-86100000D01*
X139850000Y-86100000D02*
X139200000Y-85450000D01*
X116600000Y-130900000D02*
X115975000Y-130900000D01*
X115975000Y-130900000D02*
X115850000Y-131025000D01*
X115730000Y-130870000D02*
X115730000Y-130905000D01*
X115730000Y-130905000D02*
X115850000Y-131025000D01*
D31*
X108500000Y-138300000D02*
X106800000Y-138300000D01*
X106800000Y-138300000D02*
X106750000Y-138250000D01*
D32*
X72030000Y-96120000D02*
X72910000Y-97000000D01*
X63800000Y-104500000D02*
X63800000Y-104600000D01*
X63800000Y-104600000D02*
X63100000Y-105300000D01*
X68950000Y-111450000D02*
X68950000Y-112350000D01*
X72450000Y-110400000D02*
X69100000Y-110400000D01*
X69100000Y-110400000D02*
X69000000Y-110500000D01*
D31*
X86100000Y-138100000D02*
X87725000Y-138100000D01*
D32*
X86950000Y-138100000D02*
X86100000Y-138100000D01*
X87725000Y-138100000D02*
X86950000Y-138100000D01*
X84750000Y-138400000D02*
X84750000Y-137750000D01*
X84750000Y-137750000D02*
X84600000Y-137600000D01*
X84780000Y-137450000D02*
X84750000Y-137450000D01*
X84750000Y-137450000D02*
X84600000Y-137600000D01*
X73700000Y-137400000D02*
X72750000Y-137400000D01*
X72750000Y-137400000D02*
X72700000Y-137450000D01*
X72050000Y-107950000D02*
X72050000Y-109150000D01*
X72050000Y-109150000D02*
X72450000Y-109550000D01*
D33*
X72050000Y-95150000D02*
X72050000Y-107950000D01*
D32*
X64190000Y-116550000D02*
X64190000Y-116410000D01*
X64190000Y-116410000D02*
X64750000Y-115850000D01*
X72050000Y-99100000D02*
X72050000Y-97000000D01*
D33*
X72910000Y-97000000D02*
X72050000Y-97000000D01*
D31*
X72050000Y-99100000D02*
X72450000Y-99500000D01*
D33*
X72030000Y-91180000D02*
X72030000Y-95000000D01*
D32*
X72030000Y-96120000D02*
X72030000Y-95000000D01*
D31*
X83200000Y-112950000D02*
X83200000Y-124450000D01*
X81750000Y-111450000D02*
X81750000Y-111500000D01*
X81750000Y-111500000D02*
X83200000Y-112950000D01*
X80210000Y-109940000D02*
X80240000Y-109940000D01*
X80240000Y-109940000D02*
X81750000Y-111450000D01*
X82576000Y-123826000D02*
X82702000Y-123826000D01*
X82702000Y-123826000D02*
X83876000Y-125000000D01*
D34*
X91280000Y-115510000D02*
X91280000Y-121700000D01*
X87800000Y-125250000D02*
X91280000Y-121770000D01*
X91280000Y-121770000D02*
X91280000Y-121700000D01*
D31*
X87800000Y-125250000D02*
X87800000Y-127000000D01*
D35*
X87800000Y-127000000D02*
X87800000Y-138025000D01*
D32*
X87800000Y-126150000D02*
X87800000Y-127000000D01*
D30*
X139870000Y-86100000D02*
X140900000Y-87130000D01*
X140900000Y-87130000D02*
X140900000Y-91025000D01*
X140225000Y-121925000D02*
X140225000Y-124200000D01*
X140225000Y-124200000D02*
X140225000Y-124975000D01*
D36*
X143050000Y-124150000D02*
X140275000Y-124150000D01*
X140275000Y-124150000D02*
X140225000Y-124200000D01*
D32*
X142900000Y-112725000D02*
X143800000Y-112725000D01*
X141975000Y-112725000D02*
X142900000Y-112725000D01*
D30*
X140225000Y-126100000D02*
X140925000Y-126800000D01*
X140225000Y-124975000D02*
X140225000Y-126100000D01*
D34*
X92140000Y-114650000D02*
X91830000Y-114960000D01*
X91830000Y-114960000D02*
X91280000Y-115510000D01*
X103220000Y-114670000D02*
X92120000Y-114670000D01*
X92120000Y-114670000D02*
X91830000Y-114960000D01*
D32*
X131164000Y-91510000D02*
X131930000Y-91510000D01*
X131930000Y-91510000D02*
X132020000Y-91600000D01*
X149025000Y-103725000D02*
X149025000Y-104015000D01*
X149025000Y-104015000D02*
X149460000Y-104450000D01*
D36*
X140025000Y-103150000D02*
X141975000Y-105100000D01*
X141975000Y-105100000D02*
X141975000Y-112725000D01*
X138225000Y-103150000D02*
X140025000Y-103150000D01*
D37*
X147975000Y-103675000D02*
X148975000Y-103675000D01*
X148975000Y-103675000D02*
X149025000Y-103725000D01*
X146150000Y-101850000D02*
X147975000Y-103675000D01*
X146150000Y-91025000D02*
X148851000Y-91025000D01*
X140900000Y-91025000D02*
X146150000Y-91025000D01*
X146150000Y-91025000D02*
X146150000Y-101850000D01*
X148851000Y-91025000D02*
X149150000Y-91324000D01*
X149150000Y-91324000D02*
X149150000Y-92760000D01*
D30*
X140225000Y-115625000D02*
X140225000Y-114475000D01*
X140225000Y-114475000D02*
X141975000Y-112725000D01*
X140225000Y-121925000D02*
X140225000Y-123425000D01*
D31*
X140225000Y-118775000D02*
X140225000Y-121925000D01*
X140225000Y-115625000D02*
X140225000Y-118775000D01*
D30*
X140225000Y-121925000D02*
X140225000Y-122175000D01*
D35*
X96419200Y-136000000D02*
X96419200Y-134469200D01*
X96419200Y-134469200D02*
X95450000Y-133500000D01*
X87800000Y-138025000D02*
X87725000Y-138100000D01*
D31*
X118400000Y-138290000D02*
X126010000Y-138290000D01*
X126010000Y-138290000D02*
X126150000Y-138150000D01*
X131600000Y-110200000D02*
X131600000Y-108200000D01*
X133600000Y-110200000D02*
X131600000Y-110200000D01*
X133600000Y-108200000D02*
X133600000Y-110200000D01*
X131600000Y-108200000D02*
X133600000Y-108200000D01*
D34*
X131000000Y-96420000D02*
X131000000Y-94840000D01*
X131000000Y-94840000D02*
X131000000Y-91674000D01*
D30*
X131020000Y-94820000D02*
X131000000Y-94840000D01*
D31*
X118400000Y-138290000D02*
X107550000Y-138290000D01*
D34*
X131000000Y-91674000D02*
X131164000Y-91510000D01*
D31*
X130370000Y-97000000D02*
X130950000Y-96420000D01*
X130950000Y-96420000D02*
X131000000Y-96420000D01*
X126250000Y-97000000D02*
X130370000Y-97000000D01*
X74450000Y-137450000D02*
X84780000Y-137450000D01*
X72410000Y-111760000D02*
X72410000Y-109590000D01*
X72410000Y-109590000D02*
X72450000Y-109550000D01*
X67620000Y-116550000D02*
X72410000Y-111760000D01*
X64190000Y-116550000D02*
X67620000Y-116550000D01*
D33*
X75310000Y-87900000D02*
X72030000Y-91180000D01*
X82430000Y-87900000D02*
X75310000Y-87900000D01*
X83740000Y-86590000D02*
X82430000Y-87900000D01*
X83740000Y-85231202D02*
X83740000Y-86590000D01*
X83800000Y-83700000D02*
X83800000Y-85171202D01*
X83800000Y-85171202D02*
X83740000Y-85231202D01*
X86500000Y-97000000D02*
X72910000Y-97000000D01*
X118300000Y-97000000D02*
X126250000Y-97000000D01*
X110350000Y-97000000D02*
X118300000Y-97000000D01*
X102400000Y-97000000D02*
X110350000Y-97000000D01*
X94450000Y-97000000D02*
X102400000Y-97000000D01*
X86500000Y-97000000D02*
X94450000Y-97000000D01*
D31*
X132100000Y-131625000D02*
X132385000Y-131625000D01*
X132385000Y-131625000D02*
X132830000Y-131180000D01*
D38*
X123405000Y-127350000D02*
X123405000Y-128840000D01*
X123405000Y-128840000D02*
X123380000Y-128865000D01*
D32*
X123405000Y-128040000D02*
X123405000Y-127350000D01*
D30*
X105640000Y-114590000D02*
X105640000Y-115400000D01*
X105640000Y-115400000D02*
X105640000Y-115760000D01*
D31*
X89990000Y-133100000D02*
X89990000Y-132200000D01*
X89990000Y-133950000D02*
X89990000Y-133100000D01*
D35*
X89990000Y-133950000D02*
X89990000Y-137290000D01*
X89990000Y-137290000D02*
X90750000Y-138050000D01*
X105500000Y-136900000D02*
X128250000Y-136900000D01*
X90750000Y-138050000D02*
X104350000Y-138050000D01*
X104350000Y-138050000D02*
X105500000Y-136900000D01*
X128250000Y-136900000D02*
X129350000Y-138000000D01*
X129350000Y-138000000D02*
X129495000Y-138000000D01*
D30*
X105640000Y-115760000D02*
X105150000Y-116250000D01*
X105150000Y-116250000D02*
X101500000Y-116250000D01*
X101500000Y-116250000D02*
X100450000Y-117300000D01*
X100450000Y-117300000D02*
X100450000Y-124550000D01*
X100450000Y-124550000D02*
X99610000Y-125390000D01*
X99610000Y-125390000D02*
X98050000Y-125390000D01*
D34*
X132830000Y-131180000D02*
X124421000Y-131180000D01*
X124421000Y-131180000D02*
X123380000Y-130139000D01*
X123380000Y-130139000D02*
X123380000Y-128865000D01*
D32*
X123380000Y-128865000D02*
X123380000Y-128065000D01*
X123380000Y-128065000D02*
X123405000Y-128040000D01*
D34*
X132100000Y-131560000D02*
X132100000Y-131625000D01*
D30*
X119120000Y-117370000D02*
X119120000Y-118240000D01*
X119120000Y-118240000D02*
X119090000Y-118270000D01*
X119100000Y-117940000D02*
X119120000Y-117940000D01*
X119120000Y-117940000D02*
X119130000Y-117950000D01*
D37*
X119100000Y-117940000D02*
X119100000Y-123238743D01*
X119100000Y-123238743D02*
X119063743Y-123275000D01*
D32*
X118750000Y-106950000D02*
X118750000Y-106700000D01*
X118750000Y-106700000D02*
X118300000Y-106250000D01*
D31*
X117750000Y-106000000D02*
X117750000Y-106950000D01*
X105250000Y-110350000D02*
X105250000Y-102550000D01*
D32*
X125330000Y-103340000D02*
X125330000Y-102795000D01*
X125330000Y-102795000D02*
X125550000Y-102575000D01*
X125660000Y-103540000D02*
X125660000Y-103135000D01*
X125550000Y-102575000D02*
X125550000Y-103430000D01*
X125550000Y-103430000D02*
X125660000Y-103540000D01*
D34*
X149400000Y-113320000D02*
X149400000Y-106725000D01*
X149400000Y-106725000D02*
X147675000Y-105000000D01*
X147675000Y-105000000D02*
X144110000Y-105000000D01*
X144110000Y-105000000D02*
X141135001Y-102025001D01*
X126099999Y-102025001D02*
X125550000Y-102575000D01*
X141135001Y-102025001D02*
X126099999Y-102025001D01*
X146700000Y-114400000D02*
X146700000Y-118400000D01*
X146700000Y-118400000D02*
X146700000Y-122875000D01*
X149400000Y-118400000D02*
X146700000Y-118400000D01*
X146700000Y-122875000D02*
X147305000Y-123480000D01*
X147305000Y-123480000D02*
X149400000Y-123480000D01*
X147800000Y-113300000D02*
X146700000Y-114400000D01*
X149030000Y-113300000D02*
X147800000Y-113300000D01*
X149400000Y-113320000D02*
X149050000Y-113320000D01*
X149050000Y-113320000D02*
X149030000Y-113300000D01*
D31*
X119150000Y-102575000D02*
X119175000Y-102550000D01*
X119175000Y-102550000D02*
X121600000Y-102550000D01*
X117012500Y-102550000D02*
X117850000Y-102550000D01*
X117750000Y-106000000D02*
X117750000Y-102650000D01*
X117750000Y-102650000D02*
X117850000Y-102550000D01*
X117850000Y-102550000D02*
X119175000Y-102550000D01*
X109025000Y-102550000D02*
X105250000Y-102550000D01*
X105250000Y-102550000D02*
X101075000Y-102550000D01*
X101075000Y-102550000D02*
X101025000Y-102500000D01*
X109025000Y-102550000D02*
X117012500Y-102550000D01*
X93050000Y-102500000D02*
X101025000Y-102500000D01*
D39*
X111200000Y-127650000D02*
X110370000Y-126820000D01*
X110370000Y-126820000D02*
X110370000Y-126010000D01*
X117050000Y-127650000D02*
X111200000Y-127650000D01*
X117775000Y-126925000D02*
X117050000Y-127650000D01*
X110370000Y-126010000D02*
X110370000Y-122080000D01*
D31*
X138750000Y-87660000D02*
X137910000Y-87660000D01*
X137910000Y-87660000D02*
X137900000Y-87650000D01*
D32*
X94240000Y-119200000D02*
X93400000Y-119200000D01*
D31*
X94150000Y-127850000D02*
X94150000Y-119290000D01*
D32*
X94150000Y-128550000D02*
X94150000Y-127850000D01*
X88650000Y-118800000D02*
X88150000Y-118800000D01*
X88150000Y-118800000D02*
X87800000Y-119150000D01*
X87800000Y-120050000D02*
X87800000Y-119150000D01*
D34*
X87800000Y-118300000D02*
X87800000Y-101000000D01*
D32*
X87800000Y-119150000D02*
X87800000Y-118300000D01*
D31*
X143170000Y-101270000D02*
X143130000Y-101270000D01*
X143130000Y-101270000D02*
X142900000Y-101500000D01*
D38*
X78800000Y-133350000D02*
X78800000Y-135300000D01*
D40*
X78800000Y-133350000D02*
X78800000Y-130440000D01*
D32*
X78800000Y-134250000D02*
X78800000Y-133350000D01*
D35*
X68350000Y-130400000D02*
X66350000Y-130400000D01*
X66350000Y-130400000D02*
X62950000Y-127000000D01*
X62950000Y-127000000D02*
X62950000Y-125100000D01*
X62950000Y-125100000D02*
X62600000Y-124750000D01*
D31*
X133500000Y-93775000D02*
X133675000Y-93775000D01*
X133675000Y-93775000D02*
X134700000Y-92750000D01*
D37*
X135000000Y-92275000D02*
X133975000Y-93300000D01*
D32*
X133500000Y-93775000D02*
X133975000Y-93300000D01*
D30*
X138750000Y-91500000D02*
X138750000Y-91995001D01*
X138750000Y-87660000D02*
X138750000Y-91500000D01*
D37*
X143350000Y-92275000D02*
X138700000Y-92275000D01*
X138700000Y-92275000D02*
X135000000Y-92275000D01*
X138750000Y-91500000D02*
X138750000Y-92225000D01*
X138750000Y-92225000D02*
X138700000Y-92275000D01*
D30*
X144275000Y-93200000D02*
X143350000Y-92275000D01*
D31*
X78300000Y-115700000D02*
X78300000Y-117500000D01*
D40*
X78800000Y-130440000D02*
X78800000Y-117500000D01*
D32*
X78300000Y-116550000D02*
X78300000Y-117000000D01*
X78300000Y-117000000D02*
X78800000Y-117500000D01*
D34*
X133500000Y-93775000D02*
X133500000Y-97940000D01*
X87800000Y-101000000D02*
X89350000Y-99450000D01*
X89350000Y-99450000D02*
X131990000Y-99450000D01*
X131990000Y-99450000D02*
X133500000Y-97940000D01*
D30*
X143170000Y-101270000D02*
X144275000Y-100165000D01*
X144275000Y-100165000D02*
X144275000Y-93200000D01*
D31*
X94150000Y-119290000D02*
X94240000Y-119200000D01*
D35*
X68350000Y-130400000D02*
X78760000Y-130400000D01*
X78760000Y-130400000D02*
X78800000Y-130440000D01*
X62600000Y-124750000D02*
X62600000Y-124300000D01*
D39*
X109425000Y-123730000D02*
X109425000Y-127725000D01*
X109425000Y-127725000D02*
X110550000Y-128850000D01*
X110550000Y-128850000D02*
X120625000Y-128850000D01*
D33*
X72120000Y-83700000D02*
X63520000Y-92300000D01*
X63520000Y-92300000D02*
X63000000Y-92300000D01*
X79990000Y-83700000D02*
X72120000Y-83700000D01*
D39*
X139525000Y-132450000D02*
X137250000Y-134725000D01*
X126500000Y-134725000D02*
X126475000Y-134750000D01*
X137250000Y-134725000D02*
X126500000Y-134725000D01*
X126475000Y-134750000D02*
X107550000Y-134750000D01*
X107550000Y-134750000D02*
X106970000Y-134170000D01*
X106970000Y-134170000D02*
X106970000Y-133595000D01*
X106970000Y-133595000D02*
X106970000Y-123450000D01*
X139550000Y-132450000D02*
X143350000Y-128650000D01*
X144150000Y-122975000D02*
X144150000Y-127850000D01*
X144150000Y-127850000D02*
X143350000Y-128650000D01*
X143050000Y-121975000D02*
X143150000Y-121975000D01*
X143150000Y-121975000D02*
X144150000Y-122975000D01*
X139650000Y-132325000D02*
X139525000Y-132450000D01*
X139525000Y-132450000D02*
X139550000Y-132450000D01*
X143050000Y-118787500D02*
X144537500Y-118787500D01*
X144900000Y-119150000D02*
X144900000Y-128650000D01*
X144537500Y-118787500D02*
X144900000Y-119150000D01*
X144900000Y-128650000D02*
X138200000Y-135350000D01*
X138200000Y-135350000D02*
X107050000Y-135350000D01*
X106069999Y-120819999D02*
X105100000Y-119850000D01*
X107050000Y-135350000D02*
X106069999Y-134369999D01*
X106069999Y-134369999D02*
X106069999Y-120819999D01*
X105100000Y-119850000D02*
X103150000Y-119850000D01*
X143050000Y-115600000D02*
X145100000Y-115600000D01*
X145100000Y-115600000D02*
X145625000Y-116125000D01*
X145625000Y-116125000D02*
X145625000Y-128975000D01*
X145625000Y-128975000D02*
X138749990Y-135850010D01*
X105015000Y-133054240D02*
X105015000Y-125205000D01*
X138749990Y-135850010D02*
X106150010Y-135850010D01*
X106150010Y-135850010D02*
X105015000Y-134715000D01*
X105015000Y-134715000D02*
X105015000Y-133054240D01*
D41*
X87750000Y-88300000D02*
X86500000Y-89550000D01*
X86500000Y-89550000D02*
X86500000Y-92500000D01*
X90800000Y-88300000D02*
X87750000Y-88300000D01*
X92840000Y-86260000D02*
X90800000Y-88300000D01*
X92840000Y-83700000D02*
X92840000Y-86260000D01*
X100460000Y-83700000D02*
X100460000Y-86190000D01*
X100460000Y-86190000D02*
X98550000Y-88100000D01*
X98550000Y-88100000D02*
X95650000Y-88100000D01*
X95650000Y-88100000D02*
X94450000Y-89300000D01*
X94450000Y-89300000D02*
X94450000Y-92500000D01*
D42*
X102400000Y-92500000D02*
X102400000Y-91500000D01*
D41*
X102400000Y-92500000D02*
X102400000Y-89776000D01*
X102400000Y-89776000D02*
X103826000Y-88350000D01*
X103826000Y-88350000D02*
X106916000Y-88350000D01*
X106916000Y-88350000D02*
X108080000Y-87186000D01*
X108080000Y-87186000D02*
X108080000Y-83700000D01*
X114700000Y-88500000D02*
X115700000Y-87500000D01*
X115700000Y-87500000D02*
X115700000Y-83700000D01*
X111626000Y-88500000D02*
X114700000Y-88500000D01*
X110350000Y-92500000D02*
X110350000Y-89776000D01*
X110350000Y-89776000D02*
X111626000Y-88500000D01*
X124880000Y-83700000D02*
X124880000Y-86220000D01*
X118300000Y-89776000D02*
X118300000Y-92500000D01*
X124880000Y-86220000D02*
X122900000Y-88200000D01*
X122900000Y-88200000D02*
X119876000Y-88200000D01*
X119876000Y-88200000D02*
X118300000Y-89776000D01*
X126250000Y-92500000D02*
X126250000Y-89776000D01*
X126250000Y-89776000D02*
X127826000Y-88200000D01*
X127826000Y-88200000D02*
X131950000Y-88200000D01*
X131950000Y-88200000D02*
X132500000Y-87650000D01*
X132500000Y-87650000D02*
X132500000Y-83700000D01*
D39*
X111405000Y-122945000D02*
X115665000Y-122945000D01*
X115665000Y-122945000D02*
X116982880Y-124262880D01*
X127820000Y-124262880D02*
X128640000Y-125082880D01*
X134630000Y-127945000D02*
X135237000Y-127338000D01*
X116982880Y-124262880D02*
X127820000Y-124262880D01*
X128640000Y-125082880D02*
X128640000Y-127410000D01*
X128640000Y-127410000D02*
X129175000Y-127945000D01*
X129175000Y-127945000D02*
X134630000Y-127945000D01*
X135237000Y-127338000D02*
X135237000Y-124775000D01*
X135237000Y-124775000D02*
X134662000Y-124200000D01*
X134662000Y-124200000D02*
X133600000Y-124200000D01*
X133600000Y-124200000D02*
X133662000Y-124200000D01*
X133662000Y-124200000D02*
X134012000Y-124550000D01*
X130290000Y-128625000D02*
X135525000Y-128625000D01*
X133692000Y-122170000D02*
X133662000Y-122200000D01*
X135525000Y-128625000D02*
X135910010Y-128239990D01*
X135910010Y-128239990D02*
X135910010Y-122735010D01*
X135910010Y-122735010D02*
X135345000Y-122170000D01*
X135345000Y-122170000D02*
X133692000Y-122170000D01*
X133662000Y-122200000D02*
X133600000Y-122200000D01*
X120959998Y-124780000D02*
X126670000Y-124780000D01*
X127500000Y-125610000D02*
X126670000Y-124780000D01*
X127500000Y-127740000D02*
X127500000Y-125610000D01*
X128385000Y-128625000D02*
X127500000Y-127740000D01*
X130000000Y-128625000D02*
X130290000Y-128625000D01*
X130290000Y-128625000D02*
X128385000Y-128625000D01*
X120954999Y-124784999D02*
X120959998Y-124780000D01*
X115345000Y-124235000D02*
X115894999Y-124784999D01*
X115894999Y-124784999D02*
X120954999Y-124784999D01*
X133600000Y-120200000D02*
X133662000Y-120200000D01*
X133662000Y-120200000D02*
X133712000Y-120150000D01*
X135550000Y-120150000D02*
X136450000Y-119250000D01*
X136450000Y-114325000D02*
X139050000Y-111725000D01*
X133712000Y-120150000D02*
X135550000Y-120150000D01*
X136450000Y-119250000D02*
X136450000Y-114325000D01*
X139050000Y-111725000D02*
X139050000Y-106542880D01*
X139050000Y-106542880D02*
X137007110Y-104499990D01*
X137007110Y-104499990D02*
X127660010Y-104499990D01*
X127660010Y-104499990D02*
X126770000Y-105390000D01*
X126770000Y-115250000D02*
X126300000Y-115720000D01*
X126770000Y-105390000D02*
X126770000Y-115250000D01*
X126300000Y-115720000D02*
X118154999Y-115720000D01*
X117510000Y-116364999D02*
X117510000Y-123260000D01*
X118154999Y-115720000D02*
X117510000Y-116364999D01*
X129270000Y-105000000D02*
X128330000Y-105000000D01*
X128330000Y-105000000D02*
X127650000Y-105680000D01*
X127650000Y-105680000D02*
X127650000Y-115560000D01*
X127650000Y-115560000D02*
X126850000Y-116360000D01*
X126850000Y-116360000D02*
X121420000Y-116360000D01*
X121420000Y-116360000D02*
X120360000Y-117420000D01*
X120360000Y-117420000D02*
X120360000Y-121960000D01*
X120360000Y-121960000D02*
X121230000Y-122830000D01*
X129270000Y-105000000D02*
X136500000Y-105000000D01*
X129000000Y-105000000D02*
X129270000Y-105000000D01*
X138500000Y-111325000D02*
X135650000Y-114175000D01*
X138500000Y-107000000D02*
X138500000Y-111325000D01*
X134750000Y-118150000D02*
X133712000Y-118150000D01*
X136500000Y-105000000D02*
X138500000Y-107000000D01*
X135650000Y-114175000D02*
X135650000Y-117250000D01*
X135650000Y-117250000D02*
X134750000Y-118150000D01*
X133712000Y-118150000D02*
X133662000Y-118200000D01*
X133662000Y-118200000D02*
X133600000Y-118200000D01*
X122620000Y-122320000D02*
X122070001Y-121770001D01*
X122060001Y-121770001D02*
X121100000Y-120810000D01*
X134662000Y-116200000D02*
X133600000Y-116200000D01*
X122070001Y-121770001D02*
X122060001Y-121770001D01*
X121100000Y-120810000D02*
X121100000Y-118000000D01*
X127440000Y-117130000D02*
X128410000Y-116160000D01*
X128410000Y-116160000D02*
X128410000Y-106150000D01*
X121100000Y-118000000D02*
X121970000Y-117130000D01*
X121970000Y-117130000D02*
X127440000Y-117130000D01*
X137875000Y-107375000D02*
X137875000Y-110975000D01*
X128410000Y-106150000D02*
X129010000Y-105550000D01*
X135050000Y-115812000D02*
X134662000Y-116200000D01*
X129010000Y-105550000D02*
X136050000Y-105550000D01*
X136050000Y-105550000D02*
X137875000Y-107375000D01*
X137875000Y-110975000D02*
X135050000Y-113800000D01*
X135050000Y-113800000D02*
X135050000Y-115812000D01*
X128150000Y-117760000D02*
X129290000Y-116620000D01*
X123000000Y-118150000D02*
X127760000Y-118150000D01*
X127760000Y-118150000D02*
X128150000Y-117760000D01*
X129290000Y-116620000D02*
X129290000Y-106620000D01*
X129290000Y-106620000D02*
X129810000Y-106100000D01*
X129810000Y-106100000D02*
X135550000Y-106100000D01*
X135550000Y-106100000D02*
X136100000Y-106650000D01*
X136125000Y-106650000D02*
X136900000Y-107425000D01*
X136900000Y-107425000D02*
X136900000Y-110025000D01*
X136400001Y-106950001D02*
X136100000Y-106650000D01*
X136100000Y-106650000D02*
X136125000Y-106650000D01*
X128220000Y-119200000D02*
X129950000Y-117470000D01*
X122190000Y-119300000D02*
X128120000Y-119300000D01*
X128120000Y-119300000D02*
X128220000Y-119200000D01*
X129950000Y-107790000D02*
X129950000Y-117470000D01*
X129950000Y-107390000D02*
X129950000Y-107790000D01*
X130380000Y-106700000D02*
X130120000Y-106960000D01*
X129950000Y-107790000D02*
X129950000Y-107130000D01*
X129950000Y-107130000D02*
X130120000Y-106960000D01*
X130980000Y-106700000D02*
X130640000Y-106700000D01*
X134950000Y-106700000D02*
X130980000Y-106700000D01*
X130980000Y-106700000D02*
X130380000Y-106700000D01*
X135450000Y-108700000D02*
X135450000Y-107200000D01*
X135450000Y-107200000D02*
X134950000Y-106700000D01*
X107930000Y-132855000D02*
X107930000Y-132650000D01*
X107930000Y-133180000D02*
X107930000Y-132650000D01*
X107930000Y-132650000D02*
X107930000Y-123770000D01*
X108575000Y-133825000D02*
X107930000Y-133180000D01*
X109100000Y-133825000D02*
X108900000Y-133825000D01*
X133000000Y-133825000D02*
X109100000Y-133825000D01*
X109100000Y-133825000D02*
X108575000Y-133825000D01*
X107930000Y-123770000D02*
X107930000Y-121700000D01*
D43*
X131825000Y-133825000D02*
X133000000Y-133825000D01*
D39*
X136450000Y-133550000D02*
X135250000Y-132350000D01*
X133000000Y-132350000D02*
X132275000Y-133075000D01*
X135250000Y-132350000D02*
X133000000Y-132350000D01*
X108496001Y-122835000D02*
X108891001Y-122440000D01*
X132275000Y-133075000D02*
X109275000Y-133075000D01*
X109275000Y-133075000D02*
X108496001Y-132296001D01*
X108496001Y-132296001D02*
X108496001Y-122835000D01*
D32*
X109030000Y-122440000D02*
X108891001Y-122440000D01*
D39*
X111890000Y-120320000D02*
X118160000Y-114050000D01*
X118160000Y-114050000D02*
X122050000Y-114050000D01*
X113067998Y-117832002D02*
X118080000Y-112820000D01*
X113050000Y-117832002D02*
X113067998Y-117832002D01*
X110555000Y-120175000D02*
X110702998Y-120175000D01*
X110702998Y-120175000D02*
X111587998Y-119290000D01*
X111587998Y-119290000D02*
X111592002Y-119290000D01*
X111592002Y-119290000D02*
X113050000Y-117832002D01*
X118080000Y-112820000D02*
X123000000Y-112820000D01*
X123000000Y-112820000D02*
X124800000Y-114620000D01*
D43*
X124800000Y-114620000D02*
X124950000Y-114620000D01*
D39*
X124950000Y-112200000D02*
X117600000Y-112200000D01*
X111150000Y-118400000D02*
X117350000Y-112200000D01*
X117350000Y-112200000D02*
X117600000Y-112200000D01*
X100090000Y-127160000D02*
X101390000Y-125860000D01*
X101390000Y-125860000D02*
X101390000Y-117960000D01*
X101390000Y-117960000D02*
X101950000Y-117400000D01*
X101950000Y-117400000D02*
X106150000Y-117400000D01*
X106150000Y-117400000D02*
X106850000Y-116700000D01*
X106850000Y-116700000D02*
X106850000Y-113550000D01*
X106850000Y-113550000D02*
X105500000Y-112200000D01*
X102030000Y-127160000D02*
X102030000Y-119300000D01*
X107425000Y-118650000D02*
X102680000Y-118650000D01*
X102680000Y-118650000D02*
X102030000Y-119300000D01*
X100340000Y-128850000D02*
X102030000Y-127160000D01*
X96650000Y-128850000D02*
X100340000Y-128850000D01*
D36*
X102450000Y-104950000D02*
X97225000Y-104950000D01*
X97225000Y-104950000D02*
X96650000Y-104375000D01*
D39*
X109664222Y-118371577D02*
X116585799Y-111450000D01*
X116585799Y-111450000D02*
X122850000Y-111450000D01*
X122850000Y-111450000D02*
X124175000Y-110125000D01*
X124175000Y-110125000D02*
X124175000Y-101650000D01*
X136525000Y-101075000D02*
X138200000Y-99400000D01*
X124175000Y-101650000D02*
X124750000Y-101075000D01*
X124750000Y-101075000D02*
X136525000Y-101075000D01*
D31*
X132550000Y-103450000D02*
X133450000Y-103450000D01*
X133450000Y-103450000D02*
X133475000Y-103475000D01*
D39*
X113875000Y-124575000D02*
X114694999Y-125394999D01*
X114694999Y-125394999D02*
X125604999Y-125394999D01*
X125604999Y-125394999D02*
X126360000Y-126150000D01*
X126360000Y-126150000D02*
X126360000Y-128390000D01*
X136475000Y-129275000D02*
X137100000Y-128650000D01*
X126360000Y-128390000D02*
X127245000Y-129275000D01*
X137100000Y-128650000D02*
X137100000Y-114820000D01*
X127245000Y-129275000D02*
X136475000Y-129275000D01*
X137100000Y-114820000D02*
X139700000Y-112220000D01*
X139700000Y-112220000D02*
X139700000Y-106150000D01*
X139700000Y-106150000D02*
X137025000Y-103475000D01*
X137025000Y-103475000D02*
X133475000Y-103475000D01*
D30*
X140950000Y-93900000D02*
X137200000Y-93900000D01*
D39*
X142900000Y-94300000D02*
X142900000Y-95950000D01*
X142900000Y-95950000D02*
X142230000Y-96620000D01*
X142230000Y-96620000D02*
X137710000Y-96620000D01*
X137710000Y-96620000D02*
X133845000Y-100485000D01*
X133845000Y-100485000D02*
X124205000Y-100485000D01*
X111570000Y-114850000D02*
X108800000Y-114850000D01*
X124205000Y-100485000D02*
X123550000Y-101140000D01*
X116000000Y-110420000D02*
X111570000Y-114850000D01*
X123550000Y-101140000D02*
X123550000Y-109350000D01*
X123550000Y-109350000D02*
X122480000Y-110420000D01*
X122480000Y-110420000D02*
X116000000Y-110420000D01*
D32*
X107750000Y-110450000D02*
X107750000Y-110995000D01*
X107750000Y-110995000D02*
X107855000Y-111100000D01*
D39*
X107750000Y-116100000D02*
X107750000Y-110450000D01*
X108700000Y-117050000D02*
X107750000Y-116100000D01*
X108700000Y-120570000D02*
X108700000Y-117050000D01*
D44*
X108700000Y-120570000D02*
X109300000Y-121170000D01*
X111340000Y-121460000D02*
X111805000Y-121460000D01*
X109300000Y-121170000D02*
X111050000Y-121170000D01*
X111050000Y-121170000D02*
X111340000Y-121460000D01*
D39*
X113020000Y-125935000D02*
X113045000Y-125960000D01*
X113045000Y-125960000D02*
X124630000Y-125960000D01*
X125330000Y-126660000D02*
X125330000Y-129220000D01*
X124630000Y-125960000D02*
X125330000Y-126660000D01*
X125330000Y-129220000D02*
X126035000Y-129925000D01*
X126035000Y-129925000D02*
X136825000Y-129925000D01*
X136825000Y-129925000D02*
X138075000Y-128675000D01*
X138075000Y-128675000D02*
X138075000Y-114905000D01*
X138075000Y-114905000D02*
X140350001Y-112629999D01*
X140350001Y-112629999D02*
X140350000Y-105250000D01*
X140350000Y-105250000D02*
X140125000Y-105025000D01*
D10*
G36*
X88074141Y-117348018D02*
X89147971Y-118714711D01*
X89003312Y-119968425D01*
X87849930Y-120593174D01*
X87251478Y-120270931D01*
X87349760Y-118256152D01*
X87540284Y-117303530D01*
X88074141Y-117348018D01*
X88074141Y-117348018D01*
G37*
X88074141Y-117348018D02*
X89147971Y-118714711D01*
X89003312Y-119968425D01*
X87849930Y-120593174D01*
X87251478Y-120270931D01*
X87349760Y-118256152D01*
X87540284Y-117303530D01*
X88074141Y-117348018D01*
G36*
X79450265Y-114824912D02*
X79499460Y-119400000D01*
X78067848Y-119400000D01*
X77550270Y-118976527D01*
X77599244Y-114666842D01*
X77926033Y-114200000D01*
X78633073Y-114200000D01*
X79450265Y-114824912D01*
X79450265Y-114824912D01*
G37*
X79450265Y-114824912D02*
X79499460Y-119400000D01*
X78067848Y-119400000D01*
X77550270Y-118976527D01*
X77599244Y-114666842D01*
X77926033Y-114200000D01*
X78633073Y-114200000D01*
X79450265Y-114824912D01*
G36*
X94650000Y-127608113D02*
X94650000Y-128829290D01*
X94429290Y-129050000D01*
X93828310Y-129050000D01*
X93699402Y-128835153D01*
X93650136Y-127702029D01*
X93694139Y-127350000D01*
X94563962Y-127350000D01*
X94650000Y-127608113D01*
X94650000Y-127608113D01*
G37*
X94650000Y-127608113D02*
X94650000Y-128829290D01*
X94429290Y-129050000D01*
X93828310Y-129050000D01*
X93699402Y-128835153D01*
X93650136Y-127702029D01*
X93694139Y-127350000D01*
X94563962Y-127350000D01*
X94650000Y-127608113D01*
G36*
X94700000Y-118917539D02*
X94700000Y-119486150D01*
X94571690Y-119700000D01*
X93216024Y-119700000D01*
X92900000Y-119474269D01*
X92900000Y-119016024D01*
X93125731Y-118700000D01*
X94525969Y-118700000D01*
X94700000Y-118917539D01*
X94700000Y-118917539D01*
G37*
X94700000Y-118917539D02*
X94700000Y-119486150D01*
X94571690Y-119700000D01*
X93216024Y-119700000D01*
X92900000Y-119474269D01*
X92900000Y-119016024D01*
X93125731Y-118700000D01*
X94525969Y-118700000D01*
X94700000Y-118917539D01*
G36*
X81249371Y-85350000D02*
X78600000Y-85350000D01*
X78596061Y-85330547D01*
X78584864Y-85314160D01*
X78568173Y-85303419D01*
X78550439Y-85300002D01*
X72850439Y-85250002D01*
X72830952Y-85253770D01*
X72814140Y-85265157D01*
X65964140Y-92315157D01*
X65963793Y-92315517D01*
X63978571Y-94400000D01*
X61826033Y-94400000D01*
X61500273Y-93934628D01*
X61549671Y-91069553D01*
X61971349Y-90601022D01*
X63047730Y-90649948D01*
X63067341Y-90646897D01*
X63085549Y-90635161D01*
X72120985Y-81499886D01*
X81200625Y-81450270D01*
X81249371Y-85350000D01*
X81249371Y-85350000D01*
G37*
X81249371Y-85350000D02*
X78600000Y-85350000D01*
X78596061Y-85330547D01*
X78584864Y-85314160D01*
X78568173Y-85303419D01*
X78550439Y-85300002D01*
X72850439Y-85250002D01*
X72830952Y-85253770D01*
X72814140Y-85265157D01*
X65964140Y-92315157D01*
X65963793Y-92315517D01*
X63978571Y-94400000D01*
X61826033Y-94400000D01*
X61500273Y-93934628D01*
X61549671Y-91069553D01*
X61971349Y-90601022D01*
X63047730Y-90649948D01*
X63067341Y-90646897D01*
X63085549Y-90635161D01*
X72120985Y-81499886D01*
X81200625Y-81450270D01*
X81249371Y-85350000D01*
D43*
G36*
X140464946Y-135444541D02*
X139380044Y-139174000D01*
X136012415Y-139174000D01*
X136111412Y-139025840D01*
X136238000Y-138389437D01*
X136238000Y-137610563D01*
X136111412Y-136974160D01*
X135962308Y-136751010D01*
X138749990Y-136751010D01*
X139094788Y-136682425D01*
X139387093Y-136487113D01*
X140503151Y-135371055D01*
X140464946Y-135444541D01*
X140464946Y-135444541D01*
G37*
X140464946Y-135444541D02*
X139380044Y-139174000D01*
X136012415Y-139174000D01*
X136111412Y-139025840D01*
X136238000Y-138389437D01*
X136238000Y-137610563D01*
X136111412Y-136974160D01*
X135962308Y-136751010D01*
X138749990Y-136751010D01*
X139094788Y-136682425D01*
X139387093Y-136487113D01*
X140503151Y-135371055D01*
X140464946Y-135444541D01*
G36*
X139174931Y-80039201D02*
X139199249Y-80136952D01*
X139208799Y-80237226D01*
X140390747Y-84179282D01*
X140541756Y-84464004D01*
X143142294Y-87653676D01*
X143154304Y-87663597D01*
X143390766Y-87858936D01*
X147013983Y-89810627D01*
X147322092Y-89905176D01*
X150674000Y-90246221D01*
X150674000Y-94096448D01*
X150175840Y-93763588D01*
X149539437Y-93637000D01*
X148760563Y-93637000D01*
X148124160Y-93763588D01*
X147584644Y-94124081D01*
X147224151Y-94663597D01*
X147097563Y-95300000D01*
X147224151Y-95936403D01*
X147584644Y-96475919D01*
X147725446Y-96570000D01*
X147584644Y-96664081D01*
X147224151Y-97203597D01*
X147097563Y-97840000D01*
X147224151Y-98476403D01*
X147584644Y-99015919D01*
X147725446Y-99110000D01*
X147584644Y-99204081D01*
X147224151Y-99743597D01*
X147097563Y-100380000D01*
X147224151Y-101016403D01*
X147584644Y-101555919D01*
X148124160Y-101916412D01*
X148760563Y-102043000D01*
X149539437Y-102043000D01*
X150175840Y-101916412D01*
X150674000Y-101583552D01*
X150674000Y-111644718D01*
X150662000Y-111642288D01*
X150463000Y-111642288D01*
X150463000Y-106725000D01*
X150382084Y-106318208D01*
X150151655Y-105973345D01*
X150151652Y-105973343D01*
X148426655Y-104248345D01*
X148081793Y-104017916D01*
X147675000Y-103936999D01*
X147674995Y-103937000D01*
X144550309Y-103937000D01*
X143345569Y-102732259D01*
X143535994Y-102653577D01*
X143745791Y-102444146D01*
X144085994Y-102303577D01*
X144452291Y-101937919D01*
X144650774Y-101459920D01*
X144650996Y-101204632D01*
X144982814Y-100872814D01*
X145199803Y-100548066D01*
X145276000Y-100165000D01*
X145276000Y-93200000D01*
X145199803Y-92816934D01*
X144982814Y-92492186D01*
X144100471Y-91609843D01*
X144066299Y-91558701D01*
X143737658Y-91339110D01*
X143350000Y-91262000D01*
X139751000Y-91262000D01*
X139751000Y-88499033D01*
X139852291Y-88397919D01*
X140050774Y-87919920D01*
X140051225Y-87402350D01*
X139853577Y-86924006D01*
X139487919Y-86557709D01*
X139009920Y-86359226D01*
X138492350Y-86358775D01*
X138370796Y-86409000D01*
X138303871Y-86409000D01*
X138159920Y-86349226D01*
X137642350Y-86348775D01*
X137164006Y-86546423D01*
X136797709Y-86912081D01*
X136599226Y-87390080D01*
X136598775Y-87907650D01*
X136796423Y-88385994D01*
X137162081Y-88752291D01*
X137640080Y-88950774D01*
X137749000Y-88950869D01*
X137749000Y-91262000D01*
X135000000Y-91262000D01*
X134612342Y-91339110D01*
X134448209Y-91448780D01*
X134442350Y-91448775D01*
X133964006Y-91646423D01*
X133597709Y-92012081D01*
X133579600Y-92055692D01*
X133239006Y-92196423D01*
X132872709Y-92562081D01*
X132840416Y-92639851D01*
X132764006Y-92671423D01*
X132397709Y-93037081D01*
X132199226Y-93515080D01*
X132198775Y-94032650D01*
X132396423Y-94510994D01*
X132437000Y-94551642D01*
X132437000Y-97499691D01*
X131549690Y-98387000D01*
X89350005Y-98387000D01*
X89350000Y-98386999D01*
X88943207Y-98467916D01*
X88896687Y-98499000D01*
X88598345Y-98698345D01*
X88598343Y-98698348D01*
X87048345Y-100248345D01*
X86817916Y-100593207D01*
X86736999Y-101000000D01*
X86737000Y-101000005D01*
X86737000Y-117235637D01*
X86647554Y-117682868D01*
X86499226Y-118040080D01*
X86498775Y-118557650D01*
X86529475Y-118631950D01*
X86519234Y-118841895D01*
X86499226Y-118890080D01*
X86498905Y-119258646D01*
X86449892Y-120263409D01*
X86477760Y-120505840D01*
X86614746Y-120770615D01*
X86843951Y-120961234D01*
X86903211Y-120993143D01*
X87062081Y-121152291D01*
X87540080Y-121350774D01*
X87691113Y-121350906D01*
X87922595Y-121397483D01*
X88207689Y-121310348D01*
X88372064Y-121221312D01*
X88535994Y-121153577D01*
X88582121Y-121107531D01*
X88845041Y-120965116D01*
X89235994Y-120803577D01*
X89346000Y-120693763D01*
X89407689Y-120660348D01*
X89703781Y-120369556D01*
X89796050Y-120086083D01*
X89900477Y-119181048D01*
X89950774Y-119059920D01*
X89951225Y-118542350D01*
X89753577Y-118064006D01*
X89387919Y-117697709D01*
X89357715Y-117685167D01*
X88863000Y-117055530D01*
X88863000Y-101440310D01*
X89790309Y-100513000D01*
X122906146Y-100513000D01*
X122717585Y-100795202D01*
X122649000Y-101140000D01*
X122649000Y-101249216D01*
X122142350Y-101248775D01*
X122000242Y-101307493D01*
X121859920Y-101249226D01*
X121342350Y-101248775D01*
X121220796Y-101299000D01*
X117392289Y-101299000D01*
X117272420Y-101249226D01*
X116754850Y-101248775D01*
X116633296Y-101299000D01*
X109404789Y-101299000D01*
X109284920Y-101249226D01*
X108767350Y-101248775D01*
X108645796Y-101299000D01*
X101525202Y-101299000D01*
X101284920Y-101199226D01*
X100767350Y-101198775D01*
X100645796Y-101249000D01*
X93429789Y-101249000D01*
X93309920Y-101199226D01*
X92792350Y-101198775D01*
X92314006Y-101396423D01*
X91947709Y-101762081D01*
X91749226Y-102240080D01*
X91748775Y-102757650D01*
X91946423Y-103235994D01*
X92312081Y-103602291D01*
X92790080Y-103800774D01*
X93307650Y-103801225D01*
X93429204Y-103751000D01*
X95500406Y-103751000D01*
X95349226Y-104115080D01*
X95348775Y-104632650D01*
X95546423Y-105110994D01*
X95912081Y-105477291D01*
X96390080Y-105675774D01*
X96632649Y-105675985D01*
X96861068Y-105828609D01*
X96921449Y-105840620D01*
X97225000Y-105901001D01*
X97225005Y-105901000D01*
X101561054Y-105901000D01*
X101712081Y-106052291D01*
X102190080Y-106250774D01*
X102707650Y-106251225D01*
X103185994Y-106053577D01*
X103552291Y-105687919D01*
X103750774Y-105209920D01*
X103751225Y-104692350D01*
X103553577Y-104214006D01*
X103187919Y-103847709D01*
X103075432Y-103801000D01*
X103999000Y-103801000D01*
X103999000Y-109970211D01*
X103949226Y-110090080D01*
X103948775Y-110607650D01*
X104146423Y-111085994D01*
X104459890Y-111400009D01*
X104397709Y-111462081D01*
X104199226Y-111940080D01*
X104198775Y-112457650D01*
X104396423Y-112935994D01*
X104762081Y-113302291D01*
X105055135Y-113423978D01*
X104904006Y-113486423D01*
X104537709Y-113852081D01*
X104339226Y-114330080D01*
X104338775Y-114847650D01*
X104399564Y-114994770D01*
X104339226Y-115140080D01*
X104339131Y-115249000D01*
X101500000Y-115249000D01*
X101116934Y-115325197D01*
X100792186Y-115542186D01*
X99742186Y-116592186D01*
X99596101Y-116810818D01*
X99480576Y-116637922D01*
X98961174Y-116290869D01*
X98348498Y-116169000D01*
X97751502Y-116169000D01*
X97138826Y-116290869D01*
X96619424Y-116637922D01*
X96272371Y-117157324D01*
X96150502Y-117770000D01*
X96272371Y-118382676D01*
X96619424Y-118902078D01*
X96825839Y-119040000D01*
X96619424Y-119177922D01*
X96272371Y-119697324D01*
X96150502Y-120310000D01*
X96272371Y-120922676D01*
X96619424Y-121442078D01*
X97138826Y-121789131D01*
X97751502Y-121911000D01*
X98348498Y-121911000D01*
X98961174Y-121789131D01*
X99449000Y-121463176D01*
X99449000Y-123832407D01*
X99162000Y-123774288D01*
X96938000Y-123774288D01*
X96659696Y-123826654D01*
X96404091Y-123991132D01*
X96232615Y-124242095D01*
X96172288Y-124540000D01*
X96172288Y-126240000D01*
X96224654Y-126518304D01*
X96389132Y-126773909D01*
X96640095Y-126945385D01*
X96938000Y-127005712D01*
X98789134Y-127005712D01*
X98788775Y-127417650D01*
X98986423Y-127895994D01*
X99039337Y-127949000D01*
X97588859Y-127949000D01*
X97387919Y-127747709D01*
X96909920Y-127549226D01*
X96392350Y-127548775D01*
X95914006Y-127746423D01*
X95547709Y-128112081D01*
X95451180Y-128344549D01*
X95451225Y-128292350D01*
X95451000Y-128291805D01*
X95451000Y-127850000D01*
X95451225Y-127592350D01*
X95448810Y-127586506D01*
X95412461Y-127362513D01*
X95401000Y-127328130D01*
X95401000Y-119861031D01*
X95454657Y-119667312D01*
X95540774Y-119459920D01*
X95541225Y-118942350D01*
X95489549Y-118817284D01*
X95472754Y-118695971D01*
X95336432Y-118430854D01*
X95136432Y-118180854D01*
X94842181Y-117958168D01*
X94550000Y-117899000D01*
X94240561Y-117899000D01*
X93982350Y-117898775D01*
X93981805Y-117899000D01*
X93400561Y-117899000D01*
X93142350Y-117898775D01*
X93141805Y-117899000D01*
X93100000Y-117899000D01*
X92706860Y-118010123D01*
X92488886Y-118213490D01*
X92345144Y-118414729D01*
X92297709Y-118462081D01*
X92278808Y-118507599D01*
X92238886Y-118563490D01*
X92158168Y-118707819D01*
X92122470Y-118884103D01*
X92099226Y-118940080D01*
X92099175Y-118999138D01*
X92099000Y-119000000D01*
X92099000Y-119199439D01*
X92098775Y-119457650D01*
X92099000Y-119458195D01*
X92099000Y-119500000D01*
X92210123Y-119893140D01*
X92413490Y-120111114D01*
X92614729Y-120254856D01*
X92662081Y-120302291D01*
X92707599Y-120321192D01*
X92763490Y-120361114D01*
X92899000Y-120436900D01*
X92899000Y-127253242D01*
X92860198Y-127563656D01*
X92849226Y-127590080D01*
X92848775Y-128107650D01*
X92868042Y-128154280D01*
X92871603Y-128236190D01*
X92849226Y-128290080D01*
X92848775Y-128807650D01*
X92952938Y-129059744D01*
X93006023Y-129236386D01*
X93156023Y-129486386D01*
X93261677Y-129623650D01*
X93507819Y-129791832D01*
X93800000Y-129851000D01*
X94149439Y-129851000D01*
X94188667Y-129851034D01*
X94119615Y-129952095D01*
X94059288Y-130250000D01*
X94059288Y-131750000D01*
X94111654Y-132028304D01*
X94276132Y-132283909D01*
X94527095Y-132455385D01*
X94825000Y-132515712D01*
X96075000Y-132515712D01*
X96353304Y-132463346D01*
X96608909Y-132298868D01*
X96630009Y-132267987D01*
X96636654Y-132303304D01*
X96801132Y-132558909D01*
X97052095Y-132730385D01*
X97350000Y-132790712D01*
X102350000Y-132790712D01*
X102628304Y-132738346D01*
X102883909Y-132573868D01*
X103049853Y-132331002D01*
X103547725Y-132537736D01*
X104114000Y-132538231D01*
X104114000Y-134715000D01*
X104182585Y-135059798D01*
X104323705Y-135270999D01*
X104377897Y-135352103D01*
X104968234Y-135942441D01*
X104712990Y-136112990D01*
X103888980Y-136937000D01*
X91211020Y-136937000D01*
X91103000Y-136828980D01*
X91103000Y-134662129D01*
X91290774Y-134209920D01*
X91291225Y-133692350D01*
X91241000Y-133570796D01*
X91241000Y-133479789D01*
X91290774Y-133359920D01*
X91291225Y-132842350D01*
X91241000Y-132720796D01*
X91241000Y-132579789D01*
X91290774Y-132459920D01*
X91291225Y-131942350D01*
X91093577Y-131464006D01*
X90727919Y-131097709D01*
X90249920Y-130899226D01*
X89732350Y-130898775D01*
X89254006Y-131096423D01*
X88887709Y-131462081D01*
X88689226Y-131940080D01*
X88688775Y-132457650D01*
X88739000Y-132579204D01*
X88739000Y-132720211D01*
X88689226Y-132840080D01*
X88688775Y-133357650D01*
X88739000Y-133479204D01*
X88739000Y-133570211D01*
X88689226Y-133690080D01*
X88688775Y-134207650D01*
X88877000Y-134663189D01*
X88877000Y-137290000D01*
X88961722Y-137715927D01*
X89202990Y-138077010D01*
X89962990Y-138837010D01*
X90324073Y-139078278D01*
X90750000Y-139163000D01*
X104350000Y-139163000D01*
X104775927Y-139078278D01*
X105137010Y-138837010D01*
X105961020Y-138013000D01*
X127788980Y-138013000D01*
X127817288Y-138041308D01*
X127817288Y-139174000D01*
X70604852Y-139174000D01*
X69926957Y-136402866D01*
X69866321Y-136272810D01*
X69811409Y-136140240D01*
X67318522Y-132409371D01*
X67204575Y-132295425D01*
X67090629Y-132181478D01*
X65980049Y-131439412D01*
X66350000Y-131513000D01*
X66808284Y-131513000D01*
X67140080Y-131650774D01*
X67657650Y-131651225D01*
X67814588Y-131586379D01*
X68090080Y-131700774D01*
X68607650Y-131701225D01*
X69063189Y-131513000D01*
X77287000Y-131513000D01*
X77287000Y-133350000D01*
X77299000Y-133410328D01*
X77299000Y-135300000D01*
X77413257Y-135874408D01*
X77738633Y-136361367D01*
X78225592Y-136686743D01*
X78800000Y-136801000D01*
X79374408Y-136686743D01*
X79861367Y-136361367D01*
X80186743Y-135874408D01*
X80301000Y-135300000D01*
X80301000Y-133410328D01*
X80313000Y-133350000D01*
X80313000Y-117500000D01*
X80278195Y-117325021D01*
X80250957Y-114791925D01*
X80152350Y-114427923D01*
X79956195Y-114203437D01*
X79106195Y-113553437D01*
X78942181Y-113458168D01*
X78650000Y-113399000D01*
X77900000Y-113399000D01*
X77500784Y-113513896D01*
X77284757Y-113719330D01*
X77062380Y-114037011D01*
X77032500Y-114055762D01*
X76861533Y-114299977D01*
X76799048Y-114591466D01*
X76749048Y-118991466D01*
X76835770Y-119350428D01*
X77024438Y-119581242D01*
X77287000Y-119796065D01*
X77287000Y-129287000D01*
X69062129Y-129287000D01*
X68609920Y-129099226D01*
X68092350Y-129098775D01*
X67935412Y-129163621D01*
X67659920Y-129049226D01*
X67142350Y-129048775D01*
X66739323Y-129215303D01*
X64063000Y-126538980D01*
X64063000Y-125812129D01*
X64250774Y-125359920D01*
X64251225Y-124842350D01*
X64053577Y-124364006D01*
X63901078Y-124211240D01*
X63901225Y-124042350D01*
X63703577Y-123564006D01*
X63337919Y-123197709D01*
X62859920Y-122999226D01*
X62342350Y-122998775D01*
X61864006Y-123196423D01*
X61497709Y-123562081D01*
X61299226Y-124040080D01*
X61298775Y-124557650D01*
X61496423Y-125035994D01*
X61555699Y-125095374D01*
X61571722Y-125175927D01*
X61648833Y-125291331D01*
X61648775Y-125357650D01*
X61837000Y-125813189D01*
X61837000Y-127000000D01*
X61921722Y-127425927D01*
X62131579Y-127740000D01*
X62162990Y-127787010D01*
X65483828Y-131107848D01*
X63359760Y-129688591D01*
X63236425Y-129637504D01*
X63062004Y-129565256D01*
X59326000Y-128822119D01*
X59326000Y-110044807D01*
X62248524Y-110044807D01*
X62666456Y-111056280D01*
X63439649Y-111830824D01*
X64450392Y-112250521D01*
X65544807Y-112251476D01*
X66556280Y-111833544D01*
X67330824Y-111060351D01*
X67750521Y-110049608D01*
X67751476Y-108955193D01*
X67333544Y-107943720D01*
X66560351Y-107169176D01*
X65549608Y-106749479D01*
X64455193Y-106748524D01*
X63443720Y-107166456D01*
X62669176Y-107939649D01*
X62249479Y-108950392D01*
X62248524Y-110044807D01*
X59326000Y-110044807D01*
X59326000Y-101175861D01*
X82619505Y-101175861D01*
X82923449Y-101911461D01*
X83485758Y-102474752D01*
X84220826Y-102779979D01*
X85016746Y-102780674D01*
X85752346Y-102476730D01*
X86315637Y-101914421D01*
X86620864Y-101179353D01*
X86621559Y-100383433D01*
X86317615Y-99647833D01*
X85755306Y-99084542D01*
X85020238Y-98779315D01*
X84224318Y-98778620D01*
X83488718Y-99082564D01*
X82925427Y-99644873D01*
X82620200Y-100379941D01*
X82619505Y-101175861D01*
X59326000Y-101175861D01*
X59326000Y-90251799D01*
X61586364Y-89903285D01*
X61391786Y-90047607D01*
X60941786Y-90547607D01*
X60813308Y-90745936D01*
X60749112Y-91037054D01*
X60699112Y-93937054D01*
X60715674Y-94107375D01*
X60834757Y-94380670D01*
X61184757Y-94880670D01*
X61507819Y-95141832D01*
X61800000Y-95201000D01*
X64000000Y-95201000D01*
X64299477Y-95138705D01*
X64543828Y-94967931D01*
X66541280Y-92870606D01*
X67604282Y-91776567D01*
X79198441Y-91776567D01*
X79502385Y-92512167D01*
X80064694Y-93075458D01*
X80799762Y-93380685D01*
X81595682Y-93381380D01*
X82331282Y-93077436D01*
X82894573Y-92515127D01*
X83199800Y-91780059D01*
X83200044Y-91500000D01*
X83734288Y-91500000D01*
X83734288Y-93500000D01*
X83786654Y-93778304D01*
X83951132Y-94033909D01*
X84202095Y-94205385D01*
X84500000Y-94265712D01*
X88500000Y-94265712D01*
X88778304Y-94213346D01*
X89033909Y-94048868D01*
X89205385Y-93797905D01*
X89265712Y-93500000D01*
X89265712Y-91500000D01*
X89213346Y-91221696D01*
X89048868Y-90966091D01*
X88797905Y-90794615D01*
X88500000Y-90734288D01*
X88163000Y-90734288D01*
X88163000Y-90238838D01*
X88438838Y-89963000D01*
X90799995Y-89963000D01*
X90800000Y-89963001D01*
X91330816Y-89857414D01*
X91436403Y-89836412D01*
X91975919Y-89475919D01*
X93165996Y-88285841D01*
X92913588Y-88663597D01*
X92913588Y-88663598D01*
X92786999Y-89300000D01*
X92787000Y-89300005D01*
X92787000Y-90734288D01*
X92450000Y-90734288D01*
X92171696Y-90786654D01*
X91916091Y-90951132D01*
X91744615Y-91202095D01*
X91684288Y-91500000D01*
X91684288Y-93500000D01*
X91736654Y-93778304D01*
X91901132Y-94033909D01*
X92152095Y-94205385D01*
X92450000Y-94265712D01*
X96450000Y-94265712D01*
X96728304Y-94213346D01*
X96983909Y-94048868D01*
X97155385Y-93797905D01*
X97215712Y-93500000D01*
X97215712Y-91500000D01*
X97163346Y-91221696D01*
X96998868Y-90966091D01*
X96747905Y-90794615D01*
X96450000Y-90734288D01*
X96113000Y-90734288D01*
X96113000Y-89988838D01*
X96338837Y-89763000D01*
X98549995Y-89763000D01*
X98550000Y-89763001D01*
X99109263Y-89651756D01*
X99186403Y-89636412D01*
X99725919Y-89275919D01*
X101635919Y-87365919D01*
X101848267Y-87048117D01*
X101996412Y-86826403D01*
X102028798Y-86663587D01*
X102123001Y-86190000D01*
X102123000Y-86189995D01*
X102123000Y-85314061D01*
X102319769Y-85019575D01*
X102365000Y-84792184D01*
X102410231Y-85019575D01*
X102846594Y-85672639D01*
X103499658Y-86109002D01*
X104270000Y-86262233D01*
X105040342Y-86109002D01*
X105693406Y-85672639D01*
X106129769Y-85019575D01*
X106175000Y-84792184D01*
X106220231Y-85019575D01*
X106417000Y-85314061D01*
X106417000Y-86497163D01*
X106227162Y-86687000D01*
X103826005Y-86687000D01*
X103826000Y-86686999D01*
X103189598Y-86813587D01*
X103024231Y-86924082D01*
X102650081Y-87174081D01*
X102650079Y-87174084D01*
X101224081Y-88600081D01*
X100863588Y-89139597D01*
X100863588Y-89139598D01*
X100736999Y-89776000D01*
X100737000Y-89776005D01*
X100737000Y-90734288D01*
X100400000Y-90734288D01*
X100121696Y-90786654D01*
X99866091Y-90951132D01*
X99694615Y-91202095D01*
X99634288Y-91500000D01*
X99634288Y-93500000D01*
X99686654Y-93778304D01*
X99851132Y-94033909D01*
X100102095Y-94205385D01*
X100400000Y-94265712D01*
X104400000Y-94265712D01*
X104678304Y-94213346D01*
X104933909Y-94048868D01*
X105105385Y-93797905D01*
X105165712Y-93500000D01*
X105165712Y-91500000D01*
X105113346Y-91221696D01*
X104948868Y-90966091D01*
X104697905Y-90794615D01*
X104400000Y-90734288D01*
X104063000Y-90734288D01*
X104063000Y-90464838D01*
X104514837Y-90013000D01*
X106915995Y-90013000D01*
X106916000Y-90013001D01*
X107458070Y-89905176D01*
X107552403Y-89886412D01*
X108091919Y-89525919D01*
X108091920Y-89525918D01*
X109255916Y-88361921D01*
X109255919Y-88361919D01*
X109573250Y-87887000D01*
X109616413Y-87822402D01*
X109743001Y-87186000D01*
X109743000Y-87185995D01*
X109743000Y-85314061D01*
X109939769Y-85019575D01*
X109985000Y-84792184D01*
X110030231Y-85019575D01*
X110466594Y-85672639D01*
X111119658Y-86109002D01*
X111890000Y-86262233D01*
X112660342Y-86109002D01*
X113313406Y-85672639D01*
X113749769Y-85019575D01*
X113795000Y-84792184D01*
X113840231Y-85019575D01*
X114037000Y-85314061D01*
X114037000Y-86811163D01*
X114011162Y-86837000D01*
X111626005Y-86837000D01*
X111626000Y-86836999D01*
X110989598Y-86963587D01*
X110899063Y-87024081D01*
X110450081Y-87324081D01*
X110450079Y-87324084D01*
X109174081Y-88600081D01*
X108813588Y-89139597D01*
X108813588Y-89139598D01*
X108686999Y-89776000D01*
X108687000Y-89776005D01*
X108687000Y-90734288D01*
X108350000Y-90734288D01*
X108071696Y-90786654D01*
X107816091Y-90951132D01*
X107644615Y-91202095D01*
X107584288Y-91500000D01*
X107584288Y-93500000D01*
X107636654Y-93778304D01*
X107801132Y-94033909D01*
X108052095Y-94205385D01*
X108350000Y-94265712D01*
X112350000Y-94265712D01*
X112628304Y-94213346D01*
X112883909Y-94048868D01*
X113055385Y-93797905D01*
X113115712Y-93500000D01*
X113115712Y-91500000D01*
X115534288Y-91500000D01*
X115534288Y-93500000D01*
X115586654Y-93778304D01*
X115751132Y-94033909D01*
X116002095Y-94205385D01*
X116300000Y-94265712D01*
X120300000Y-94265712D01*
X120578304Y-94213346D01*
X120833909Y-94048868D01*
X121005385Y-93797905D01*
X121065712Y-93500000D01*
X121065712Y-91500000D01*
X121013346Y-91221696D01*
X120848868Y-90966091D01*
X120597905Y-90794615D01*
X120300000Y-90734288D01*
X119963000Y-90734288D01*
X119963000Y-90464838D01*
X120564837Y-89863000D01*
X122899995Y-89863000D01*
X122900000Y-89863001D01*
X123430816Y-89757414D01*
X123536403Y-89736412D01*
X124075919Y-89375919D01*
X124075920Y-89375918D01*
X126055916Y-87395921D01*
X126055919Y-87395919D01*
X126416412Y-86856403D01*
X126450108Y-86687000D01*
X126543001Y-86220000D01*
X126543000Y-86219995D01*
X126543000Y-85314061D01*
X126739769Y-85019575D01*
X126785000Y-84792184D01*
X126830231Y-85019575D01*
X127266594Y-85672639D01*
X127919658Y-86109002D01*
X128690000Y-86262233D01*
X129460342Y-86109002D01*
X130113406Y-85672639D01*
X130549769Y-85019575D01*
X130595000Y-84792184D01*
X130640231Y-85019575D01*
X130837000Y-85314061D01*
X130837000Y-86537000D01*
X127826005Y-86537000D01*
X127826000Y-86536999D01*
X127189598Y-86663587D01*
X127075226Y-86740008D01*
X126650081Y-87024081D01*
X126650079Y-87024084D01*
X125074081Y-88600081D01*
X124713588Y-89139597D01*
X124713588Y-89139598D01*
X124586999Y-89776000D01*
X124587000Y-89776005D01*
X124587000Y-90734288D01*
X124250000Y-90734288D01*
X123971696Y-90786654D01*
X123716091Y-90951132D01*
X123544615Y-91202095D01*
X123484288Y-91500000D01*
X123484288Y-93500000D01*
X123536654Y-93778304D01*
X123701132Y-94033909D01*
X123952095Y-94205385D01*
X124250000Y-94265712D01*
X128250000Y-94265712D01*
X128528304Y-94213346D01*
X128783909Y-94048868D01*
X128955385Y-93797905D01*
X129015712Y-93500000D01*
X129015712Y-91500000D01*
X128963346Y-91221696D01*
X128798868Y-90966091D01*
X128547905Y-90794615D01*
X128250000Y-90734288D01*
X127913000Y-90734288D01*
X127913000Y-90464838D01*
X128514837Y-89863000D01*
X131949995Y-89863000D01*
X131950000Y-89863001D01*
X132480816Y-89757414D01*
X132586403Y-89736412D01*
X133125919Y-89375919D01*
X133125920Y-89375918D01*
X133675916Y-88825921D01*
X133675919Y-88825919D01*
X134036412Y-88286403D01*
X134163000Y-87650000D01*
X134163000Y-85314061D01*
X134359769Y-85019575D01*
X134513000Y-84249233D01*
X134513000Y-83150767D01*
X134359769Y-82380425D01*
X133923406Y-81727361D01*
X133270342Y-81290998D01*
X132500000Y-81137767D01*
X131729658Y-81290998D01*
X131076594Y-81727361D01*
X130640231Y-82380425D01*
X130595000Y-82607816D01*
X130549769Y-82380425D01*
X130113406Y-81727361D01*
X129460342Y-81290998D01*
X128690000Y-81137767D01*
X127919658Y-81290998D01*
X127266594Y-81727361D01*
X126830231Y-82380425D01*
X126785000Y-82607816D01*
X126739769Y-82380425D01*
X126303406Y-81727361D01*
X125650342Y-81290998D01*
X124880000Y-81137767D01*
X124109658Y-81290998D01*
X123456594Y-81727361D01*
X123097712Y-82264466D01*
X123097712Y-81938000D01*
X123045346Y-81659696D01*
X122880868Y-81404091D01*
X122629905Y-81232615D01*
X122332000Y-81172288D01*
X119808000Y-81172288D01*
X119529696Y-81224654D01*
X119274091Y-81389132D01*
X119102615Y-81640095D01*
X119042288Y-81938000D01*
X119042288Y-85462000D01*
X119094654Y-85740304D01*
X119259132Y-85995909D01*
X119510095Y-86167385D01*
X119808000Y-86227712D01*
X122332000Y-86227712D01*
X122564128Y-86184035D01*
X122211162Y-86537000D01*
X119876005Y-86537000D01*
X119876000Y-86536999D01*
X119239598Y-86663587D01*
X119125226Y-86740008D01*
X118700081Y-87024081D01*
X118700079Y-87024084D01*
X117124081Y-88600081D01*
X116763588Y-89139597D01*
X116763588Y-89139598D01*
X116636999Y-89776000D01*
X116637000Y-89776005D01*
X116637000Y-90734288D01*
X116300000Y-90734288D01*
X116021696Y-90786654D01*
X115766091Y-90951132D01*
X115594615Y-91202095D01*
X115534288Y-91500000D01*
X113115712Y-91500000D01*
X113063346Y-91221696D01*
X112898868Y-90966091D01*
X112647905Y-90794615D01*
X112350000Y-90734288D01*
X112013000Y-90734288D01*
X112013000Y-90464838D01*
X112314837Y-90163000D01*
X114699995Y-90163000D01*
X114700000Y-90163001D01*
X115230816Y-90057414D01*
X115336403Y-90036412D01*
X115875919Y-89675919D01*
X115875920Y-89675918D01*
X116875916Y-88675921D01*
X116875919Y-88675919D01*
X117199968Y-88190945D01*
X117236413Y-88136402D01*
X117363001Y-87500000D01*
X117363000Y-87499995D01*
X117363000Y-85314061D01*
X117559769Y-85019575D01*
X117713000Y-84249233D01*
X117713000Y-83150767D01*
X117559769Y-82380425D01*
X117123406Y-81727361D01*
X116470342Y-81290998D01*
X115700000Y-81137767D01*
X114929658Y-81290998D01*
X114276594Y-81727361D01*
X113840231Y-82380425D01*
X113795000Y-82607816D01*
X113749769Y-82380425D01*
X113313406Y-81727361D01*
X112660342Y-81290998D01*
X111890000Y-81137767D01*
X111119658Y-81290998D01*
X110466594Y-81727361D01*
X110030231Y-82380425D01*
X109985000Y-82607816D01*
X109939769Y-82380425D01*
X109503406Y-81727361D01*
X108850342Y-81290998D01*
X108080000Y-81137767D01*
X107309658Y-81290998D01*
X106656594Y-81727361D01*
X106220231Y-82380425D01*
X106175000Y-82607816D01*
X106129769Y-82380425D01*
X105693406Y-81727361D01*
X105040342Y-81290998D01*
X104270000Y-81137767D01*
X103499658Y-81290998D01*
X102846594Y-81727361D01*
X102410231Y-82380425D01*
X102365000Y-82607816D01*
X102319769Y-82380425D01*
X101883406Y-81727361D01*
X101230342Y-81290998D01*
X100460000Y-81137767D01*
X99689658Y-81290998D01*
X99036594Y-81727361D01*
X98600231Y-82380425D01*
X98555000Y-82607816D01*
X98509769Y-82380425D01*
X98073406Y-81727361D01*
X97420342Y-81290998D01*
X96650000Y-81137767D01*
X95879658Y-81290998D01*
X95226594Y-81727361D01*
X94790231Y-82380425D01*
X94745000Y-82607816D01*
X94699769Y-82380425D01*
X94263406Y-81727361D01*
X93610342Y-81290998D01*
X92840000Y-81137767D01*
X92069658Y-81290998D01*
X91416594Y-81727361D01*
X91057712Y-82264466D01*
X91057712Y-81938000D01*
X91005346Y-81659696D01*
X90840868Y-81404091D01*
X90589905Y-81232615D01*
X90292000Y-81172288D01*
X87768000Y-81172288D01*
X87489696Y-81224654D01*
X87234091Y-81389132D01*
X87062615Y-81640095D01*
X87002288Y-81938000D01*
X87002288Y-85462000D01*
X87054654Y-85740304D01*
X87219132Y-85995909D01*
X87470095Y-86167385D01*
X87768000Y-86227712D01*
X90292000Y-86227712D01*
X90570304Y-86175346D01*
X90577351Y-86170811D01*
X90111162Y-86637000D01*
X87750005Y-86637000D01*
X87750000Y-86636999D01*
X87232142Y-86740008D01*
X87113597Y-86763588D01*
X86814276Y-86963588D01*
X86574081Y-87124081D01*
X85324081Y-88374081D01*
X84963588Y-88913597D01*
X84963588Y-88913598D01*
X84836999Y-89550000D01*
X84837000Y-89550005D01*
X84837000Y-90734288D01*
X84500000Y-90734288D01*
X84221696Y-90786654D01*
X83966091Y-90951132D01*
X83794615Y-91202095D01*
X83734288Y-91500000D01*
X83200044Y-91500000D01*
X83200495Y-90984139D01*
X82896551Y-90248539D01*
X82334242Y-89685248D01*
X81599174Y-89380021D01*
X80803254Y-89379326D01*
X80067654Y-89683270D01*
X79504363Y-90245579D01*
X79199136Y-90980647D01*
X79198441Y-91776567D01*
X67604282Y-91776567D01*
X73164712Y-86053789D01*
X78292061Y-86098766D01*
X78345508Y-86109589D01*
X78430095Y-86167385D01*
X78728000Y-86227712D01*
X81252000Y-86227712D01*
X81530304Y-86175346D01*
X81785909Y-86010868D01*
X81957385Y-85759905D01*
X81962973Y-85732312D01*
X81995430Y-85683511D01*
X82050941Y-85390613D01*
X82017712Y-82732293D01*
X82017712Y-81938000D01*
X82007077Y-81881478D01*
X82000941Y-81390613D01*
X81948138Y-81123224D01*
X81785453Y-80873416D01*
X81538396Y-80706582D01*
X81245896Y-80649011D01*
X72095896Y-80699011D01*
X71813585Y-80755761D01*
X71566053Y-80921889D01*
X69774130Y-82733613D01*
X70619956Y-79826000D01*
X139164801Y-79826000D01*
X139174931Y-80039201D01*
X139174931Y-80039201D01*
G37*
X139174931Y-80039201D02*
X139199249Y-80136952D01*
X139208799Y-80237226D01*
X140390747Y-84179282D01*
X140541756Y-84464004D01*
X143142294Y-87653676D01*
X143154304Y-87663597D01*
X143390766Y-87858936D01*
X147013983Y-89810627D01*
X147322092Y-89905176D01*
X150674000Y-90246221D01*
X150674000Y-94096448D01*
X150175840Y-93763588D01*
X149539437Y-93637000D01*
X148760563Y-93637000D01*
X148124160Y-93763588D01*
X147584644Y-94124081D01*
X147224151Y-94663597D01*
X147097563Y-95300000D01*
X147224151Y-95936403D01*
X147584644Y-96475919D01*
X147725446Y-96570000D01*
X147584644Y-96664081D01*
X147224151Y-97203597D01*
X147097563Y-97840000D01*
X147224151Y-98476403D01*
X147584644Y-99015919D01*
X147725446Y-99110000D01*
X147584644Y-99204081D01*
X147224151Y-99743597D01*
X147097563Y-100380000D01*
X147224151Y-101016403D01*
X147584644Y-101555919D01*
X148124160Y-101916412D01*
X148760563Y-102043000D01*
X149539437Y-102043000D01*
X150175840Y-101916412D01*
X150674000Y-101583552D01*
X150674000Y-111644718D01*
X150662000Y-111642288D01*
X150463000Y-111642288D01*
X150463000Y-106725000D01*
X150382084Y-106318208D01*
X150151655Y-105973345D01*
X150151652Y-105973343D01*
X148426655Y-104248345D01*
X148081793Y-104017916D01*
X147675000Y-103936999D01*
X147674995Y-103937000D01*
X144550309Y-103937000D01*
X143345569Y-102732259D01*
X143535994Y-102653577D01*
X143745791Y-102444146D01*
X144085994Y-102303577D01*
X144452291Y-101937919D01*
X144650774Y-101459920D01*
X144650996Y-101204632D01*
X144982814Y-100872814D01*
X145199803Y-100548066D01*
X145276000Y-100165000D01*
X145276000Y-93200000D01*
X145199803Y-92816934D01*
X144982814Y-92492186D01*
X144100471Y-91609843D01*
X144066299Y-91558701D01*
X143737658Y-91339110D01*
X143350000Y-91262000D01*
X139751000Y-91262000D01*
X139751000Y-88499033D01*
X139852291Y-88397919D01*
X140050774Y-87919920D01*
X140051225Y-87402350D01*
X139853577Y-86924006D01*
X139487919Y-86557709D01*
X139009920Y-86359226D01*
X138492350Y-86358775D01*
X138370796Y-86409000D01*
X138303871Y-86409000D01*
X138159920Y-86349226D01*
X137642350Y-86348775D01*
X137164006Y-86546423D01*
X136797709Y-86912081D01*
X136599226Y-87390080D01*
X136598775Y-87907650D01*
X136796423Y-88385994D01*
X137162081Y-88752291D01*
X137640080Y-88950774D01*
X137749000Y-88950869D01*
X137749000Y-91262000D01*
X135000000Y-91262000D01*
X134612342Y-91339110D01*
X134448209Y-91448780D01*
X134442350Y-91448775D01*
X133964006Y-91646423D01*
X133597709Y-92012081D01*
X133579600Y-92055692D01*
X133239006Y-92196423D01*
X132872709Y-92562081D01*
X132840416Y-92639851D01*
X132764006Y-92671423D01*
X132397709Y-93037081D01*
X132199226Y-93515080D01*
X132198775Y-94032650D01*
X132396423Y-94510994D01*
X132437000Y-94551642D01*
X132437000Y-97499691D01*
X131549690Y-98387000D01*
X89350005Y-98387000D01*
X89350000Y-98386999D01*
X88943207Y-98467916D01*
X88896687Y-98499000D01*
X88598345Y-98698345D01*
X88598343Y-98698348D01*
X87048345Y-100248345D01*
X86817916Y-100593207D01*
X86736999Y-101000000D01*
X86737000Y-101000005D01*
X86737000Y-117235637D01*
X86647554Y-117682868D01*
X86499226Y-118040080D01*
X86498775Y-118557650D01*
X86529475Y-118631950D01*
X86519234Y-118841895D01*
X86499226Y-118890080D01*
X86498905Y-119258646D01*
X86449892Y-120263409D01*
X86477760Y-120505840D01*
X86614746Y-120770615D01*
X86843951Y-120961234D01*
X86903211Y-120993143D01*
X87062081Y-121152291D01*
X87540080Y-121350774D01*
X87691113Y-121350906D01*
X87922595Y-121397483D01*
X88207689Y-121310348D01*
X88372064Y-121221312D01*
X88535994Y-121153577D01*
X88582121Y-121107531D01*
X88845041Y-120965116D01*
X89235994Y-120803577D01*
X89346000Y-120693763D01*
X89407689Y-120660348D01*
X89703781Y-120369556D01*
X89796050Y-120086083D01*
X89900477Y-119181048D01*
X89950774Y-119059920D01*
X89951225Y-118542350D01*
X89753577Y-118064006D01*
X89387919Y-117697709D01*
X89357715Y-117685167D01*
X88863000Y-117055530D01*
X88863000Y-101440310D01*
X89790309Y-100513000D01*
X122906146Y-100513000D01*
X122717585Y-100795202D01*
X122649000Y-101140000D01*
X122649000Y-101249216D01*
X122142350Y-101248775D01*
X122000242Y-101307493D01*
X121859920Y-101249226D01*
X121342350Y-101248775D01*
X121220796Y-101299000D01*
X117392289Y-101299000D01*
X117272420Y-101249226D01*
X116754850Y-101248775D01*
X116633296Y-101299000D01*
X109404789Y-101299000D01*
X109284920Y-101249226D01*
X108767350Y-101248775D01*
X108645796Y-101299000D01*
X101525202Y-101299000D01*
X101284920Y-101199226D01*
X100767350Y-101198775D01*
X100645796Y-101249000D01*
X93429789Y-101249000D01*
X93309920Y-101199226D01*
X92792350Y-101198775D01*
X92314006Y-101396423D01*
X91947709Y-101762081D01*
X91749226Y-102240080D01*
X91748775Y-102757650D01*
X91946423Y-103235994D01*
X92312081Y-103602291D01*
X92790080Y-103800774D01*
X93307650Y-103801225D01*
X93429204Y-103751000D01*
X95500406Y-103751000D01*
X95349226Y-104115080D01*
X95348775Y-104632650D01*
X95546423Y-105110994D01*
X95912081Y-105477291D01*
X96390080Y-105675774D01*
X96632649Y-105675985D01*
X96861068Y-105828609D01*
X96921449Y-105840620D01*
X97225000Y-105901001D01*
X97225005Y-105901000D01*
X101561054Y-105901000D01*
X101712081Y-106052291D01*
X102190080Y-106250774D01*
X102707650Y-106251225D01*
X103185994Y-106053577D01*
X103552291Y-105687919D01*
X103750774Y-105209920D01*
X103751225Y-104692350D01*
X103553577Y-104214006D01*
X103187919Y-103847709D01*
X103075432Y-103801000D01*
X103999000Y-103801000D01*
X103999000Y-109970211D01*
X103949226Y-110090080D01*
X103948775Y-110607650D01*
X104146423Y-111085994D01*
X104459890Y-111400009D01*
X104397709Y-111462081D01*
X104199226Y-111940080D01*
X104198775Y-112457650D01*
X104396423Y-112935994D01*
X104762081Y-113302291D01*
X105055135Y-113423978D01*
X104904006Y-113486423D01*
X104537709Y-113852081D01*
X104339226Y-114330080D01*
X104338775Y-114847650D01*
X104399564Y-114994770D01*
X104339226Y-115140080D01*
X104339131Y-115249000D01*
X101500000Y-115249000D01*
X101116934Y-115325197D01*
X100792186Y-115542186D01*
X99742186Y-116592186D01*
X99596101Y-116810818D01*
X99480576Y-116637922D01*
X98961174Y-116290869D01*
X98348498Y-116169000D01*
X97751502Y-116169000D01*
X97138826Y-116290869D01*
X96619424Y-116637922D01*
X96272371Y-117157324D01*
X96150502Y-117770000D01*
X96272371Y-118382676D01*
X96619424Y-118902078D01*
X96825839Y-119040000D01*
X96619424Y-119177922D01*
X96272371Y-119697324D01*
X96150502Y-120310000D01*
X96272371Y-120922676D01*
X96619424Y-121442078D01*
X97138826Y-121789131D01*
X97751502Y-121911000D01*
X98348498Y-121911000D01*
X98961174Y-121789131D01*
X99449000Y-121463176D01*
X99449000Y-123832407D01*
X99162000Y-123774288D01*
X96938000Y-123774288D01*
X96659696Y-123826654D01*
X96404091Y-123991132D01*
X96232615Y-124242095D01*
X96172288Y-124540000D01*
X96172288Y-126240000D01*
X96224654Y-126518304D01*
X96389132Y-126773909D01*
X96640095Y-126945385D01*
X96938000Y-127005712D01*
X98789134Y-127005712D01*
X98788775Y-127417650D01*
X98986423Y-127895994D01*
X99039337Y-127949000D01*
X97588859Y-127949000D01*
X97387919Y-127747709D01*
X96909920Y-127549226D01*
X96392350Y-127548775D01*
X95914006Y-127746423D01*
X95547709Y-128112081D01*
X95451180Y-128344549D01*
X95451225Y-128292350D01*
X95451000Y-128291805D01*
X95451000Y-127850000D01*
X95451225Y-127592350D01*
X95448810Y-127586506D01*
X95412461Y-127362513D01*
X95401000Y-127328130D01*
X95401000Y-119861031D01*
X95454657Y-119667312D01*
X95540774Y-119459920D01*
X95541225Y-118942350D01*
X95489549Y-118817284D01*
X95472754Y-118695971D01*
X95336432Y-118430854D01*
X95136432Y-118180854D01*
X94842181Y-117958168D01*
X94550000Y-117899000D01*
X94240561Y-117899000D01*
X93982350Y-117898775D01*
X93981805Y-117899000D01*
X93400561Y-117899000D01*
X93142350Y-117898775D01*
X93141805Y-117899000D01*
X93100000Y-117899000D01*
X92706860Y-118010123D01*
X92488886Y-118213490D01*
X92345144Y-118414729D01*
X92297709Y-118462081D01*
X92278808Y-118507599D01*
X92238886Y-118563490D01*
X92158168Y-118707819D01*
X92122470Y-118884103D01*
X92099226Y-118940080D01*
X92099175Y-118999138D01*
X92099000Y-119000000D01*
X92099000Y-119199439D01*
X92098775Y-119457650D01*
X92099000Y-119458195D01*
X92099000Y-119500000D01*
X92210123Y-119893140D01*
X92413490Y-120111114D01*
X92614729Y-120254856D01*
X92662081Y-120302291D01*
X92707599Y-120321192D01*
X92763490Y-120361114D01*
X92899000Y-120436900D01*
X92899000Y-127253242D01*
X92860198Y-127563656D01*
X92849226Y-127590080D01*
X92848775Y-128107650D01*
X92868042Y-128154280D01*
X92871603Y-128236190D01*
X92849226Y-128290080D01*
X92848775Y-128807650D01*
X92952938Y-129059744D01*
X93006023Y-129236386D01*
X93156023Y-129486386D01*
X93261677Y-129623650D01*
X93507819Y-129791832D01*
X93800000Y-129851000D01*
X94149439Y-129851000D01*
X94188667Y-129851034D01*
X94119615Y-129952095D01*
X94059288Y-130250000D01*
X94059288Y-131750000D01*
X94111654Y-132028304D01*
X94276132Y-132283909D01*
X94527095Y-132455385D01*
X94825000Y-132515712D01*
X96075000Y-132515712D01*
X96353304Y-132463346D01*
X96608909Y-132298868D01*
X96630009Y-132267987D01*
X96636654Y-132303304D01*
X96801132Y-132558909D01*
X97052095Y-132730385D01*
X97350000Y-132790712D01*
X102350000Y-132790712D01*
X102628304Y-132738346D01*
X102883909Y-132573868D01*
X103049853Y-132331002D01*
X103547725Y-132537736D01*
X104114000Y-132538231D01*
X104114000Y-134715000D01*
X104182585Y-135059798D01*
X104323705Y-135270999D01*
X104377897Y-135352103D01*
X104968234Y-135942441D01*
X104712990Y-136112990D01*
X103888980Y-136937000D01*
X91211020Y-136937000D01*
X91103000Y-136828980D01*
X91103000Y-134662129D01*
X91290774Y-134209920D01*
X91291225Y-133692350D01*
X91241000Y-133570796D01*
X91241000Y-133479789D01*
X91290774Y-133359920D01*
X91291225Y-132842350D01*
X91241000Y-132720796D01*
X91241000Y-132579789D01*
X91290774Y-132459920D01*
X91291225Y-131942350D01*
X91093577Y-131464006D01*
X90727919Y-131097709D01*
X90249920Y-130899226D01*
X89732350Y-130898775D01*
X89254006Y-131096423D01*
X88887709Y-131462081D01*
X88689226Y-131940080D01*
X88688775Y-132457650D01*
X88739000Y-132579204D01*
X88739000Y-132720211D01*
X88689226Y-132840080D01*
X88688775Y-133357650D01*
X88739000Y-133479204D01*
X88739000Y-133570211D01*
X88689226Y-133690080D01*
X88688775Y-134207650D01*
X88877000Y-134663189D01*
X88877000Y-137290000D01*
X88961722Y-137715927D01*
X89202990Y-138077010D01*
X89962990Y-138837010D01*
X90324073Y-139078278D01*
X90750000Y-139163000D01*
X104350000Y-139163000D01*
X104775927Y-139078278D01*
X105137010Y-138837010D01*
X105961020Y-138013000D01*
X127788980Y-138013000D01*
X127817288Y-138041308D01*
X127817288Y-139174000D01*
X70604852Y-139174000D01*
X69926957Y-136402866D01*
X69866321Y-136272810D01*
X69811409Y-136140240D01*
X67318522Y-132409371D01*
X67204575Y-132295425D01*
X67090629Y-132181478D01*
X65980049Y-131439412D01*
X66350000Y-131513000D01*
X66808284Y-131513000D01*
X67140080Y-131650774D01*
X67657650Y-131651225D01*
X67814588Y-131586379D01*
X68090080Y-131700774D01*
X68607650Y-131701225D01*
X69063189Y-131513000D01*
X77287000Y-131513000D01*
X77287000Y-133350000D01*
X77299000Y-133410328D01*
X77299000Y-135300000D01*
X77413257Y-135874408D01*
X77738633Y-136361367D01*
X78225592Y-136686743D01*
X78800000Y-136801000D01*
X79374408Y-136686743D01*
X79861367Y-136361367D01*
X80186743Y-135874408D01*
X80301000Y-135300000D01*
X80301000Y-133410328D01*
X80313000Y-133350000D01*
X80313000Y-117500000D01*
X80278195Y-117325021D01*
X80250957Y-114791925D01*
X80152350Y-114427923D01*
X79956195Y-114203437D01*
X79106195Y-113553437D01*
X78942181Y-113458168D01*
X78650000Y-113399000D01*
X77900000Y-113399000D01*
X77500784Y-113513896D01*
X77284757Y-113719330D01*
X77062380Y-114037011D01*
X77032500Y-114055762D01*
X76861533Y-114299977D01*
X76799048Y-114591466D01*
X76749048Y-118991466D01*
X76835770Y-119350428D01*
X77024438Y-119581242D01*
X77287000Y-119796065D01*
X77287000Y-129287000D01*
X69062129Y-129287000D01*
X68609920Y-129099226D01*
X68092350Y-129098775D01*
X67935412Y-129163621D01*
X67659920Y-129049226D01*
X67142350Y-129048775D01*
X66739323Y-129215303D01*
X64063000Y-126538980D01*
X64063000Y-125812129D01*
X64250774Y-125359920D01*
X64251225Y-124842350D01*
X64053577Y-124364006D01*
X63901078Y-124211240D01*
X63901225Y-124042350D01*
X63703577Y-123564006D01*
X63337919Y-123197709D01*
X62859920Y-122999226D01*
X62342350Y-122998775D01*
X61864006Y-123196423D01*
X61497709Y-123562081D01*
X61299226Y-124040080D01*
X61298775Y-124557650D01*
X61496423Y-125035994D01*
X61555699Y-125095374D01*
X61571722Y-125175927D01*
X61648833Y-125291331D01*
X61648775Y-125357650D01*
X61837000Y-125813189D01*
X61837000Y-127000000D01*
X61921722Y-127425927D01*
X62131579Y-127740000D01*
X62162990Y-127787010D01*
X65483828Y-131107848D01*
X63359760Y-129688591D01*
X63236425Y-129637504D01*
X63062004Y-129565256D01*
X59326000Y-128822119D01*
X59326000Y-110044807D01*
X62248524Y-110044807D01*
X62666456Y-111056280D01*
X63439649Y-111830824D01*
X64450392Y-112250521D01*
X65544807Y-112251476D01*
X66556280Y-111833544D01*
X67330824Y-111060351D01*
X67750521Y-110049608D01*
X67751476Y-108955193D01*
X67333544Y-107943720D01*
X66560351Y-107169176D01*
X65549608Y-106749479D01*
X64455193Y-106748524D01*
X63443720Y-107166456D01*
X62669176Y-107939649D01*
X62249479Y-108950392D01*
X62248524Y-110044807D01*
X59326000Y-110044807D01*
X59326000Y-101175861D01*
X82619505Y-101175861D01*
X82923449Y-101911461D01*
X83485758Y-102474752D01*
X84220826Y-102779979D01*
X85016746Y-102780674D01*
X85752346Y-102476730D01*
X86315637Y-101914421D01*
X86620864Y-101179353D01*
X86621559Y-100383433D01*
X86317615Y-99647833D01*
X85755306Y-99084542D01*
X85020238Y-98779315D01*
X84224318Y-98778620D01*
X83488718Y-99082564D01*
X82925427Y-99644873D01*
X82620200Y-100379941D01*
X82619505Y-101175861D01*
X59326000Y-101175861D01*
X59326000Y-90251799D01*
X61586364Y-89903285D01*
X61391786Y-90047607D01*
X60941786Y-90547607D01*
X60813308Y-90745936D01*
X60749112Y-91037054D01*
X60699112Y-93937054D01*
X60715674Y-94107375D01*
X60834757Y-94380670D01*
X61184757Y-94880670D01*
X61507819Y-95141832D01*
X61800000Y-95201000D01*
X64000000Y-95201000D01*
X64299477Y-95138705D01*
X64543828Y-94967931D01*
X66541280Y-92870606D01*
X67604282Y-91776567D01*
X79198441Y-91776567D01*
X79502385Y-92512167D01*
X80064694Y-93075458D01*
X80799762Y-93380685D01*
X81595682Y-93381380D01*
X82331282Y-93077436D01*
X82894573Y-92515127D01*
X83199800Y-91780059D01*
X83200044Y-91500000D01*
X83734288Y-91500000D01*
X83734288Y-93500000D01*
X83786654Y-93778304D01*
X83951132Y-94033909D01*
X84202095Y-94205385D01*
X84500000Y-94265712D01*
X88500000Y-94265712D01*
X88778304Y-94213346D01*
X89033909Y-94048868D01*
X89205385Y-93797905D01*
X89265712Y-93500000D01*
X89265712Y-91500000D01*
X89213346Y-91221696D01*
X89048868Y-90966091D01*
X88797905Y-90794615D01*
X88500000Y-90734288D01*
X88163000Y-90734288D01*
X88163000Y-90238838D01*
X88438838Y-89963000D01*
X90799995Y-89963000D01*
X90800000Y-89963001D01*
X91330816Y-89857414D01*
X91436403Y-89836412D01*
X91975919Y-89475919D01*
X93165996Y-88285841D01*
X92913588Y-88663597D01*
X92913588Y-88663598D01*
X92786999Y-89300000D01*
X92787000Y-89300005D01*
X92787000Y-90734288D01*
X92450000Y-90734288D01*
X92171696Y-90786654D01*
X91916091Y-90951132D01*
X91744615Y-91202095D01*
X91684288Y-91500000D01*
X91684288Y-93500000D01*
X91736654Y-93778304D01*
X91901132Y-94033909D01*
X92152095Y-94205385D01*
X92450000Y-94265712D01*
X96450000Y-94265712D01*
X96728304Y-94213346D01*
X96983909Y-94048868D01*
X97155385Y-93797905D01*
X97215712Y-93500000D01*
X97215712Y-91500000D01*
X97163346Y-91221696D01*
X96998868Y-90966091D01*
X96747905Y-90794615D01*
X96450000Y-90734288D01*
X96113000Y-90734288D01*
X96113000Y-89988838D01*
X96338837Y-89763000D01*
X98549995Y-89763000D01*
X98550000Y-89763001D01*
X99109263Y-89651756D01*
X99186403Y-89636412D01*
X99725919Y-89275919D01*
X101635919Y-87365919D01*
X101848267Y-87048117D01*
X101996412Y-86826403D01*
X102028798Y-86663587D01*
X102123001Y-86190000D01*
X102123000Y-86189995D01*
X102123000Y-85314061D01*
X102319769Y-85019575D01*
X102365000Y-84792184D01*
X102410231Y-85019575D01*
X102846594Y-85672639D01*
X103499658Y-86109002D01*
X104270000Y-86262233D01*
X105040342Y-86109002D01*
X105693406Y-85672639D01*
X106129769Y-85019575D01*
X106175000Y-84792184D01*
X106220231Y-85019575D01*
X106417000Y-85314061D01*
X106417000Y-86497163D01*
X106227162Y-86687000D01*
X103826005Y-86687000D01*
X103826000Y-86686999D01*
X103189598Y-86813587D01*
X103024231Y-86924082D01*
X102650081Y-87174081D01*
X102650079Y-87174084D01*
X101224081Y-88600081D01*
X100863588Y-89139597D01*
X100863588Y-89139598D01*
X100736999Y-89776000D01*
X100737000Y-89776005D01*
X100737000Y-90734288D01*
X100400000Y-90734288D01*
X100121696Y-90786654D01*
X99866091Y-90951132D01*
X99694615Y-91202095D01*
X99634288Y-91500000D01*
X99634288Y-93500000D01*
X99686654Y-93778304D01*
X99851132Y-94033909D01*
X100102095Y-94205385D01*
X100400000Y-94265712D01*
X104400000Y-94265712D01*
X104678304Y-94213346D01*
X104933909Y-94048868D01*
X105105385Y-93797905D01*
X105165712Y-93500000D01*
X105165712Y-91500000D01*
X105113346Y-91221696D01*
X104948868Y-90966091D01*
X104697905Y-90794615D01*
X104400000Y-90734288D01*
X104063000Y-90734288D01*
X104063000Y-90464838D01*
X104514837Y-90013000D01*
X106915995Y-90013000D01*
X106916000Y-90013001D01*
X107458070Y-89905176D01*
X107552403Y-89886412D01*
X108091919Y-89525919D01*
X108091920Y-89525918D01*
X109255916Y-88361921D01*
X109255919Y-88361919D01*
X109573250Y-87887000D01*
X109616413Y-87822402D01*
X109743001Y-87186000D01*
X109743000Y-87185995D01*
X109743000Y-85314061D01*
X109939769Y-85019575D01*
X109985000Y-84792184D01*
X110030231Y-85019575D01*
X110466594Y-85672639D01*
X111119658Y-86109002D01*
X111890000Y-86262233D01*
X112660342Y-86109002D01*
X113313406Y-85672639D01*
X113749769Y-85019575D01*
X113795000Y-84792184D01*
X113840231Y-85019575D01*
X114037000Y-85314061D01*
X114037000Y-86811163D01*
X114011162Y-86837000D01*
X111626005Y-86837000D01*
X111626000Y-86836999D01*
X110989598Y-86963587D01*
X110899063Y-87024081D01*
X110450081Y-87324081D01*
X110450079Y-87324084D01*
X109174081Y-88600081D01*
X108813588Y-89139597D01*
X108813588Y-89139598D01*
X108686999Y-89776000D01*
X108687000Y-89776005D01*
X108687000Y-90734288D01*
X108350000Y-90734288D01*
X108071696Y-90786654D01*
X107816091Y-90951132D01*
X107644615Y-91202095D01*
X107584288Y-91500000D01*
X107584288Y-93500000D01*
X107636654Y-93778304D01*
X107801132Y-94033909D01*
X108052095Y-94205385D01*
X108350000Y-94265712D01*
X112350000Y-94265712D01*
X112628304Y-94213346D01*
X112883909Y-94048868D01*
X113055385Y-93797905D01*
X113115712Y-93500000D01*
X113115712Y-91500000D01*
X115534288Y-91500000D01*
X115534288Y-93500000D01*
X115586654Y-93778304D01*
X115751132Y-94033909D01*
X116002095Y-94205385D01*
X116300000Y-94265712D01*
X120300000Y-94265712D01*
X120578304Y-94213346D01*
X120833909Y-94048868D01*
X121005385Y-93797905D01*
X121065712Y-93500000D01*
X121065712Y-91500000D01*
X121013346Y-91221696D01*
X120848868Y-90966091D01*
X120597905Y-90794615D01*
X120300000Y-90734288D01*
X119963000Y-90734288D01*
X119963000Y-90464838D01*
X120564837Y-89863000D01*
X122899995Y-89863000D01*
X122900000Y-89863001D01*
X123430816Y-89757414D01*
X123536403Y-89736412D01*
X124075919Y-89375919D01*
X124075920Y-89375918D01*
X126055916Y-87395921D01*
X126055919Y-87395919D01*
X126416412Y-86856403D01*
X126450108Y-86687000D01*
X126543001Y-86220000D01*
X126543000Y-86219995D01*
X126543000Y-85314061D01*
X126739769Y-85019575D01*
X126785000Y-84792184D01*
X126830231Y-85019575D01*
X127266594Y-85672639D01*
X127919658Y-86109002D01*
X128690000Y-86262233D01*
X129460342Y-86109002D01*
X130113406Y-85672639D01*
X130549769Y-85019575D01*
X130595000Y-84792184D01*
X130640231Y-85019575D01*
X130837000Y-85314061D01*
X130837000Y-86537000D01*
X127826005Y-86537000D01*
X127826000Y-86536999D01*
X127189598Y-86663587D01*
X127075226Y-86740008D01*
X126650081Y-87024081D01*
X126650079Y-87024084D01*
X125074081Y-88600081D01*
X124713588Y-89139597D01*
X124713588Y-89139598D01*
X124586999Y-89776000D01*
X124587000Y-89776005D01*
X124587000Y-90734288D01*
X124250000Y-90734288D01*
X123971696Y-90786654D01*
X123716091Y-90951132D01*
X123544615Y-91202095D01*
X123484288Y-91500000D01*
X123484288Y-93500000D01*
X123536654Y-93778304D01*
X123701132Y-94033909D01*
X123952095Y-94205385D01*
X124250000Y-94265712D01*
X128250000Y-94265712D01*
X128528304Y-94213346D01*
X128783909Y-94048868D01*
X128955385Y-93797905D01*
X129015712Y-93500000D01*
X129015712Y-91500000D01*
X128963346Y-91221696D01*
X128798868Y-90966091D01*
X128547905Y-90794615D01*
X128250000Y-90734288D01*
X127913000Y-90734288D01*
X127913000Y-90464838D01*
X128514837Y-89863000D01*
X131949995Y-89863000D01*
X131950000Y-89863001D01*
X132480816Y-89757414D01*
X132586403Y-89736412D01*
X133125919Y-89375919D01*
X133125920Y-89375918D01*
X133675916Y-88825921D01*
X133675919Y-88825919D01*
X134036412Y-88286403D01*
X134163000Y-87650000D01*
X134163000Y-85314061D01*
X134359769Y-85019575D01*
X134513000Y-84249233D01*
X134513000Y-83150767D01*
X134359769Y-82380425D01*
X133923406Y-81727361D01*
X133270342Y-81290998D01*
X132500000Y-81137767D01*
X131729658Y-81290998D01*
X131076594Y-81727361D01*
X130640231Y-82380425D01*
X130595000Y-82607816D01*
X130549769Y-82380425D01*
X130113406Y-81727361D01*
X129460342Y-81290998D01*
X128690000Y-81137767D01*
X127919658Y-81290998D01*
X127266594Y-81727361D01*
X126830231Y-82380425D01*
X126785000Y-82607816D01*
X126739769Y-82380425D01*
X126303406Y-81727361D01*
X125650342Y-81290998D01*
X124880000Y-81137767D01*
X124109658Y-81290998D01*
X123456594Y-81727361D01*
X123097712Y-82264466D01*
X123097712Y-81938000D01*
X123045346Y-81659696D01*
X122880868Y-81404091D01*
X122629905Y-81232615D01*
X122332000Y-81172288D01*
X119808000Y-81172288D01*
X119529696Y-81224654D01*
X119274091Y-81389132D01*
X119102615Y-81640095D01*
X119042288Y-81938000D01*
X119042288Y-85462000D01*
X119094654Y-85740304D01*
X119259132Y-85995909D01*
X119510095Y-86167385D01*
X119808000Y-86227712D01*
X122332000Y-86227712D01*
X122564128Y-86184035D01*
X122211162Y-86537000D01*
X119876005Y-86537000D01*
X119876000Y-86536999D01*
X119239598Y-86663587D01*
X119125226Y-86740008D01*
X118700081Y-87024081D01*
X118700079Y-87024084D01*
X117124081Y-88600081D01*
X116763588Y-89139597D01*
X116763588Y-89139598D01*
X116636999Y-89776000D01*
X116637000Y-89776005D01*
X116637000Y-90734288D01*
X116300000Y-90734288D01*
X116021696Y-90786654D01*
X115766091Y-90951132D01*
X115594615Y-91202095D01*
X115534288Y-91500000D01*
X113115712Y-91500000D01*
X113063346Y-91221696D01*
X112898868Y-90966091D01*
X112647905Y-90794615D01*
X112350000Y-90734288D01*
X112013000Y-90734288D01*
X112013000Y-90464838D01*
X112314837Y-90163000D01*
X114699995Y-90163000D01*
X114700000Y-90163001D01*
X115230816Y-90057414D01*
X115336403Y-90036412D01*
X115875919Y-89675919D01*
X115875920Y-89675918D01*
X116875916Y-88675921D01*
X116875919Y-88675919D01*
X117199968Y-88190945D01*
X117236413Y-88136402D01*
X117363001Y-87500000D01*
X117363000Y-87499995D01*
X117363000Y-85314061D01*
X117559769Y-85019575D01*
X117713000Y-84249233D01*
X117713000Y-83150767D01*
X117559769Y-82380425D01*
X117123406Y-81727361D01*
X116470342Y-81290998D01*
X115700000Y-81137767D01*
X114929658Y-81290998D01*
X114276594Y-81727361D01*
X113840231Y-82380425D01*
X113795000Y-82607816D01*
X113749769Y-82380425D01*
X113313406Y-81727361D01*
X112660342Y-81290998D01*
X111890000Y-81137767D01*
X111119658Y-81290998D01*
X110466594Y-81727361D01*
X110030231Y-82380425D01*
X109985000Y-82607816D01*
X109939769Y-82380425D01*
X109503406Y-81727361D01*
X108850342Y-81290998D01*
X108080000Y-81137767D01*
X107309658Y-81290998D01*
X106656594Y-81727361D01*
X106220231Y-82380425D01*
X106175000Y-82607816D01*
X106129769Y-82380425D01*
X105693406Y-81727361D01*
X105040342Y-81290998D01*
X104270000Y-81137767D01*
X103499658Y-81290998D01*
X102846594Y-81727361D01*
X102410231Y-82380425D01*
X102365000Y-82607816D01*
X102319769Y-82380425D01*
X101883406Y-81727361D01*
X101230342Y-81290998D01*
X100460000Y-81137767D01*
X99689658Y-81290998D01*
X99036594Y-81727361D01*
X98600231Y-82380425D01*
X98555000Y-82607816D01*
X98509769Y-82380425D01*
X98073406Y-81727361D01*
X97420342Y-81290998D01*
X96650000Y-81137767D01*
X95879658Y-81290998D01*
X95226594Y-81727361D01*
X94790231Y-82380425D01*
X94745000Y-82607816D01*
X94699769Y-82380425D01*
X94263406Y-81727361D01*
X93610342Y-81290998D01*
X92840000Y-81137767D01*
X92069658Y-81290998D01*
X91416594Y-81727361D01*
X91057712Y-82264466D01*
X91057712Y-81938000D01*
X91005346Y-81659696D01*
X90840868Y-81404091D01*
X90589905Y-81232615D01*
X90292000Y-81172288D01*
X87768000Y-81172288D01*
X87489696Y-81224654D01*
X87234091Y-81389132D01*
X87062615Y-81640095D01*
X87002288Y-81938000D01*
X87002288Y-85462000D01*
X87054654Y-85740304D01*
X87219132Y-85995909D01*
X87470095Y-86167385D01*
X87768000Y-86227712D01*
X90292000Y-86227712D01*
X90570304Y-86175346D01*
X90577351Y-86170811D01*
X90111162Y-86637000D01*
X87750005Y-86637000D01*
X87750000Y-86636999D01*
X87232142Y-86740008D01*
X87113597Y-86763588D01*
X86814276Y-86963588D01*
X86574081Y-87124081D01*
X85324081Y-88374081D01*
X84963588Y-88913597D01*
X84963588Y-88913598D01*
X84836999Y-89550000D01*
X84837000Y-89550005D01*
X84837000Y-90734288D01*
X84500000Y-90734288D01*
X84221696Y-90786654D01*
X83966091Y-90951132D01*
X83794615Y-91202095D01*
X83734288Y-91500000D01*
X83200044Y-91500000D01*
X83200495Y-90984139D01*
X82896551Y-90248539D01*
X82334242Y-89685248D01*
X81599174Y-89380021D01*
X80803254Y-89379326D01*
X80067654Y-89683270D01*
X79504363Y-90245579D01*
X79199136Y-90980647D01*
X79198441Y-91776567D01*
X67604282Y-91776567D01*
X73164712Y-86053789D01*
X78292061Y-86098766D01*
X78345508Y-86109589D01*
X78430095Y-86167385D01*
X78728000Y-86227712D01*
X81252000Y-86227712D01*
X81530304Y-86175346D01*
X81785909Y-86010868D01*
X81957385Y-85759905D01*
X81962973Y-85732312D01*
X81995430Y-85683511D01*
X82050941Y-85390613D01*
X82017712Y-82732293D01*
X82017712Y-81938000D01*
X82007077Y-81881478D01*
X82000941Y-81390613D01*
X81948138Y-81123224D01*
X81785453Y-80873416D01*
X81538396Y-80706582D01*
X81245896Y-80649011D01*
X72095896Y-80699011D01*
X71813585Y-80755761D01*
X71566053Y-80921889D01*
X69774130Y-82733613D01*
X70619956Y-79826000D01*
X139164801Y-79826000D01*
X139174931Y-80039201D01*
G36*
X143358343Y-105751652D02*
X143358345Y-105751655D01*
X143500176Y-105846423D01*
X143703207Y-105982084D01*
X144110000Y-106063001D01*
X144110005Y-106063000D01*
X147234690Y-106063000D01*
X148337000Y-107165309D01*
X148337000Y-111642288D01*
X148138000Y-111642288D01*
X147859696Y-111694654D01*
X147604091Y-111859132D01*
X147432615Y-112110095D01*
X147390112Y-112319984D01*
X147258387Y-112408000D01*
X147048345Y-112548345D01*
X147048343Y-112548348D01*
X145948345Y-113648345D01*
X145717916Y-113993207D01*
X145636999Y-114400000D01*
X145637000Y-114400005D01*
X145637000Y-114896010D01*
X145444798Y-114767585D01*
X145100000Y-114699000D01*
X144740712Y-114699000D01*
X144740712Y-114625000D01*
X144688346Y-114346696D01*
X144523868Y-114091091D01*
X144272905Y-113919615D01*
X143975000Y-113859288D01*
X142475000Y-113859288D01*
X142196696Y-113911654D01*
X141941091Y-114076132D01*
X141769615Y-114327095D01*
X141709288Y-114625000D01*
X141709288Y-116625000D01*
X141761654Y-116903304D01*
X141926132Y-117158909D01*
X141984054Y-117198486D01*
X141941091Y-117226132D01*
X141769615Y-117477095D01*
X141709288Y-117775000D01*
X141709288Y-119775000D01*
X141761654Y-120053304D01*
X141926132Y-120308909D01*
X141984054Y-120348486D01*
X141941091Y-120376132D01*
X141769615Y-120627095D01*
X141709288Y-120925000D01*
X141709288Y-122925000D01*
X141761654Y-123203304D01*
X141926132Y-123458909D01*
X142177095Y-123630385D01*
X142475000Y-123690712D01*
X143249000Y-123690712D01*
X143249000Y-127476794D01*
X142712900Y-128012894D01*
X142712897Y-128012896D01*
X139088239Y-131637555D01*
X139012897Y-131687897D01*
X137651002Y-133049792D01*
X137553577Y-132814006D01*
X137187919Y-132447709D01*
X136709920Y-132249226D01*
X136423182Y-132248976D01*
X135887103Y-131712897D01*
X135784729Y-131644493D01*
X135594798Y-131517585D01*
X135250000Y-131449000D01*
X134127004Y-131449000D01*
X134130774Y-131439920D01*
X134131225Y-130922350D01*
X134091414Y-130826000D01*
X136825000Y-130826000D01*
X137169798Y-130757415D01*
X137462103Y-130562103D01*
X138712103Y-129312103D01*
X138762695Y-129236386D01*
X138907415Y-129019798D01*
X138976000Y-128675000D01*
X138976000Y-115278206D01*
X140987104Y-113267102D01*
X141055462Y-113164797D01*
X141182416Y-112974797D01*
X141251001Y-112629999D01*
X141251001Y-110044807D01*
X142248524Y-110044807D01*
X142666456Y-111056280D01*
X143439649Y-111830824D01*
X144450392Y-112250521D01*
X145544807Y-112251476D01*
X146556280Y-111833544D01*
X147330824Y-111060351D01*
X147750521Y-110049608D01*
X147751476Y-108955193D01*
X147333544Y-107943720D01*
X146560351Y-107169176D01*
X145549608Y-106749479D01*
X144455193Y-106748524D01*
X143443720Y-107166456D01*
X142669176Y-107939649D01*
X142249479Y-108950392D01*
X142248524Y-110044807D01*
X141251001Y-110044807D01*
X141251000Y-105705821D01*
X141425774Y-105284920D01*
X141426225Y-104767350D01*
X141228577Y-104289006D01*
X140862919Y-103922709D01*
X140384920Y-103724226D01*
X139867350Y-103723775D01*
X139389006Y-103921423D01*
X139067037Y-104242831D01*
X137912207Y-103088001D01*
X140694691Y-103088001D01*
X143358343Y-105751652D01*
X143358343Y-105751652D01*
G37*
X143358343Y-105751652D02*
X143358345Y-105751655D01*
X143500176Y-105846423D01*
X143703207Y-105982084D01*
X144110000Y-106063001D01*
X144110005Y-106063000D01*
X147234690Y-106063000D01*
X148337000Y-107165309D01*
X148337000Y-111642288D01*
X148138000Y-111642288D01*
X147859696Y-111694654D01*
X147604091Y-111859132D01*
X147432615Y-112110095D01*
X147390112Y-112319984D01*
X147258387Y-112408000D01*
X147048345Y-112548345D01*
X147048343Y-112548348D01*
X145948345Y-113648345D01*
X145717916Y-113993207D01*
X145636999Y-114400000D01*
X145637000Y-114400005D01*
X145637000Y-114896010D01*
X145444798Y-114767585D01*
X145100000Y-114699000D01*
X144740712Y-114699000D01*
X144740712Y-114625000D01*
X144688346Y-114346696D01*
X144523868Y-114091091D01*
X144272905Y-113919615D01*
X143975000Y-113859288D01*
X142475000Y-113859288D01*
X142196696Y-113911654D01*
X141941091Y-114076132D01*
X141769615Y-114327095D01*
X141709288Y-114625000D01*
X141709288Y-116625000D01*
X141761654Y-116903304D01*
X141926132Y-117158909D01*
X141984054Y-117198486D01*
X141941091Y-117226132D01*
X141769615Y-117477095D01*
X141709288Y-117775000D01*
X141709288Y-119775000D01*
X141761654Y-120053304D01*
X141926132Y-120308909D01*
X141984054Y-120348486D01*
X141941091Y-120376132D01*
X141769615Y-120627095D01*
X141709288Y-120925000D01*
X141709288Y-122925000D01*
X141761654Y-123203304D01*
X141926132Y-123458909D01*
X142177095Y-123630385D01*
X142475000Y-123690712D01*
X143249000Y-123690712D01*
X143249000Y-127476794D01*
X142712900Y-128012894D01*
X142712897Y-128012896D01*
X139088239Y-131637555D01*
X139012897Y-131687897D01*
X137651002Y-133049792D01*
X137553577Y-132814006D01*
X137187919Y-132447709D01*
X136709920Y-132249226D01*
X136423182Y-132248976D01*
X135887103Y-131712897D01*
X135784729Y-131644493D01*
X135594798Y-131517585D01*
X135250000Y-131449000D01*
X134127004Y-131449000D01*
X134130774Y-131439920D01*
X134131225Y-130922350D01*
X134091414Y-130826000D01*
X136825000Y-130826000D01*
X137169798Y-130757415D01*
X137462103Y-130562103D01*
X138712103Y-129312103D01*
X138762695Y-129236386D01*
X138907415Y-129019798D01*
X138976000Y-128675000D01*
X138976000Y-115278206D01*
X140987104Y-113267102D01*
X141055462Y-113164797D01*
X141182416Y-112974797D01*
X141251001Y-112629999D01*
X141251001Y-110044807D01*
X142248524Y-110044807D01*
X142666456Y-111056280D01*
X143439649Y-111830824D01*
X144450392Y-112250521D01*
X145544807Y-112251476D01*
X146556280Y-111833544D01*
X147330824Y-111060351D01*
X147750521Y-110049608D01*
X147751476Y-108955193D01*
X147333544Y-107943720D01*
X146560351Y-107169176D01*
X145549608Y-106749479D01*
X144455193Y-106748524D01*
X143443720Y-107166456D01*
X142669176Y-107939649D01*
X142249479Y-108950392D01*
X142248524Y-110044807D01*
X141251001Y-110044807D01*
X141251000Y-105705821D01*
X141425774Y-105284920D01*
X141426225Y-104767350D01*
X141228577Y-104289006D01*
X140862919Y-103922709D01*
X140384920Y-103724226D01*
X139867350Y-103723775D01*
X139389006Y-103921423D01*
X139067037Y-104242831D01*
X137912207Y-103088001D01*
X140694691Y-103088001D01*
X143358343Y-105751652D01*
G36*
X121993257Y-129439408D02*
X122317000Y-129923923D01*
X122317000Y-130138995D01*
X122316999Y-130139000D01*
X122397916Y-130545793D01*
X122628345Y-130890655D01*
X123669343Y-131931652D01*
X123669345Y-131931655D01*
X124014208Y-132162084D01*
X124074114Y-132174000D01*
X112240568Y-132174000D01*
X112531911Y-131883164D01*
X112762736Y-131327275D01*
X112763262Y-130725366D01*
X112533407Y-130169074D01*
X112116061Y-129751000D01*
X119686141Y-129751000D01*
X119887081Y-129952291D01*
X120365080Y-130150774D01*
X120882650Y-130151225D01*
X121360994Y-129953577D01*
X121727291Y-129587919D01*
X121925774Y-129109920D01*
X121925782Y-129100191D01*
X121993257Y-129439408D01*
X121993257Y-129439408D01*
G37*
X121993257Y-129439408D02*
X122317000Y-129923923D01*
X122317000Y-130138995D01*
X122316999Y-130139000D01*
X122397916Y-130545793D01*
X122628345Y-130890655D01*
X123669343Y-131931652D01*
X123669345Y-131931655D01*
X124014208Y-132162084D01*
X124074114Y-132174000D01*
X112240568Y-132174000D01*
X112531911Y-131883164D01*
X112762736Y-131327275D01*
X112763262Y-130725366D01*
X112533407Y-130169074D01*
X112116061Y-129751000D01*
X119686141Y-129751000D01*
X119887081Y-129952291D01*
X120365080Y-130150774D01*
X120882650Y-130151225D01*
X121360994Y-129953577D01*
X121727291Y-129587919D01*
X121925774Y-129109920D01*
X121925782Y-129100191D01*
X121993257Y-129439408D01*
G36*
X134549000Y-107761141D02*
X134347709Y-107962081D01*
X134149226Y-108440080D01*
X134148775Y-108957650D01*
X134346423Y-109435994D01*
X134712081Y-109802291D01*
X135190080Y-110000774D01*
X135599020Y-110001130D01*
X135598775Y-110282650D01*
X135796423Y-110760994D01*
X136162081Y-111127291D01*
X136364465Y-111211329D01*
X135084748Y-112491046D01*
X135142641Y-112200000D01*
X135032190Y-111644726D01*
X134717653Y-111173988D01*
X134246915Y-110859451D01*
X133691641Y-110749000D01*
X133508359Y-110749000D01*
X132953085Y-110859451D01*
X132600000Y-111095375D01*
X132246915Y-110859451D01*
X131691641Y-110749000D01*
X131508359Y-110749000D01*
X130953085Y-110859451D01*
X130851000Y-110927662D01*
X130851000Y-107601000D01*
X134549000Y-107601000D01*
X134549000Y-107761141D01*
X134549000Y-107761141D01*
G37*
X134549000Y-107761141D02*
X134347709Y-107962081D01*
X134149226Y-108440080D01*
X134148775Y-108957650D01*
X134346423Y-109435994D01*
X134712081Y-109802291D01*
X135190080Y-110000774D01*
X135599020Y-110001130D01*
X135598775Y-110282650D01*
X135796423Y-110760994D01*
X136162081Y-111127291D01*
X136364465Y-111211329D01*
X135084748Y-112491046D01*
X135142641Y-112200000D01*
X135032190Y-111644726D01*
X134717653Y-111173988D01*
X134246915Y-110859451D01*
X133691641Y-110749000D01*
X133508359Y-110749000D01*
X132953085Y-110859451D01*
X132600000Y-111095375D01*
X132246915Y-110859451D01*
X131691641Y-110749000D01*
X131508359Y-110749000D01*
X130953085Y-110859451D01*
X130851000Y-110927662D01*
X130851000Y-107601000D01*
X134549000Y-107601000D01*
X134549000Y-107761141D01*
G36*
X118431510Y-105825656D02*
X119169591Y-106921595D01*
X118836664Y-107372026D01*
X117377000Y-107349910D01*
X117377000Y-105804566D01*
X118431510Y-105825656D01*
X118431510Y-105825656D01*
G37*
X118431510Y-105825656D02*
X119169591Y-106921595D01*
X118836664Y-107372026D01*
X117377000Y-107349910D01*
X117377000Y-105804566D01*
X118431510Y-105825656D01*
M02*
